<?xml version="1.0" encoding="utf-8" standalone="no"?>
<!DOCTYPE svg PUBLIC "-//W3C//DTD SVG 1.1//EN"
  "http://www.w3.org/Graphics/SVG/1.1/DTD/svg11.dtd">
<!-- Created with matplotlib (http://matplotlib.org/) -->
<svg height="1108pt" version="1.1" viewBox="0 0 216 1108" width="216pt" xmlns="http://www.w3.org/2000/svg" xmlns:xlink="http://www.w3.org/1999/xlink">
 <defs>
  <style type="text/css">
*{stroke-linecap:butt;stroke-linejoin:round;}
  </style>
 </defs>
 <g id="figure_1">
  <g id="patch_1">
   <path d="
M0 1108.8
L216 1108.8
L216 0
L0 0
z
" style="fill:#ffffff;"/>
  </g>
  <g id="axes_1">
   <g id="patch_2">
    <path clip-path="url(#p6b2cb5115f)" d="
M110.863 225.157
C103.072 227.209 94.9126 227.445 87.0156 225.848
C79.1186 224.251 71.6925 220.862 65.311 215.944
C58.9295 211.025 53.7613 204.707 50.2056 197.477
C46.6498 190.247 44.8005 182.297 44.8005 174.24
C44.8005 166.183 46.6498 158.233 50.2056 151.003
C53.7613 143.773 58.9295 137.455 65.311 132.536
C71.6925 127.618 79.1186 124.229 87.0156 122.632
C94.9126 121.035 103.072 121.271 110.863 123.323
C99.5776 126.238 89.575 132.823 82.4375 142.038
C75.3 151.253 71.4248 162.584 71.4248 174.24
C71.4248 185.896 75.3 197.227 82.4375 206.442
C89.575 215.657 99.5776 222.242 110.863 225.157" style="fill:#ff0000;opacity:0.4;"/>
   </g>
   <g id="patch_3">
    <path clip-path="url(#p6b2cb5115f)" d="
M110.863 123.323
C118.634 121.316 126.762 121.115 134.622 122.734
C142.483 124.353 149.869 127.751 156.214 132.665
C162.559 137.58 167.696 143.882 171.229 151.088
C174.762 158.294 176.599 166.214 176.599 174.24
C176.599 182.266 174.762 190.186 171.229 197.392
C167.696 204.598 162.559 210.9 156.214 215.815
C149.869 220.729 142.483 224.127 134.622 225.746
C126.762 227.365 118.634 227.164 110.863 225.157
C122.107 222.196 132.059 215.592 139.157 206.383
C146.255 197.173 150.107 185.867 150.107 174.24
C150.107 162.613 146.255 151.307 139.157 142.097
C132.059 132.888 122.107 126.284 110.863 123.323" style="fill:#008000;opacity:0.4;"/>
   </g>
   <g id="patch_4">
    <path clip-path="url(#p6b2cb5115f)" d="
M110.863 225.157
C122.107 222.196 132.059 215.592 139.157 206.383
C146.255 197.173 150.107 185.867 150.107 174.24
C150.107 162.613 146.255 151.307 139.157 142.097
C132.059 132.888 122.107 126.284 110.863 123.323
C99.5776 126.238 89.575 132.823 82.4375 142.038
C75.3 151.253 71.4248 162.584 71.4248 174.24
C71.4248 185.896 75.3 197.227 82.4375 206.442
C89.575 215.657 99.5776 222.242 110.863 225.157" style="fill:#b25900;opacity:0.4;"/>
   </g>
   <g id="text_1">
    <!-- 1071144 -->
    <defs>
     <path d="
M31.7812 66.4062
Q24.1719 66.4062 20.3281 58.9062
Q16.5 51.4219 16.5 36.375
Q16.5 21.3906 20.3281 13.8906
Q24.1719 6.39062 31.7812 6.39062
Q39.4531 6.39062 43.2812 13.8906
Q47.125 21.3906 47.125 36.375
Q47.125 51.4219 43.2812 58.9062
Q39.4531 66.4062 31.7812 66.4062
M31.7812 74.2188
Q44.0469 74.2188 50.5156 64.5156
Q56.9844 54.8281 56.9844 36.375
Q56.9844 17.9688 50.5156 8.26562
Q44.0469 -1.42188 31.7812 -1.42188
Q19.5312 -1.42188 13.0625 8.26562
Q6.59375 17.9688 6.59375 36.375
Q6.59375 54.8281 13.0625 64.5156
Q19.5312 74.2188 31.7812 74.2188" id="BitstreamVeraSans-Roman-30"/>
     <path d="
M12.4062 8.29688
L28.5156 8.29688
L28.5156 63.9219
L10.9844 60.4062
L10.9844 69.3906
L28.4219 72.9062
L38.2812 72.9062
L38.2812 8.29688
L54.3906 8.29688
L54.3906 0
L12.4062 0
z
" id="BitstreamVeraSans-Roman-31"/>
     <path d="
M8.20312 72.9062
L55.0781 72.9062
L55.0781 68.7031
L28.6094 0
L18.3125 0
L43.2188 64.5938
L8.20312 64.5938
z
" id="BitstreamVeraSans-Roman-37"/>
     <path d="
M37.7969 64.3125
L12.8906 25.3906
L37.7969 25.3906
z

M35.2031 72.9062
L47.6094 72.9062
L47.6094 25.3906
L58.0156 25.3906
L58.0156 17.1875
L47.6094 17.1875
L47.6094 0
L37.7969 0
L37.7969 17.1875
L4.89062 17.1875
L4.89062 26.7031
z
" id="BitstreamVeraSans-Roman-34"/>
    </defs>
    <g transform="translate(40.9614189859 176.4475)scale(0.08 -0.08)">
     <use xlink:href="#BitstreamVeraSans-Roman-31"/>
     <use x="63.623046875" xlink:href="#BitstreamVeraSans-Roman-30"/>
     <use x="127.24609375" xlink:href="#BitstreamVeraSans-Roman-37"/>
     <use x="190.869140625" xlink:href="#BitstreamVeraSans-Roman-31"/>
     <use x="254.4921875" xlink:href="#BitstreamVeraSans-Roman-31"/>
     <use x="318.115234375" xlink:href="#BitstreamVeraSans-Roman-34"/>
     <use x="381.73828125" xlink:href="#BitstreamVeraSans-Roman-34"/>
    </g>
   </g>
   <g id="text_2">
    <!-- 1062755 -->
    <defs>
     <path d="
M19.1875 8.29688
L53.6094 8.29688
L53.6094 0
L7.32812 0
L7.32812 8.29688
Q12.9375 14.1094 22.625 23.8906
Q32.3281 33.6875 34.8125 36.5312
Q39.5469 41.8438 41.4219 45.5312
Q43.3125 49.2188 43.3125 52.7812
Q43.3125 58.5938 39.2344 62.25
Q35.1562 65.9219 28.6094 65.9219
Q23.9688 65.9219 18.8125 64.3125
Q13.6719 62.7031 7.8125 59.4219
L7.8125 69.3906
Q13.7656 71.7812 18.9375 73
Q24.125 74.2188 28.4219 74.2188
Q39.75 74.2188 46.4844 68.5469
Q53.2188 62.8906 53.2188 53.4219
Q53.2188 48.9219 51.5312 44.8906
Q49.8594 40.875 45.4062 35.4062
Q44.1875 33.9844 37.6406 27.2188
Q31.1094 20.4531 19.1875 8.29688" id="BitstreamVeraSans-Roman-32"/>
     <path d="
M33.0156 40.375
Q26.375 40.375 22.4844 35.8281
Q18.6094 31.2969 18.6094 23.3906
Q18.6094 15.5312 22.4844 10.9531
Q26.375 6.39062 33.0156 6.39062
Q39.6562 6.39062 43.5312 10.9531
Q47.4062 15.5312 47.4062 23.3906
Q47.4062 31.2969 43.5312 35.8281
Q39.6562 40.375 33.0156 40.375
M52.5938 71.2969
L52.5938 62.3125
Q48.875 64.0625 45.0938 64.9844
Q41.3125 65.9219 37.5938 65.9219
Q27.8281 65.9219 22.6719 59.3281
Q17.5312 52.7344 16.7969 39.4062
Q19.6719 43.6562 24.0156 45.9219
Q28.375 48.1875 33.5938 48.1875
Q44.5781 48.1875 50.9531 41.5156
Q57.3281 34.8594 57.3281 23.3906
Q57.3281 12.1562 50.6875 5.35938
Q44.0469 -1.42188 33.0156 -1.42188
Q20.3594 -1.42188 13.6719 8.26562
Q6.98438 17.9688 6.98438 36.375
Q6.98438 53.6562 15.1875 63.9375
Q23.3906 74.2188 37.2031 74.2188
Q40.9219 74.2188 44.7031 73.4844
Q48.4844 72.75 52.5938 71.2969" id="BitstreamVeraSans-Roman-36"/>
     <path d="
M10.7969 72.9062
L49.5156 72.9062
L49.5156 64.5938
L19.8281 64.5938
L19.8281 46.7344
Q21.9688 47.4688 24.1094 47.8281
Q26.2656 48.1875 28.4219 48.1875
Q40.625 48.1875 47.75 41.5
Q54.8906 34.8125 54.8906 23.3906
Q54.8906 11.625 47.5625 5.09375
Q40.2344 -1.42188 26.9062 -1.42188
Q22.3125 -1.42188 17.5469 -0.640625
Q12.7969 0.140625 7.71875 1.70312
L7.71875 11.625
Q12.1094 9.23438 16.7969 8.0625
Q21.4844 6.89062 26.7031 6.89062
Q35.1562 6.89062 40.0781 11.3281
Q45.0156 15.7656 45.0156 23.3906
Q45.0156 31 40.0781 35.4375
Q35.1562 39.8906 26.7031 39.8906
Q22.75 39.8906 18.8125 39.0156
Q14.8906 38.1406 10.7969 36.2812
z
" id="BitstreamVeraSans-Roman-35"/>
    </defs>
    <g transform="translate(146.32683795 176.4475)scale(0.08 -0.08)">
     <use xlink:href="#BitstreamVeraSans-Roman-31"/>
     <use x="63.623046875" xlink:href="#BitstreamVeraSans-Roman-30"/>
     <use x="127.24609375" xlink:href="#BitstreamVeraSans-Roman-36"/>
     <use x="190.869140625" xlink:href="#BitstreamVeraSans-Roman-32"/>
     <use x="254.4921875" xlink:href="#BitstreamVeraSans-Roman-37"/>
     <use x="318.115234375" xlink:href="#BitstreamVeraSans-Roman-35"/>
     <use x="381.73828125" xlink:href="#BitstreamVeraSans-Roman-35"/>
    </g>
   </g>
   <g id="text_3">
    <!-- 2289587 -->
    <defs>
     <path d="
M31.7812 34.625
Q24.75 34.625 20.7188 30.8594
Q16.7031 27.0938 16.7031 20.5156
Q16.7031 13.9219 20.7188 10.1562
Q24.75 6.39062 31.7812 6.39062
Q38.8125 6.39062 42.8594 10.1719
Q46.9219 13.9688 46.9219 20.5156
Q46.9219 27.0938 42.8906 30.8594
Q38.875 34.625 31.7812 34.625
M21.9219 38.8125
Q15.5781 40.375 12.0312 44.7188
Q8.5 49.0781 8.5 55.3281
Q8.5 64.0625 14.7188 69.1406
Q20.9531 74.2188 31.7812 74.2188
Q42.6719 74.2188 48.875 69.1406
Q55.0781 64.0625 55.0781 55.3281
Q55.0781 49.0781 51.5312 44.7188
Q48 40.375 41.7031 38.8125
Q48.8281 37.1562 52.7969 32.3125
Q56.7812 27.4844 56.7812 20.5156
Q56.7812 9.90625 50.3125 4.23438
Q43.8438 -1.42188 31.7812 -1.42188
Q19.7344 -1.42188 13.25 4.23438
Q6.78125 9.90625 6.78125 20.5156
Q6.78125 27.4844 10.7812 32.3125
Q14.7969 37.1562 21.9219 38.8125
M18.3125 54.3906
Q18.3125 48.7344 21.8438 45.5625
Q25.3906 42.3906 31.7812 42.3906
Q38.1406 42.3906 41.7188 45.5625
Q45.3125 48.7344 45.3125 54.3906
Q45.3125 60.0625 41.7188 63.2344
Q38.1406 66.4062 31.7812 66.4062
Q25.3906 66.4062 21.8438 63.2344
Q18.3125 60.0625 18.3125 54.3906" id="BitstreamVeraSans-Roman-38"/>
     <path d="
M10.9844 1.51562
L10.9844 10.5
Q14.7031 8.73438 18.5 7.8125
Q22.3125 6.89062 25.9844 6.89062
Q35.75 6.89062 40.8906 13.4531
Q46.0469 20.0156 46.7812 33.4062
Q43.9531 29.2031 39.5938 26.9531
Q35.25 24.7031 29.9844 24.7031
Q19.0469 24.7031 12.6719 31.3125
Q6.29688 37.9375 6.29688 49.4219
Q6.29688 60.6406 12.9375 67.4219
Q19.5781 74.2188 30.6094 74.2188
Q43.2656 74.2188 49.9219 64.5156
Q56.5938 54.8281 56.5938 36.375
Q56.5938 19.1406 48.4062 8.85938
Q40.2344 -1.42188 26.4219 -1.42188
Q22.7031 -1.42188 18.8906 -0.6875
Q15.0938 0.046875 10.9844 1.51562
M30.6094 32.4219
Q37.25 32.4219 41.125 36.9531
Q45.0156 41.5 45.0156 49.4219
Q45.0156 57.2812 41.125 61.8438
Q37.25 66.4062 30.6094 66.4062
Q23.9688 66.4062 20.0938 61.8438
Q16.2188 57.2812 16.2188 49.4219
Q16.2188 41.5 20.0938 36.9531
Q23.9688 32.4219 30.6094 32.4219" id="BitstreamVeraSans-Roman-39"/>
    </defs>
    <g transform="translate(93.5857569357 176.4475)scale(0.08 -0.08)">
     <use xlink:href="#BitstreamVeraSans-Roman-32"/>
     <use x="63.623046875" xlink:href="#BitstreamVeraSans-Roman-32"/>
     <use x="127.24609375" xlink:href="#BitstreamVeraSans-Roman-38"/>
     <use x="190.869140625" xlink:href="#BitstreamVeraSans-Roman-39"/>
     <use x="254.4921875" xlink:href="#BitstreamVeraSans-Roman-35"/>
     <use x="318.115234375" xlink:href="#BitstreamVeraSans-Roman-38"/>
     <use x="381.73828125" xlink:href="#BitstreamVeraSans-Roman-37"/>
    </g>
   </g>
   <g id="text_4">
    <!-- Tarahumara 1 -->
    <defs>
     <path id="BitstreamVeraSans-Roman-20"/>
     <path d="
M34.2812 27.4844
Q23.3906 27.4844 19.1875 25
Q14.9844 22.5156 14.9844 16.5
Q14.9844 11.7188 18.1406 8.90625
Q21.2969 6.10938 26.7031 6.10938
Q34.1875 6.10938 38.7031 11.4062
Q43.2188 16.7031 43.2188 25.4844
L43.2188 27.4844
z

M52.2031 31.2031
L52.2031 0
L43.2188 0
L43.2188 8.29688
Q40.1406 3.32812 35.5469 0.953125
Q30.9531 -1.42188 24.3125 -1.42188
Q15.9219 -1.42188 10.9531 3.29688
Q6 8.01562 6 15.9219
Q6 25.1406 12.1719 29.8281
Q18.3594 34.5156 30.6094 34.5156
L43.2188 34.5156
L43.2188 35.4062
Q43.2188 41.6094 39.1406 45
Q35.0625 48.3906 27.6875 48.3906
Q23 48.3906 18.5469 47.2656
Q14.1094 46.1406 10.0156 43.8906
L10.0156 52.2031
Q14.9375 54.1094 19.5781 55.0469
Q24.2188 56 28.6094 56
Q40.4844 56 46.3438 49.8438
Q52.2031 43.7031 52.2031 31.2031" id="BitstreamVeraSans-Roman-61"/>
     <path d="
M-0.296875 72.9062
L61.375 72.9062
L61.375 64.5938
L35.5 64.5938
L35.5 0
L25.5938 0
L25.5938 64.5938
L-0.296875 64.5938
z
" id="BitstreamVeraSans-Roman-54"/>
     <path d="
M54.8906 33.0156
L54.8906 0
L45.9062 0
L45.9062 32.7188
Q45.9062 40.4844 42.875 44.3281
Q39.8438 48.1875 33.7969 48.1875
Q26.5156 48.1875 22.3125 43.5469
Q18.1094 38.9219 18.1094 30.9062
L18.1094 0
L9.07812 0
L9.07812 75.9844
L18.1094 75.9844
L18.1094 46.1875
Q21.3438 51.125 25.7031 53.5625
Q30.0781 56 35.7969 56
Q45.2188 56 50.0469 50.1719
Q54.8906 44.3438 54.8906 33.0156" id="BitstreamVeraSans-Roman-68"/>
     <path d="
M52 44.1875
Q55.375 50.25 60.0625 53.125
Q64.75 56 71.0938 56
Q79.6406 56 84.2812 50.0156
Q88.9219 44.0469 88.9219 33.0156
L88.9219 0
L79.8906 0
L79.8906 32.7188
Q79.8906 40.5781 77.0938 44.375
Q74.3125 48.1875 68.6094 48.1875
Q61.625 48.1875 57.5625 43.5469
Q53.5156 38.9219 53.5156 30.9062
L53.5156 0
L44.4844 0
L44.4844 32.7188
Q44.4844 40.625 41.7031 44.4062
Q38.9219 48.1875 33.1094 48.1875
Q26.2188 48.1875 22.1562 43.5312
Q18.1094 38.875 18.1094 30.9062
L18.1094 0
L9.07812 0
L9.07812 54.6875
L18.1094 54.6875
L18.1094 46.1875
Q21.1875 51.2188 25.4844 53.6094
Q29.7812 56 35.6875 56
Q41.6562 56 45.8281 52.9688
Q50 49.9531 52 44.1875" id="BitstreamVeraSans-Roman-6d"/>
     <path d="
M8.5 21.5781
L8.5 54.6875
L17.4844 54.6875
L17.4844 21.9219
Q17.4844 14.1562 20.5 10.2656
Q23.5312 6.39062 29.5938 6.39062
Q36.8594 6.39062 41.0781 11.0312
Q45.3125 15.6719 45.3125 23.6875
L45.3125 54.6875
L54.2969 54.6875
L54.2969 0
L45.3125 0
L45.3125 8.40625
Q42.0469 3.42188 37.7188 1
Q33.4062 -1.42188 27.6875 -1.42188
Q18.2656 -1.42188 13.375 4.4375
Q8.5 10.2969 8.5 21.5781" id="BitstreamVeraSans-Roman-75"/>
     <path d="
M41.1094 46.2969
Q39.5938 47.1719 37.8125 47.5781
Q36.0312 48 33.8906 48
Q26.2656 48 22.1875 43.0469
Q18.1094 38.0938 18.1094 28.8125
L18.1094 0
L9.07812 0
L9.07812 54.6875
L18.1094 54.6875
L18.1094 46.1875
Q20.9531 51.1719 25.4844 53.5781
Q30.0312 56 36.5312 56
Q37.4531 56 38.5781 55.875
Q39.7031 55.7656 41.0625 55.5156
z
" id="BitstreamVeraSans-Roman-72"/>
    </defs>
    <g transform="translate(31.9291254223 239.449608898)scale(0.096 -0.096)">
     <use xlink:href="#BitstreamVeraSans-Roman-54"/>
     <use x="44.583984375" xlink:href="#BitstreamVeraSans-Roman-61"/>
     <use x="105.86328125" xlink:href="#BitstreamVeraSans-Roman-72"/>
     <use x="146.9765625" xlink:href="#BitstreamVeraSans-Roman-61"/>
     <use x="208.255859375" xlink:href="#BitstreamVeraSans-Roman-68"/>
     <use x="271.634765625" xlink:href="#BitstreamVeraSans-Roman-75"/>
     <use x="335.013671875" xlink:href="#BitstreamVeraSans-Roman-6d"/>
     <use x="432.42578125" xlink:href="#BitstreamVeraSans-Roman-61"/>
     <use x="493.705078125" xlink:href="#BitstreamVeraSans-Roman-72"/>
     <use x="534.818359375" xlink:href="#BitstreamVeraSans-Roman-61"/>
     <use x="596.09765625" xlink:href="#BitstreamVeraSans-Roman-20"/>
     <use x="627.884765625" xlink:href="#BitstreamVeraSans-Roman-31"/>
    </g>
   </g>
   <g id="text_5">
    <!-- Tarahumara 2 -->
    <g transform="translate(124.012131513 239.383851962)scale(0.096 -0.096)">
     <use xlink:href="#BitstreamVeraSans-Roman-54"/>
     <use x="44.583984375" xlink:href="#BitstreamVeraSans-Roman-61"/>
     <use x="105.86328125" xlink:href="#BitstreamVeraSans-Roman-72"/>
     <use x="146.9765625" xlink:href="#BitstreamVeraSans-Roman-61"/>
     <use x="208.255859375" xlink:href="#BitstreamVeraSans-Roman-68"/>
     <use x="271.634765625" xlink:href="#BitstreamVeraSans-Roman-75"/>
     <use x="335.013671875" xlink:href="#BitstreamVeraSans-Roman-6d"/>
     <use x="432.42578125" xlink:href="#BitstreamVeraSans-Roman-61"/>
     <use x="493.705078125" xlink:href="#BitstreamVeraSans-Roman-72"/>
     <use x="534.818359375" xlink:href="#BitstreamVeraSans-Roman-61"/>
     <use x="596.09765625" xlink:href="#BitstreamVeraSans-Roman-20"/>
     <use x="627.884765625" xlink:href="#BitstreamVeraSans-Roman-32"/>
    </g>
   </g>
  </g>
  <g id="axes_2">
   <g id="patch_5">
    <path clip-path="url(#p8ebd8fd0c5)" d="
M110.758 377.179
C102.965 379.247 94.8001 379.497 86.8954 377.91
C78.9907 376.322 71.5554 372.94 65.1649 368.024
C58.7745 363.108 53.5982 356.789 50.0367 349.555
C46.4751 342.322 44.6227 334.367 44.6227 326.304
C44.6227 318.241 46.4751 310.286 50.0367 303.053
C53.5982 295.819 58.7745 289.5 65.1649 284.584
C71.5554 279.668 78.9907 276.286 86.8954 274.698
C94.8001 273.111 102.965 273.361 110.758 275.429
C99.5244 278.389 89.5818 284.988 82.4909 294.19
C75.4 303.391 71.5526 314.687 71.5526 326.304
C71.5526 337.921 75.4 349.217 82.4909 358.418
C89.5818 367.62 99.5244 374.219 110.758 377.179" style="fill:#ff0000;opacity:0.4;"/>
   </g>
   <g id="patch_6">
    <path clip-path="url(#p8ebd8fd0c5)" d="
M110.758 275.429
C118.543 273.377 126.697 273.139 134.589 274.735
C142.481 276.33 149.902 279.715 156.279 284.63
C162.657 289.545 167.822 295.858 171.376 303.083
C174.929 310.308 176.777 318.253 176.777 326.304
C176.777 334.355 174.929 342.3 171.376 349.525
C167.822 356.75 162.657 363.063 156.279 367.978
C149.902 372.893 142.481 376.278 134.589 377.873
C126.697 379.469 118.543 379.231 110.758 377.179
C121.976 374.203 131.901 367.597 138.978 358.398
C146.055 349.198 149.894 337.911 149.894 326.304
C149.894 314.697 146.055 303.41 138.978 294.21
C131.901 285.011 121.976 278.405 110.758 275.429" style="fill:#008000;opacity:0.4;"/>
   </g>
   <g id="patch_7">
    <path clip-path="url(#p8ebd8fd0c5)" d="
M110.758 377.179
C121.976 374.203 131.901 367.597 138.978 358.398
C146.055 349.198 149.894 337.911 149.894 326.304
C149.894 314.697 146.055 303.41 138.978 294.21
C131.901 285.011 121.976 278.405 110.758 275.429
C99.5244 278.389 89.5818 284.988 82.4909 294.19
C75.4 303.391 71.5526 314.687 71.5526 326.304
C71.5526 337.921 75.4 349.217 82.4909 358.418
C89.5818 367.62 99.5244 374.219 110.758 377.179" style="fill:#b25900;opacity:0.4;"/>
   </g>
   <g id="text_6">
    <!-- 1087840 -->
    <g transform="translate(40.9776129033 328.5115)scale(0.08 -0.08)">
     <use xlink:href="#BitstreamVeraSans-Roman-31"/>
     <use x="63.623046875" xlink:href="#BitstreamVeraSans-Roman-30"/>
     <use x="127.24609375" xlink:href="#BitstreamVeraSans-Roman-38"/>
     <use x="190.869140625" xlink:href="#BitstreamVeraSans-Roman-37"/>
     <use x="254.4921875" xlink:href="#BitstreamVeraSans-Roman-38"/>
     <use x="318.115234375" xlink:href="#BitstreamVeraSans-Roman-34"/>
     <use x="381.73828125" xlink:href="#BitstreamVeraSans-Roman-30"/>
    </g>
   </g>
   <g id="text_7">
    <!-- 1084829 -->
    <g transform="translate(146.241489441 328.5115)scale(0.08 -0.08)">
     <use xlink:href="#BitstreamVeraSans-Roman-31"/>
     <use x="63.623046875" xlink:href="#BitstreamVeraSans-Roman-30"/>
     <use x="127.24609375" xlink:href="#BitstreamVeraSans-Roman-38"/>
     <use x="190.869140625" xlink:href="#BitstreamVeraSans-Roman-34"/>
     <use x="254.4921875" xlink:href="#BitstreamVeraSans-Roman-38"/>
     <use x="318.115234375" xlink:href="#BitstreamVeraSans-Roman-32"/>
     <use x="381.73828125" xlink:href="#BitstreamVeraSans-Roman-39"/>
    </g>
   </g>
   <g id="text_8">
    <!-- 2288222 -->
    <g transform="translate(93.6022273444 328.5115)scale(0.08 -0.08)">
     <use xlink:href="#BitstreamVeraSans-Roman-32"/>
     <use x="63.623046875" xlink:href="#BitstreamVeraSans-Roman-32"/>
     <use x="127.24609375" xlink:href="#BitstreamVeraSans-Roman-38"/>
     <use x="190.869140625" xlink:href="#BitstreamVeraSans-Roman-38"/>
     <use x="254.4921875" xlink:href="#BitstreamVeraSans-Roman-32"/>
     <use x="318.115234375" xlink:href="#BitstreamVeraSans-Roman-32"/>
     <use x="381.73828125" xlink:href="#BitstreamVeraSans-Roman-32"/>
    </g>
   </g>
   <g id="text_9">
    <!-- Tepehuana 1 -->
    <defs>
     <path d="
M56.2031 29.5938
L56.2031 25.2031
L14.8906 25.2031
Q15.4844 15.9219 20.4844 11.0625
Q25.4844 6.20312 34.4219 6.20312
Q39.5938 6.20312 44.4531 7.46875
Q49.3125 8.73438 54.1094 11.2812
L54.1094 2.78125
Q49.2656 0.734375 44.1875 -0.34375
Q39.1094 -1.42188 33.8906 -1.42188
Q20.7969 -1.42188 13.1562 6.1875
Q5.51562 13.8125 5.51562 26.8125
Q5.51562 40.2344 12.7656 48.1094
Q20.0156 56 32.3281 56
Q43.3594 56 49.7812 48.8906
Q56.2031 41.7969 56.2031 29.5938
M47.2188 32.2344
Q47.125 39.5938 43.0938 43.9844
Q39.0625 48.3906 32.4219 48.3906
Q24.9062 48.3906 20.3906 44.1406
Q15.875 39.8906 15.1875 32.1719
z
" id="BitstreamVeraSans-Roman-65"/>
     <path d="
M54.8906 33.0156
L54.8906 0
L45.9062 0
L45.9062 32.7188
Q45.9062 40.4844 42.875 44.3281
Q39.8438 48.1875 33.7969 48.1875
Q26.5156 48.1875 22.3125 43.5469
Q18.1094 38.9219 18.1094 30.9062
L18.1094 0
L9.07812 0
L9.07812 54.6875
L18.1094 54.6875
L18.1094 46.1875
Q21.3438 51.125 25.7031 53.5625
Q30.0781 56 35.7969 56
Q45.2188 56 50.0469 50.1719
Q54.8906 44.3438 54.8906 33.0156" id="BitstreamVeraSans-Roman-6e"/>
     <path d="
M18.1094 8.20312
L18.1094 -20.7969
L9.07812 -20.7969
L9.07812 54.6875
L18.1094 54.6875
L18.1094 46.3906
Q20.9531 51.2656 25.2656 53.625
Q29.5938 56 35.5938 56
Q45.5625 56 51.7812 48.0938
Q58.0156 40.1875 58.0156 27.2969
Q58.0156 14.4062 51.7812 6.48438
Q45.5625 -1.42188 35.5938 -1.42188
Q29.5938 -1.42188 25.2656 0.953125
Q20.9531 3.32812 18.1094 8.20312
M48.6875 27.2969
Q48.6875 37.2031 44.6094 42.8438
Q40.5312 48.4844 33.4062 48.4844
Q26.2656 48.4844 22.1875 42.8438
Q18.1094 37.2031 18.1094 27.2969
Q18.1094 17.3906 22.1875 11.75
Q26.2656 6.10938 33.4062 6.10938
Q40.5312 6.10938 44.6094 11.75
Q48.6875 17.3906 48.6875 27.2969" id="BitstreamVeraSans-Roman-70"/>
    </defs>
    <g transform="translate(36.799524513 391.496777018)scale(0.096 -0.096)">
     <use xlink:href="#BitstreamVeraSans-Roman-54"/>
     <use x="44.083984375" xlink:href="#BitstreamVeraSans-Roman-65"/>
     <use x="105.607421875" xlink:href="#BitstreamVeraSans-Roman-70"/>
     <use x="169.083984375" xlink:href="#BitstreamVeraSans-Roman-65"/>
     <use x="230.607421875" xlink:href="#BitstreamVeraSans-Roman-68"/>
     <use x="293.986328125" xlink:href="#BitstreamVeraSans-Roman-75"/>
     <use x="357.365234375" xlink:href="#BitstreamVeraSans-Roman-61"/>
     <use x="418.64453125" xlink:href="#BitstreamVeraSans-Roman-6e"/>
     <use x="482.0234375" xlink:href="#BitstreamVeraSans-Roman-61"/>
     <use x="543.302734375" xlink:href="#BitstreamVeraSans-Roman-20"/>
     <use x="575.08984375" xlink:href="#BitstreamVeraSans-Roman-31"/>
    </g>
   </g>
   <g id="text_10">
    <!-- Tepehuana 2 -->
    <g transform="translate(124.164952831 391.473299674)scale(0.096 -0.096)">
     <use xlink:href="#BitstreamVeraSans-Roman-54"/>
     <use x="44.083984375" xlink:href="#BitstreamVeraSans-Roman-65"/>
     <use x="105.607421875" xlink:href="#BitstreamVeraSans-Roman-70"/>
     <use x="169.083984375" xlink:href="#BitstreamVeraSans-Roman-65"/>
     <use x="230.607421875" xlink:href="#BitstreamVeraSans-Roman-68"/>
     <use x="293.986328125" xlink:href="#BitstreamVeraSans-Roman-75"/>
     <use x="357.365234375" xlink:href="#BitstreamVeraSans-Roman-61"/>
     <use x="418.64453125" xlink:href="#BitstreamVeraSans-Roman-6e"/>
     <use x="482.0234375" xlink:href="#BitstreamVeraSans-Roman-61"/>
     <use x="543.302734375" xlink:href="#BitstreamVeraSans-Roman-20"/>
     <use x="575.08984375" xlink:href="#BitstreamVeraSans-Roman-32"/>
    </g>
   </g>
  </g>
  <g id="axes_3">
   <g id="patch_8">
    <path clip-path="url(#pd308361fb5)" d="
M110.208 529.535
C102.498 531.339 94.4786 531.377 86.7517 529.647
C79.0248 527.916 71.788 524.462 65.5837 519.541
C59.3795 514.621 54.3668 508.362 50.9215 501.233
C47.4761 494.103 45.6864 486.286 45.6864 478.368
C45.6864 470.45 47.4761 462.633 50.9215 455.503
C54.3668 448.374 59.3795 442.115 65.5837 437.195
C71.788 432.274 79.0248 428.82 86.7517 427.089
C94.4786 425.359 102.498 425.397 110.208 427.201
C98.7955 430.05 88.6578 436.636 81.4173 445.905
C74.1768 455.175 70.2417 466.606 70.2417 478.368
C70.2417 490.13 74.1768 501.561 81.4173 510.831
C88.6578 520.1 98.7955 526.686 110.208 529.535" style="fill:#ff0000;opacity:0.4;"/>
   </g>
   <g id="patch_9">
    <path clip-path="url(#pd308361fb5)" d="
M110.208 427.201
C117.981 425.261 126.096 425.118 133.933 426.782
C141.77 428.447 149.126 431.876 155.44 436.808
C161.754 441.74 166.862 448.046 170.375 455.247
C173.888 462.448 175.714 470.356 175.714 478.368
C175.714 486.38 173.888 494.288 170.375 501.489
C166.862 508.69 161.754 514.996 155.44 519.928
C149.126 524.86 141.77 528.289 133.933 529.954
C126.096 531.618 117.981 531.475 110.208 529.535
C121.749 526.834 132.044 520.306 139.408 511.019
C146.773 501.732 150.784 490.221 150.784 478.368
C150.784 466.515 146.773 455.004 139.408 445.717
C132.044 436.43 121.749 429.902 110.208 427.201" style="fill:#008000;opacity:0.4;"/>
   </g>
   <g id="patch_10">
    <path clip-path="url(#pd308361fb5)" d="
M110.208 529.535
C121.749 526.834 132.044 520.306 139.408 511.019
C146.773 501.732 150.784 490.221 150.784 478.368
C150.784 466.515 146.773 455.004 139.408 445.717
C132.044 436.43 121.749 429.902 110.208 427.201
C98.7955 430.05 88.6578 436.636 81.4173 445.905
C74.1768 455.175 70.2417 466.606 70.2417 478.368
C70.2417 490.13 74.1768 501.561 81.4173 510.831
C88.6578 520.1 98.7955 526.686 110.208 529.535" style="fill:#b25900;opacity:0.4;"/>
   </g>
   <g id="text_11">
    <!-- 986627 -->
    <g transform="translate(43.2877622373 480.5755)scale(0.08 -0.08)">
     <use xlink:href="#BitstreamVeraSans-Roman-39"/>
     <use x="63.623046875" xlink:href="#BitstreamVeraSans-Roman-38"/>
     <use x="127.24609375" xlink:href="#BitstreamVeraSans-Roman-36"/>
     <use x="190.869140625" xlink:href="#BitstreamVeraSans-Roman-36"/>
     <use x="254.4921875" xlink:href="#BitstreamVeraSans-Roman-32"/>
     <use x="318.115234375" xlink:href="#BitstreamVeraSans-Roman-37"/>
    </g>
   </g>
   <g id="text_12">
    <!-- 1010607 -->
    <g transform="translate(146.214863651 480.5755)scale(0.08 -0.08)">
     <use xlink:href="#BitstreamVeraSans-Roman-31"/>
     <use x="63.623046875" xlink:href="#BitstreamVeraSans-Roman-30"/>
     <use x="127.24609375" xlink:href="#BitstreamVeraSans-Roman-31"/>
     <use x="190.869140625" xlink:href="#BitstreamVeraSans-Roman-30"/>
     <use x="254.4921875" xlink:href="#BitstreamVeraSans-Roman-36"/>
     <use x="318.115234375" xlink:href="#BitstreamVeraSans-Roman-30"/>
     <use x="381.73828125" xlink:href="#BitstreamVeraSans-Roman-37"/>
    </g>
   </g>
   <g id="text_13">
    <!-- 2369955 -->
    <defs>
     <path d="
M40.5781 39.3125
Q47.6562 37.7969 51.625 33
Q55.6094 28.2188 55.6094 21.1875
Q55.6094 10.4062 48.1875 4.48438
Q40.7656 -1.42188 27.0938 -1.42188
Q22.5156 -1.42188 17.6562 -0.515625
Q12.7969 0.390625 7.625 2.20312
L7.625 11.7188
Q11.7188 9.32812 16.5938 8.10938
Q21.4844 6.89062 26.8125 6.89062
Q36.0781 6.89062 40.9375 10.5469
Q45.7969 14.2031 45.7969 21.1875
Q45.7969 27.6406 41.2812 31.2656
Q36.7656 34.9062 28.7188 34.9062
L20.2188 34.9062
L20.2188 43.0156
L29.1094 43.0156
Q36.375 43.0156 40.2344 45.9219
Q44.0938 48.8281 44.0938 54.2969
Q44.0938 59.9062 40.1094 62.9062
Q36.1406 65.9219 28.7188 65.9219
Q24.6562 65.9219 20.0156 65.0312
Q15.375 64.1562 9.8125 62.3125
L9.8125 71.0938
Q15.4375 72.6562 20.3438 73.4375
Q25.25 74.2188 29.5938 74.2188
Q40.8281 74.2188 47.3594 69.1094
Q53.9062 64.0156 53.9062 55.3281
Q53.9062 49.2656 50.4375 45.0938
Q46.9688 40.9219 40.5781 39.3125" id="BitstreamVeraSans-Roman-33"/>
    </defs>
    <g transform="translate(93.3401258888 480.5755)scale(0.08 -0.08)">
     <use xlink:href="#BitstreamVeraSans-Roman-32"/>
     <use x="63.623046875" xlink:href="#BitstreamVeraSans-Roman-33"/>
     <use x="127.24609375" xlink:href="#BitstreamVeraSans-Roman-36"/>
     <use x="190.869140625" xlink:href="#BitstreamVeraSans-Roman-39"/>
     <use x="254.4921875" xlink:href="#BitstreamVeraSans-Roman-39"/>
     <use x="318.115234375" xlink:href="#BitstreamVeraSans-Roman-35"/>
     <use x="381.73828125" xlink:href="#BitstreamVeraSans-Roman-35"/>
    </g>
   </g>
   <g id="text_14">
    <!-- Totonaca 1 -->
    <defs>
     <path d="
M18.3125 70.2188
L18.3125 54.6875
L36.8125 54.6875
L36.8125 47.7031
L18.3125 47.7031
L18.3125 18.0156
Q18.3125 11.3281 20.1406 9.42188
Q21.9688 7.51562 27.5938 7.51562
L36.8125 7.51562
L36.8125 0
L27.5938 0
Q17.1875 0 13.2344 3.875
Q9.28125 7.76562 9.28125 18.0156
L9.28125 47.7031
L2.6875 47.7031
L2.6875 54.6875
L9.28125 54.6875
L9.28125 70.2188
z
" id="BitstreamVeraSans-Roman-74"/>
     <path d="
M30.6094 48.3906
Q23.3906 48.3906 19.1875 42.75
Q14.9844 37.1094 14.9844 27.2969
Q14.9844 17.4844 19.1562 11.8438
Q23.3438 6.20312 30.6094 6.20312
Q37.7969 6.20312 41.9844 11.8594
Q46.1875 17.5312 46.1875 27.2969
Q46.1875 37.0156 41.9844 42.7031
Q37.7969 48.3906 30.6094 48.3906
M30.6094 56
Q42.3281 56 49.0156 48.375
Q55.7188 40.7656 55.7188 27.2969
Q55.7188 13.875 49.0156 6.21875
Q42.3281 -1.42188 30.6094 -1.42188
Q18.8438 -1.42188 12.1719 6.21875
Q5.51562 13.875 5.51562 27.2969
Q5.51562 40.7656 12.1719 48.375
Q18.8438 56 30.6094 56" id="BitstreamVeraSans-Roman-6f"/>
     <path d="
M48.7812 52.5938
L48.7812 44.1875
Q44.9688 46.2969 41.1406 47.3438
Q37.3125 48.3906 33.4062 48.3906
Q24.6562 48.3906 19.8125 42.8438
Q14.9844 37.3125 14.9844 27.2969
Q14.9844 17.2812 19.8125 11.7344
Q24.6562 6.20312 33.4062 6.20312
Q37.3125 6.20312 41.1406 7.25
Q44.9688 8.29688 48.7812 10.4062
L48.7812 2.09375
Q45.0156 0.34375 40.9844 -0.53125
Q36.9688 -1.42188 32.4219 -1.42188
Q20.0625 -1.42188 12.7812 6.34375
Q5.51562 14.1094 5.51562 27.2969
Q5.51562 40.6719 12.8594 48.3281
Q20.2188 56 33.0156 56
Q37.1562 56 41.1094 55.1406
Q45.0625 54.2969 48.7812 52.5938" id="BitstreamVeraSans-Roman-63"/>
    </defs>
    <g transform="translate(47.0624796069 543.475343722)scale(0.096 -0.096)">
     <use xlink:href="#BitstreamVeraSans-Roman-54"/>
     <use x="44.083984375" xlink:href="#BitstreamVeraSans-Roman-6f"/>
     <use x="105.265625" xlink:href="#BitstreamVeraSans-Roman-74"/>
     <use x="144.474609375" xlink:href="#BitstreamVeraSans-Roman-6f"/>
     <use x="205.65625" xlink:href="#BitstreamVeraSans-Roman-6e"/>
     <use x="269.03515625" xlink:href="#BitstreamVeraSans-Roman-61"/>
     <use x="330.314453125" xlink:href="#BitstreamVeraSans-Roman-63"/>
     <use x="385.294921875" xlink:href="#BitstreamVeraSans-Roman-61"/>
     <use x="446.57421875" xlink:href="#BitstreamVeraSans-Roman-20"/>
     <use x="478.361328125" xlink:href="#BitstreamVeraSans-Roman-31"/>
    </g>
   </g>
   <g id="text_15">
    <!-- Totonaca 2 -->
    <g transform="translate(122.977646282 543.662717833)scale(0.096 -0.096)">
     <use xlink:href="#BitstreamVeraSans-Roman-54"/>
     <use x="44.083984375" xlink:href="#BitstreamVeraSans-Roman-6f"/>
     <use x="105.265625" xlink:href="#BitstreamVeraSans-Roman-74"/>
     <use x="144.474609375" xlink:href="#BitstreamVeraSans-Roman-6f"/>
     <use x="205.65625" xlink:href="#BitstreamVeraSans-Roman-6e"/>
     <use x="269.03515625" xlink:href="#BitstreamVeraSans-Roman-61"/>
     <use x="330.314453125" xlink:href="#BitstreamVeraSans-Roman-63"/>
     <use x="385.294921875" xlink:href="#BitstreamVeraSans-Roman-61"/>
     <use x="446.57421875" xlink:href="#BitstreamVeraSans-Roman-20"/>
     <use x="478.361328125" xlink:href="#BitstreamVeraSans-Roman-32"/>
    </g>
   </g>
  </g>
  <g id="axes_4">
   <g id="patch_11">
    <path clip-path="url(#p01e9cf4ca8)" d="
M110.305 681.226
C102.547 683.242 94.4293 683.453 86.5766 681.845
C78.7239 680.236 71.3432 676.849 65.0025 671.946
C58.6618 667.042 53.5281 660.75 49.9965 653.554
C46.4649 646.358 44.6284 638.448 44.6284 630.432
C44.6284 622.416 46.4649 614.506 49.9965 607.31
C53.5281 600.114 58.6618 593.822 65.0025 588.918
C71.3432 584.015 78.7239 580.628 86.5766 579.019
C94.4293 577.411 102.547 577.622 110.305 579.638
C99.16 582.671 89.317 589.29 82.3034 598.468
C75.2899 607.646 71.4882 618.881 71.4882 630.432
C71.4882 641.983 75.2899 653.218 82.3034 662.396
C89.317 671.574 99.16 678.193 110.305 681.226" style="fill:#ff0000;opacity:0.4;"/>
   </g>
   <g id="patch_12">
    <path clip-path="url(#p01e9cf4ca8)" d="
M110.305 579.638
C118.113 577.513 126.307 577.217 134.247 578.772
C142.188 580.327 149.665 583.692 156.094 588.606
C162.523 593.519 167.734 599.849 171.32 607.103
C174.906 614.356 176.772 622.34 176.772 630.432
C176.772 638.524 174.906 646.508 171.32 653.761
C167.734 661.015 162.523 667.345 156.094 672.258
C149.665 677.172 142.188 680.537 134.247 682.092
C126.307 683.647 118.113 683.351 110.305 681.226
C121.551 678.304 131.514 671.729 138.622 662.538
C145.73 653.347 149.589 642.051 149.589 630.432
C149.589 618.813 145.73 607.517 138.622 598.326
C131.514 589.135 121.551 582.56 110.305 579.638" style="fill:#008000;opacity:0.4;"/>
   </g>
   <g id="patch_13">
    <path clip-path="url(#p01e9cf4ca8)" d="
M110.305 681.226
C121.551 678.304 131.514 671.729 138.622 662.538
C145.73 653.347 149.589 642.051 149.589 630.432
C149.589 618.813 145.73 607.517 138.622 598.326
C131.514 589.135 121.551 582.56 110.305 579.638
C99.16 582.671 89.317 589.29 82.3034 598.468
C75.2899 607.646 71.4882 618.881 71.4882 630.432
C71.4882 641.983 75.2899 653.218 82.3034 662.396
C89.317 671.574 99.16 678.193 110.305 681.226" style="fill:#b25900;opacity:0.4;"/>
   </g>
   <g id="text_16">
    <!-- 1078898 -->
    <g transform="translate(40.9564028174 632.6395)scale(0.08 -0.08)">
     <use xlink:href="#BitstreamVeraSans-Roman-31"/>
     <use x="63.623046875" xlink:href="#BitstreamVeraSans-Roman-30"/>
     <use x="127.24609375" xlink:href="#BitstreamVeraSans-Roman-37"/>
     <use x="190.869140625" xlink:href="#BitstreamVeraSans-Roman-38"/>
     <use x="254.4921875" xlink:href="#BitstreamVeraSans-Roman-38"/>
     <use x="318.115234375" xlink:href="#BitstreamVeraSans-Roman-39"/>
     <use x="381.73828125" xlink:href="#BitstreamVeraSans-Roman-38"/>
    </g>
   </g>
   <g id="text_17">
    <!-- 1099569 -->
    <g transform="translate(146.085931897 632.6395)scale(0.08 -0.08)">
     <use xlink:href="#BitstreamVeraSans-Roman-31"/>
     <use x="63.623046875" xlink:href="#BitstreamVeraSans-Roman-30"/>
     <use x="127.24609375" xlink:href="#BitstreamVeraSans-Roman-39"/>
     <use x="190.869140625" xlink:href="#BitstreamVeraSans-Roman-39"/>
     <use x="254.4921875" xlink:href="#BitstreamVeraSans-Roman-35"/>
     <use x="318.115234375" xlink:href="#BitstreamVeraSans-Roman-36"/>
     <use x="381.73828125" xlink:href="#BitstreamVeraSans-Roman-39"/>
    </g>
   </g>
   <g id="text_18">
    <!-- 2276282 -->
    <g transform="translate(93.4173347141 632.6395)scale(0.08 -0.08)">
     <use xlink:href="#BitstreamVeraSans-Roman-32"/>
     <use x="63.623046875" xlink:href="#BitstreamVeraSans-Roman-32"/>
     <use x="127.24609375" xlink:href="#BitstreamVeraSans-Roman-37"/>
     <use x="190.869140625" xlink:href="#BitstreamVeraSans-Roman-36"/>
     <use x="254.4921875" xlink:href="#BitstreamVeraSans-Roman-32"/>
     <use x="318.115234375" xlink:href="#BitstreamVeraSans-Roman-38"/>
     <use x="381.73828125" xlink:href="#BitstreamVeraSans-Roman-32"/>
    </g>
   </g>
   <g id="text_19">
    <!-- Nahua 1 -->
    <defs>
     <path d="
M9.8125 72.9062
L23.0938 72.9062
L55.4219 11.9219
L55.4219 72.9062
L64.9844 72.9062
L64.9844 0
L51.7031 0
L19.3906 60.9844
L19.3906 0
L9.8125 0
z
" id="BitstreamVeraSans-Roman-4e"/>
    </defs>
    <g transform="translate(57.7202104571 695.462908351)scale(0.096 -0.096)">
     <use xlink:href="#BitstreamVeraSans-Roman-4e"/>
     <use x="74.8046875" xlink:href="#BitstreamVeraSans-Roman-61"/>
     <use x="136.083984375" xlink:href="#BitstreamVeraSans-Roman-68"/>
     <use x="199.462890625" xlink:href="#BitstreamVeraSans-Roman-75"/>
     <use x="262.841796875" xlink:href="#BitstreamVeraSans-Roman-61"/>
     <use x="324.12109375" xlink:href="#BitstreamVeraSans-Roman-20"/>
     <use x="355.908203125" xlink:href="#BitstreamVeraSans-Roman-31"/>
    </g>
   </g>
   <g id="text_20">
    <!-- Nahua 2 -->
    <g transform="translate(124.129874257 695.624323637)scale(0.096 -0.096)">
     <use xlink:href="#BitstreamVeraSans-Roman-4e"/>
     <use x="74.8046875" xlink:href="#BitstreamVeraSans-Roman-61"/>
     <use x="136.083984375" xlink:href="#BitstreamVeraSans-Roman-68"/>
     <use x="199.462890625" xlink:href="#BitstreamVeraSans-Roman-75"/>
     <use x="262.841796875" xlink:href="#BitstreamVeraSans-Roman-61"/>
     <use x="324.12109375" xlink:href="#BitstreamVeraSans-Roman-20"/>
     <use x="355.908203125" xlink:href="#BitstreamVeraSans-Roman-32"/>
    </g>
   </g>
  </g>
  <g id="axes_5">
   <g id="patch_14">
    <path clip-path="url(#p0edf2ce227)" d="
M110.965 833.354
C103.166 835.441 94.9906 835.706 87.0728 834.128
C79.155 832.551 71.7052 829.173 65.3011 824.258
C58.897 819.342 53.7087 813.018 50.1387 805.777
C46.5686 798.536 44.7115 790.569 44.7115 782.496
C44.7115 774.423 46.5686 766.456 50.1387 759.215
C53.7087 751.974 58.897 745.65 65.3011 740.734
C71.7052 735.819 79.155 732.441 87.0728 730.864
C94.9906 729.286 103.166 729.551 110.965 731.638
C99.7006 734.558 89.7193 741.139 82.5977 750.343
C75.4761 759.546 71.6099 770.859 71.6099 782.496
C71.6099 794.133 75.4761 805.446 82.5977 814.649
C89.7193 823.853 99.7006 830.434 110.965 833.354" style="fill:#ff0000;opacity:0.4;"/>
   </g>
   <g id="patch_15">
    <path clip-path="url(#p0edf2ce227)" d="
M110.965 731.638
C118.731 729.625 126.855 729.417 134.714 731.03
C142.572 732.643 149.958 736.035 156.303 740.944
C162.647 745.854 167.784 752.152 171.317 759.355
C174.851 766.557 176.688 774.474 176.688 782.496
C176.688 790.518 174.851 798.435 171.317 805.637
C167.784 812.84 162.647 819.138 156.303 824.048
C149.958 828.957 142.572 832.349 134.714 833.962
C126.855 835.575 118.731 835.367 110.965 833.354
C122.162 830.359 132.062 823.748 139.12 814.553
C146.178 805.359 150.005 794.087 150.005 782.496
C150.005 770.905 146.178 759.633 139.12 750.439
C132.062 741.244 122.162 734.633 110.965 731.638" style="fill:#008000;opacity:0.4;"/>
   </g>
   <g id="patch_16">
    <path clip-path="url(#p0edf2ce227)" d="
M110.965 833.354
C122.162 830.359 132.062 823.748 139.12 814.553
C146.178 805.359 150.005 794.087 150.005 782.496
C150.005 770.905 146.178 759.633 139.12 750.439
C132.062 741.244 122.162 734.633 110.965 731.638
C99.7006 734.558 89.7193 741.139 82.5977 750.343
C75.4761 759.546 71.6099 770.859 71.6099 782.496
C71.6099 794.133 75.4761 805.446 82.5977 814.649
C89.7193 823.853 99.7006 830.434 110.965 833.354" style="fill:#b25900;opacity:0.4;"/>
   </g>
   <g id="text_21">
    <!-- 1087562 -->
    <g transform="translate(41.1857288238 784.7035)scale(0.08 -0.08)">
     <use xlink:href="#BitstreamVeraSans-Roman-31"/>
     <use x="63.623046875" xlink:href="#BitstreamVeraSans-Roman-30"/>
     <use x="127.24609375" xlink:href="#BitstreamVeraSans-Roman-38"/>
     <use x="190.869140625" xlink:href="#BitstreamVeraSans-Roman-37"/>
     <use x="254.4921875" xlink:href="#BitstreamVeraSans-Roman-35"/>
     <use x="318.115234375" xlink:href="#BitstreamVeraSans-Roman-36"/>
     <use x="381.73828125" xlink:href="#BitstreamVeraSans-Roman-32"/>
    </g>
   </g>
   <g id="text_22">
    <!-- 1073771 -->
    <g transform="translate(146.340661314 784.7035)scale(0.08 -0.08)">
     <use xlink:href="#BitstreamVeraSans-Roman-31"/>
     <use x="63.623046875" xlink:href="#BitstreamVeraSans-Roman-30"/>
     <use x="127.24609375" xlink:href="#BitstreamVeraSans-Roman-37"/>
     <use x="190.869140625" xlink:href="#BitstreamVeraSans-Roman-33"/>
     <use x="254.4921875" xlink:href="#BitstreamVeraSans-Roman-37"/>
     <use x="318.115234375" xlink:href="#BitstreamVeraSans-Roman-37"/>
     <use x="381.73828125" xlink:href="#BitstreamVeraSans-Roman-31"/>
    </g>
   </g>
   <g id="text_23">
    <!-- 2288486 -->
    <g transform="translate(93.5376401381 784.7035)scale(0.08 -0.08)">
     <use xlink:href="#BitstreamVeraSans-Roman-32"/>
     <use x="63.623046875" xlink:href="#BitstreamVeraSans-Roman-32"/>
     <use x="127.24609375" xlink:href="#BitstreamVeraSans-Roman-38"/>
     <use x="190.869140625" xlink:href="#BitstreamVeraSans-Roman-38"/>
     <use x="254.4921875" xlink:href="#BitstreamVeraSans-Roman-34"/>
     <use x="318.115234375" xlink:href="#BitstreamVeraSans-Roman-38"/>
     <use x="381.73828125" xlink:href="#BitstreamVeraSans-Roman-36"/>
    </g>
   </g>
   <g id="text_24">
    <!-- Zapoteca 1 -->
    <defs>
     <path d="
M5.60938 72.9062
L62.8906 72.9062
L62.8906 65.375
L16.7969 8.29688
L64.0156 8.29688
L64.0156 0
L4.5 0
L4.5 7.51562
L50.5938 64.5938
L5.60938 64.5938
z
" id="BitstreamVeraSans-Roman-5a"/>
    </defs>
    <g transform="translate(43.8264475007 847.696720439)scale(0.096 -0.096)">
     <use xlink:href="#BitstreamVeraSans-Roman-5a"/>
     <use x="68.505859375" xlink:href="#BitstreamVeraSans-Roman-61"/>
     <use x="129.78515625" xlink:href="#BitstreamVeraSans-Roman-70"/>
     <use x="193.26171875" xlink:href="#BitstreamVeraSans-Roman-6f"/>
     <use x="254.443359375" xlink:href="#BitstreamVeraSans-Roman-74"/>
     <use x="293.65234375" xlink:href="#BitstreamVeraSans-Roman-65"/>
     <use x="355.17578125" xlink:href="#BitstreamVeraSans-Roman-63"/>
     <use x="410.15625" xlink:href="#BitstreamVeraSans-Roman-61"/>
     <use x="471.435546875" xlink:href="#BitstreamVeraSans-Roman-20"/>
     <use x="503.22265625" xlink:href="#BitstreamVeraSans-Roman-31"/>
    </g>
   </g>
   <g id="text_25">
    <!-- Zapoteca 2 -->
    <g transform="translate(124.149192637 847.589080301)scale(0.096 -0.096)">
     <use xlink:href="#BitstreamVeraSans-Roman-5a"/>
     <use x="68.505859375" xlink:href="#BitstreamVeraSans-Roman-61"/>
     <use x="129.78515625" xlink:href="#BitstreamVeraSans-Roman-70"/>
     <use x="193.26171875" xlink:href="#BitstreamVeraSans-Roman-6f"/>
     <use x="254.443359375" xlink:href="#BitstreamVeraSans-Roman-74"/>
     <use x="293.65234375" xlink:href="#BitstreamVeraSans-Roman-65"/>
     <use x="355.17578125" xlink:href="#BitstreamVeraSans-Roman-63"/>
     <use x="410.15625" xlink:href="#BitstreamVeraSans-Roman-61"/>
     <use x="471.435546875" xlink:href="#BitstreamVeraSans-Roman-20"/>
     <use x="503.22265625" xlink:href="#BitstreamVeraSans-Roman-32"/>
    </g>
   </g>
  </g>
  <g id="axes_6">
   <g id="patch_17">
    <path clip-path="url(#p73132b585f)" d="
M110.764 985.473
C102.974 987.522 94.8173 987.756 86.923 986.158
C79.0287 984.56 71.6055 981.171 65.2266 976.253
C58.8477 971.335 53.6817 965.018 50.1276 957.79
C46.5734 950.563 44.7249 942.614 44.7249 934.56
C44.7249 926.506 46.5734 918.557 50.1276 911.33
C53.6817 904.102 58.8477 897.785 65.2266 892.867
C71.6055 887.949 79.0287 884.56 86.923 882.962
C94.8173 881.364 102.974 881.598 110.764 883.647
C99.5021 886.588 89.5283 893.183 82.4133 902.394
C75.2984 911.605 71.4367 922.921 71.4367 934.56
C71.4367 946.199 75.2984 957.515 82.4133 966.726
C89.5283 975.937 99.5021 982.532 110.764 985.473" style="fill:#ff0000;opacity:0.4;"/>
   </g>
   <g id="patch_18">
    <path clip-path="url(#p73132b585f)" d="
M110.764 883.647
C118.545 881.616 126.69 881.395 134.57 883.002
C142.45 884.609 149.858 888.001 156.222 892.917
C162.587 897.834 167.74 904.144 171.286 911.363
C174.831 918.581 176.675 926.518 176.675 934.56
C176.675 942.602 174.831 950.539 171.286 957.757
C167.74 964.976 162.587 971.286 156.222 976.203
C149.858 981.119 142.45 984.511 134.57 986.118
C126.69 987.725 118.545 987.504 110.764 985.473
C122.009 982.514 131.963 975.912 139.063 966.703
C146.162 957.494 150.015 946.188 150.015 934.56
C150.015 922.932 146.162 911.626 139.063 902.417
C131.963 893.208 122.009 886.606 110.764 883.647" style="fill:#008000;opacity:0.4;"/>
   </g>
   <g id="patch_19">
    <path clip-path="url(#p73132b585f)" d="
M110.764 985.473
C122.009 982.514 131.963 975.912 139.063 966.703
C146.162 957.494 150.015 946.188 150.015 934.56
C150.015 922.932 146.162 911.626 139.063 902.417
C131.963 893.208 122.009 886.606 110.764 883.647
C99.5021 886.588 89.5283 893.183 82.4133 902.394
C75.2984 911.605 71.4367 922.921 71.4367 934.56
C71.4367 946.199 75.2984 957.515 82.4133 966.726
C89.5283 975.937 99.5021 982.532 110.764 985.473" style="fill:#b25900;opacity:0.4;"/>
   </g>
   <g id="text_26">
    <!-- 1085410 -->
    <g transform="translate(40.9708213141 936.7675)scale(0.08 -0.08)">
     <use xlink:href="#BitstreamVeraSans-Roman-31"/>
     <use x="63.623046875" xlink:href="#BitstreamVeraSans-Roman-30"/>
     <use x="127.24609375" xlink:href="#BitstreamVeraSans-Roman-38"/>
     <use x="190.869140625" xlink:href="#BitstreamVeraSans-Roman-35"/>
     <use x="254.4921875" xlink:href="#BitstreamVeraSans-Roman-34"/>
     <use x="318.115234375" xlink:href="#BitstreamVeraSans-Roman-31"/>
     <use x="381.73828125" xlink:href="#BitstreamVeraSans-Roman-30"/>
    </g>
   </g>
   <g id="text_27">
    <!-- 1082092 -->
    <g transform="translate(146.369903889 936.7675)scale(0.08 -0.08)">
     <use xlink:href="#BitstreamVeraSans-Roman-31"/>
     <use x="63.623046875" xlink:href="#BitstreamVeraSans-Roman-30"/>
     <use x="127.24609375" xlink:href="#BitstreamVeraSans-Roman-38"/>
     <use x="190.869140625" xlink:href="#BitstreamVeraSans-Roman-32"/>
     <use x="254.4921875" xlink:href="#BitstreamVeraSans-Roman-30"/>
     <use x="318.115234375" xlink:href="#BitstreamVeraSans-Roman-39"/>
     <use x="381.73828125" xlink:href="#BitstreamVeraSans-Roman-32"/>
    </g>
   </g>
   <g id="text_28">
    <!-- 2310452 -->
    <g transform="translate(93.6044752032 936.7675)scale(0.08 -0.08)">
     <use xlink:href="#BitstreamVeraSans-Roman-32"/>
     <use x="63.623046875" xlink:href="#BitstreamVeraSans-Roman-33"/>
     <use x="127.24609375" xlink:href="#BitstreamVeraSans-Roman-31"/>
     <use x="190.869140625" xlink:href="#BitstreamVeraSans-Roman-30"/>
     <use x="254.4921875" xlink:href="#BitstreamVeraSans-Roman-34"/>
     <use x="318.115234375" xlink:href="#BitstreamVeraSans-Roman-35"/>
     <use x="381.73828125" xlink:href="#BitstreamVeraSans-Roman-32"/>
    </g>
   </g>
   <g id="text_29">
    <!-- Maya 1 -->
    <defs>
     <path d="
M9.8125 72.9062
L24.5156 72.9062
L43.1094 23.2969
L61.8125 72.9062
L76.5156 72.9062
L76.5156 0
L66.8906 0
L66.8906 64.0156
L48.0938 14.0156
L38.1875 14.0156
L19.3906 64.0156
L19.3906 0
L9.8125 0
z
" id="BitstreamVeraSans-Roman-4d"/>
     <path d="
M32.1719 -5.07812
Q28.375 -14.8438 24.75 -17.8125
Q21.1406 -20.7969 15.0938 -20.7969
L7.90625 -20.7969
L7.90625 -13.2812
L13.1875 -13.2812
Q16.8906 -13.2812 18.9375 -11.5156
Q21 -9.76562 23.4844 -3.21875
L25.0938 0.875
L2.98438 54.6875
L12.5 54.6875
L29.5938 11.9219
L46.6875 54.6875
L56.2031 54.6875
z
" id="BitstreamVeraSans-Roman-79"/>
    </defs>
    <g transform="translate(63.3663115073 999.762608018)scale(0.096 -0.096)">
     <use xlink:href="#BitstreamVeraSans-Roman-4d"/>
     <use x="86.279296875" xlink:href="#BitstreamVeraSans-Roman-61"/>
     <use x="147.55859375" xlink:href="#BitstreamVeraSans-Roman-79"/>
     <use x="206.73828125" xlink:href="#BitstreamVeraSans-Roman-61"/>
     <use x="268.017578125" xlink:href="#BitstreamVeraSans-Roman-20"/>
     <use x="299.8046875" xlink:href="#BitstreamVeraSans-Roman-31"/>
    </g>
   </g>
   <g id="text_30">
    <!-- Maya 2 -->
    <g transform="translate(124.055913696 999.736882815)scale(0.096 -0.096)">
     <use xlink:href="#BitstreamVeraSans-Roman-4d"/>
     <use x="86.279296875" xlink:href="#BitstreamVeraSans-Roman-61"/>
     <use x="147.55859375" xlink:href="#BitstreamVeraSans-Roman-79"/>
     <use x="206.73828125" xlink:href="#BitstreamVeraSans-Roman-61"/>
     <use x="268.017578125" xlink:href="#BitstreamVeraSans-Roman-20"/>
     <use x="299.8046875" xlink:href="#BitstreamVeraSans-Roman-32"/>
    </g>
   </g>
  </g>
 </g>
 <defs>
  <clipPath id="p6b2cb5115f">
   <rect height="126.72" width="153.212749155" x="34.0936254223" y="110.88"/>
  </clipPath>
  <clipPath id="p73132b585f">
   <rect height="126.72" width="153.380376985" x="34.0098115073" y="871.2"/>
  </clipPath>
  <clipPath id="pd308361fb5">
   <rect height="126.72" width="151.275292564" x="35.0623537182" y="415.008"/>
  </clipPath>
  <clipPath id="p8ebd8fd0c5">
   <rect height="126.72" width="153.602950974" x="33.898524513" y="262.944"/>
  </clipPath>
  <clipPath id="p01e9cf4ca8">
   <rect height="126.72" width="153.579748514" x="33.910125743" y="567.072"/>
  </clipPath>
  <clipPath id="p0edf2ce227">
   <rect height="126.72" width="153.403104999" x="33.9984475007" y="719.136"/>
  </clipPath>
 </defs>
</svg>
