<?xml version="1.0" encoding="utf-8" standalone="no"?>
<!DOCTYPE svg PUBLIC "-//W3C//DTD SVG 1.1//EN"
  "http://www.w3.org/Graphics/SVG/1.1/DTD/svg11.dtd">
<!-- Created with matplotlib (http://matplotlib.org/) -->
<svg height="1108pt" version="1.1" viewBox="0 0 216 1108" width="216pt" xmlns="http://www.w3.org/2000/svg" xmlns:xlink="http://www.w3.org/1999/xlink">
 <defs>
  <style type="text/css">
*{stroke-linecap:butt;stroke-linejoin:round;}
  </style>
 </defs>
 <g id="figure_1">
  <g id="patch_1">
   <path d="
M0 1108.8
L216 1108.8
L216 0
L0 0
z
" style="fill:#ffffff;"/>
  </g>
  <g id="axes_1">
   <g id="patch_2">
    <path clip-path="url(#p808f69e23b)" d="
M111.795 218.466
C104.157 222.546 95.5894 224.578 86.932 224.363
C78.2746 224.148 69.8186 221.694 62.3914 217.241
C54.9641 212.788 48.8158 206.485 44.5478 198.95
C40.2799 191.414 38.0362 182.9 38.0362 174.24
C38.0362 165.58 40.2799 157.066 44.5478 149.53
C48.8158 141.995 54.9641 135.692 62.3914 131.239
C69.8186 126.786 78.2746 124.332 86.932 124.117
C95.5894 123.902 104.157 125.934 111.795 130.014
C103.584 134.121 96.676 140.435 91.8495 148.246
C87.023 156.056 84.4658 165.059 84.4658 174.24
C84.4658 183.421 87.023 192.424 91.8495 200.234
C96.676 208.045 103.584 214.359 111.795 218.466" style="fill:#ff0000;opacity:0.4;"/>
   </g>
   <g id="patch_3">
    <path clip-path="url(#p808f69e23b)" d="
M111.795 130.014
C119.334 126.244 127.713 124.463 136.133 124.841
C144.554 125.219 152.739 127.744 159.909 132.175
C167.08 136.606 172.999 142.797 177.104 150.159
C181.209 157.521 183.364 165.811 183.364 174.24
C183.364 182.669 181.209 190.959 177.104 198.321
C172.999 205.683 167.08 211.874 159.909 216.305
C152.739 220.736 144.554 223.261 136.133 223.639
C127.713 224.017 119.334 222.236 111.795 218.466
C119.806 214.188 126.506 207.812 131.176 200.023
C135.846 192.235 138.313 183.322 138.313 174.24
C138.313 165.158 135.846 156.245 131.176 148.457
C126.506 140.668 119.806 134.292 111.795 130.014" style="fill:#008000;opacity:0.4;"/>
   </g>
   <g id="patch_4">
    <path clip-path="url(#p808f69e23b)" d="
M111.795 218.466
C119.806 214.188 126.506 207.812 131.176 200.023
C135.846 192.235 138.313 183.322 138.313 174.24
C138.313 165.158 135.846 156.245 131.176 148.457
C126.506 140.668 119.806 134.292 111.795 130.014
C103.584 134.121 96.676 140.435 91.8495 148.246
C87.023 156.056 84.4658 165.059 84.4658 174.24
C84.4658 183.421 87.023 192.424 91.8495 200.234
C96.676 208.045 103.584 214.359 111.795 218.466" style="fill:#b25900;opacity:0.4;"/>
   </g>
   <g id="text_1">
    <!-- 365533 -->
    <defs>
     <path d="
M40.5781 39.3125
Q47.6562 37.7969 51.625 33
Q55.6094 28.2188 55.6094 21.1875
Q55.6094 10.4062 48.1875 4.48438
Q40.7656 -1.42188 27.0938 -1.42188
Q22.5156 -1.42188 17.6562 -0.515625
Q12.7969 0.390625 7.625 2.20312
L7.625 11.7188
Q11.7188 9.32812 16.5938 8.10938
Q21.4844 6.89062 26.8125 6.89062
Q36.0781 6.89062 40.9375 10.5469
Q45.7969 14.2031 45.7969 21.1875
Q45.7969 27.6406 41.2812 31.2656
Q36.7656 34.9062 28.7188 34.9062
L20.2188 34.9062
L20.2188 43.0156
L29.1094 43.0156
Q36.375 43.0156 40.2344 45.9219
Q44.0938 48.8281 44.0938 54.2969
Q44.0938 59.9062 40.1094 62.9062
Q36.1406 65.9219 28.7188 65.9219
Q24.6562 65.9219 20.0156 65.0312
Q15.375 64.1562 9.8125 62.3125
L9.8125 71.0938
Q15.4375 72.6562 20.3438 73.4375
Q25.25 74.2188 29.5938 74.2188
Q40.8281 74.2188 47.3594 69.1094
Q53.9062 64.0156 53.9062 55.3281
Q53.9062 49.2656 50.4375 45.0938
Q46.9688 40.9219 40.5781 39.3125" id="BitstreamVeraSans-Roman-33"/>
     <path d="
M33.0156 40.375
Q26.375 40.375 22.4844 35.8281
Q18.6094 31.2969 18.6094 23.3906
Q18.6094 15.5312 22.4844 10.9531
Q26.375 6.39062 33.0156 6.39062
Q39.6562 6.39062 43.5312 10.9531
Q47.4062 15.5312 47.4062 23.3906
Q47.4062 31.2969 43.5312 35.8281
Q39.6562 40.375 33.0156 40.375
M52.5938 71.2969
L52.5938 62.3125
Q48.875 64.0625 45.0938 64.9844
Q41.3125 65.9219 37.5938 65.9219
Q27.8281 65.9219 22.6719 59.3281
Q17.5312 52.7344 16.7969 39.4062
Q19.6719 43.6562 24.0156 45.9219
Q28.375 48.1875 33.5938 48.1875
Q44.5781 48.1875 50.9531 41.5156
Q57.3281 34.8594 57.3281 23.3906
Q57.3281 12.1562 50.6875 5.35938
Q44.0469 -1.42188 33.0156 -1.42188
Q20.3594 -1.42188 13.6719 8.26562
Q6.98438 17.9688 6.98438 36.375
Q6.98438 53.6562 15.1875 63.9375
Q23.3906 74.2188 37.2031 74.2188
Q40.9219 74.2188 44.7031 73.4844
Q48.4844 72.75 52.5938 71.2969" id="BitstreamVeraSans-Roman-36"/>
     <path d="
M10.7969 72.9062
L49.5156 72.9062
L49.5156 64.5938
L19.8281 64.5938
L19.8281 46.7344
Q21.9688 47.4688 24.1094 47.8281
Q26.2656 48.1875 28.4219 48.1875
Q40.625 48.1875 47.75 41.5
Q54.8906 34.8125 54.8906 23.3906
Q54.8906 11.625 47.5625 5.09375
Q40.2344 -1.42188 26.9062 -1.42188
Q22.3125 -1.42188 17.5469 -0.640625
Q12.7969 0.140625 7.71875 1.70312
L7.71875 11.625
Q12.1094 9.23438 16.7969 8.0625
Q21.4844 6.89062 26.7031 6.89062
Q35.1562 6.89062 40.0781 11.3281
Q45.0156 15.7656 45.0156 23.3906
Q45.0156 31 40.0781 35.4375
Q35.1562 39.8906 26.7031 39.8906
Q22.75 39.8906 18.8125 39.0156
Q14.8906 38.1406 10.7969 36.2812
z
" id="BitstreamVeraSans-Roman-35"/>
    </defs>
    <g transform="translate(46.6066406749 176.4475)scale(0.08 -0.08)">
     <use xlink:href="#BitstreamVeraSans-Roman-33"/>
     <use x="63.623046875" xlink:href="#BitstreamVeraSans-Roman-36"/>
     <use x="127.24609375" xlink:href="#BitstreamVeraSans-Roman-35"/>
     <use x="190.869140625" xlink:href="#BitstreamVeraSans-Roman-35"/>
     <use x="254.4921875" xlink:href="#BitstreamVeraSans-Roman-33"/>
     <use x="318.115234375" xlink:href="#BitstreamVeraSans-Roman-33"/>
    </g>
   </g>
   <g id="text_2">
    <!-- 348001 -->
    <defs>
     <path d="
M31.7812 34.625
Q24.75 34.625 20.7188 30.8594
Q16.7031 27.0938 16.7031 20.5156
Q16.7031 13.9219 20.7188 10.1562
Q24.75 6.39062 31.7812 6.39062
Q38.8125 6.39062 42.8594 10.1719
Q46.9219 13.9688 46.9219 20.5156
Q46.9219 27.0938 42.8906 30.8594
Q38.875 34.625 31.7812 34.625
M21.9219 38.8125
Q15.5781 40.375 12.0312 44.7188
Q8.5 49.0781 8.5 55.3281
Q8.5 64.0625 14.7188 69.1406
Q20.9531 74.2188 31.7812 74.2188
Q42.6719 74.2188 48.875 69.1406
Q55.0781 64.0625 55.0781 55.3281
Q55.0781 49.0781 51.5312 44.7188
Q48 40.375 41.7031 38.8125
Q48.8281 37.1562 52.7969 32.3125
Q56.7812 27.4844 56.7812 20.5156
Q56.7812 9.90625 50.3125 4.23438
Q43.8438 -1.42188 31.7812 -1.42188
Q19.7344 -1.42188 13.25 4.23438
Q6.78125 9.90625 6.78125 20.5156
Q6.78125 27.4844 10.7812 32.3125
Q14.7969 37.1562 21.9219 38.8125
M18.3125 54.3906
Q18.3125 48.7344 21.8438 45.5625
Q25.3906 42.3906 31.7812 42.3906
Q38.1406 42.3906 41.7188 45.5625
Q45.3125 48.7344 45.3125 54.3906
Q45.3125 60.0625 41.7188 63.2344
Q38.1406 66.4062 31.7812 66.4062
Q25.3906 66.4062 21.8438 63.2344
Q18.3125 60.0625 18.3125 54.3906" id="BitstreamVeraSans-Roman-38"/>
     <path d="
M12.4062 8.29688
L28.5156 8.29688
L28.5156 63.9219
L10.9844 60.4062
L10.9844 69.3906
L28.4219 72.9062
L38.2812 72.9062
L38.2812 8.29688
L54.3906 8.29688
L54.3906 0
L12.4062 0
z
" id="BitstreamVeraSans-Roman-31"/>
     <path d="
M31.7812 66.4062
Q24.1719 66.4062 20.3281 58.9062
Q16.5 51.4219 16.5 36.375
Q16.5 21.3906 20.3281 13.8906
Q24.1719 6.39062 31.7812 6.39062
Q39.4531 6.39062 43.2812 13.8906
Q47.125 21.3906 47.125 36.375
Q47.125 51.4219 43.2812 58.9062
Q39.4531 66.4062 31.7812 66.4062
M31.7812 74.2188
Q44.0469 74.2188 50.5156 64.5156
Q56.9844 54.8281 56.9844 36.375
Q56.9844 17.9688 50.5156 8.26562
Q44.0469 -1.42188 31.7812 -1.42188
Q19.5312 -1.42188 13.0625 8.26562
Q6.59375 17.9688 6.59375 36.375
Q6.59375 54.8281 13.0625 64.5156
Q19.5312 74.2188 31.7812 74.2188" id="BitstreamVeraSans-Roman-30"/>
     <path d="
M37.7969 64.3125
L12.8906 25.3906
L37.7969 25.3906
z

M35.2031 72.9062
L47.6094 72.9062
L47.6094 25.3906
L58.0156 25.3906
L58.0156 17.1875
L47.6094 17.1875
L47.6094 0
L37.7969 0
L37.7969 17.1875
L4.89062 17.1875
L4.89062 26.7031
z
" id="BitstreamVeraSans-Roman-34"/>
    </defs>
    <g transform="translate(146.242905397 176.4475)scale(0.08 -0.08)">
     <use xlink:href="#BitstreamVeraSans-Roman-33"/>
     <use x="63.623046875" xlink:href="#BitstreamVeraSans-Roman-34"/>
     <use x="127.24609375" xlink:href="#BitstreamVeraSans-Roman-38"/>
     <use x="190.869140625" xlink:href="#BitstreamVeraSans-Roman-30"/>
     <use x="254.4921875" xlink:href="#BitstreamVeraSans-Roman-30"/>
     <use x="318.115234375" xlink:href="#BitstreamVeraSans-Roman-31"/>
    </g>
   </g>
   <g id="text_3">
    <!-- 276277 -->
    <defs>
     <path d="
M19.1875 8.29688
L53.6094 8.29688
L53.6094 0
L7.32812 0
L7.32812 8.29688
Q12.9375 14.1094 22.625 23.8906
Q32.3281 33.6875 34.8125 36.5312
Q39.5469 41.8438 41.4219 45.5312
Q43.3125 49.2188 43.3125 52.7812
Q43.3125 58.5938 39.2344 62.25
Q35.1562 65.9219 28.6094 65.9219
Q23.9688 65.9219 18.8125 64.3125
Q13.6719 62.7031 7.8125 59.4219
L7.8125 69.3906
Q13.7656 71.7812 18.9375 73
Q24.125 74.2188 28.4219 74.2188
Q39.75 74.2188 46.4844 68.5469
Q53.2188 62.8906 53.2188 53.4219
Q53.2188 48.9219 51.5312 44.8906
Q49.8594 40.875 45.4062 35.4062
Q44.1875 33.9844 37.6406 27.2188
Q31.1094 20.4531 19.1875 8.29688" id="BitstreamVeraSans-Roman-32"/>
     <path d="
M8.20312 72.9062
L55.0781 72.9062
L55.0781 68.7031
L28.6094 0
L18.3125 0
L43.2188 64.5938
L8.20312 64.5938
z
" id="BitstreamVeraSans-Roman-37"/>
    </defs>
    <g transform="translate(96.7545460716 176.4475)scale(0.08 -0.08)">
     <use xlink:href="#BitstreamVeraSans-Roman-32"/>
     <use x="63.623046875" xlink:href="#BitstreamVeraSans-Roman-37"/>
     <use x="127.24609375" xlink:href="#BitstreamVeraSans-Roman-36"/>
     <use x="190.869140625" xlink:href="#BitstreamVeraSans-Roman-32"/>
     <use x="254.4921875" xlink:href="#BitstreamVeraSans-Roman-37"/>
     <use x="318.115234375" xlink:href="#BitstreamVeraSans-Roman-37"/>
    </g>
   </g>
   <g id="text_4">
    <!-- Tarahumara 1 -->
    <defs>
     <path id="BitstreamVeraSans-Roman-20"/>
     <path d="
M34.2812 27.4844
Q23.3906 27.4844 19.1875 25
Q14.9844 22.5156 14.9844 16.5
Q14.9844 11.7188 18.1406 8.90625
Q21.2969 6.10938 26.7031 6.10938
Q34.1875 6.10938 38.7031 11.4062
Q43.2188 16.7031 43.2188 25.4844
L43.2188 27.4844
z

M52.2031 31.2031
L52.2031 0
L43.2188 0
L43.2188 8.29688
Q40.1406 3.32812 35.5469 0.953125
Q30.9531 -1.42188 24.3125 -1.42188
Q15.9219 -1.42188 10.9531 3.29688
Q6 8.01562 6 15.9219
Q6 25.1406 12.1719 29.8281
Q18.3594 34.5156 30.6094 34.5156
L43.2188 34.5156
L43.2188 35.4062
Q43.2188 41.6094 39.1406 45
Q35.0625 48.3906 27.6875 48.3906
Q23 48.3906 18.5469 47.2656
Q14.1094 46.1406 10.0156 43.8906
L10.0156 52.2031
Q14.9375 54.1094 19.5781 55.0469
Q24.2188 56 28.6094 56
Q40.4844 56 46.3438 49.8438
Q52.2031 43.7031 52.2031 31.2031" id="BitstreamVeraSans-Roman-61"/>
     <path d="
M-0.296875 72.9062
L61.375 72.9062
L61.375 64.5938
L35.5 64.5938
L35.5 0
L25.5938 0
L25.5938 64.5938
L-0.296875 64.5938
z
" id="BitstreamVeraSans-Roman-54"/>
     <path d="
M54.8906 33.0156
L54.8906 0
L45.9062 0
L45.9062 32.7188
Q45.9062 40.4844 42.875 44.3281
Q39.8438 48.1875 33.7969 48.1875
Q26.5156 48.1875 22.3125 43.5469
Q18.1094 38.9219 18.1094 30.9062
L18.1094 0
L9.07812 0
L9.07812 75.9844
L18.1094 75.9844
L18.1094 46.1875
Q21.3438 51.125 25.7031 53.5625
Q30.0781 56 35.7969 56
Q45.2188 56 50.0469 50.1719
Q54.8906 44.3438 54.8906 33.0156" id="BitstreamVeraSans-Roman-68"/>
     <path d="
M52 44.1875
Q55.375 50.25 60.0625 53.125
Q64.75 56 71.0938 56
Q79.6406 56 84.2812 50.0156
Q88.9219 44.0469 88.9219 33.0156
L88.9219 0
L79.8906 0
L79.8906 32.7188
Q79.8906 40.5781 77.0938 44.375
Q74.3125 48.1875 68.6094 48.1875
Q61.625 48.1875 57.5625 43.5469
Q53.5156 38.9219 53.5156 30.9062
L53.5156 0
L44.4844 0
L44.4844 32.7188
Q44.4844 40.625 41.7031 44.4062
Q38.9219 48.1875 33.1094 48.1875
Q26.2188 48.1875 22.1562 43.5312
Q18.1094 38.875 18.1094 30.9062
L18.1094 0
L9.07812 0
L9.07812 54.6875
L18.1094 54.6875
L18.1094 46.1875
Q21.1875 51.2188 25.4844 53.6094
Q29.7812 56 35.6875 56
Q41.6562 56 45.8281 52.9688
Q50 49.9531 52 44.1875" id="BitstreamVeraSans-Roman-6d"/>
     <path d="
M8.5 21.5781
L8.5 54.6875
L17.4844 54.6875
L17.4844 21.9219
Q17.4844 14.1562 20.5 10.2656
Q23.5312 6.39062 29.5938 6.39062
Q36.8594 6.39062 41.0781 11.0312
Q45.3125 15.6719 45.3125 23.6875
L45.3125 54.6875
L54.2969 54.6875
L54.2969 0
L45.3125 0
L45.3125 8.40625
Q42.0469 3.42188 37.7188 1
Q33.4062 -1.42188 27.6875 -1.42188
Q18.2656 -1.42188 13.375 4.4375
Q8.5 10.2969 8.5 21.5781" id="BitstreamVeraSans-Roman-75"/>
     <path d="
M41.1094 46.2969
Q39.5938 47.1719 37.8125 47.5781
Q36.0312 48 33.8906 48
Q26.2656 48 22.1875 43.0469
Q18.1094 38.0938 18.1094 28.8125
L18.1094 0
L9.07812 0
L9.07812 54.6875
L18.1094 54.6875
L18.1094 46.1875
Q20.9531 51.1719 25.4844 53.5781
Q30.0312 56 36.5312 56
Q37.4531 56 38.5781 55.875
Q39.7031 55.7656 41.0625 55.5156
z
" id="BitstreamVeraSans-Roman-72"/>
    </defs>
    <g transform="translate(22.6502271584 236.652406133)scale(0.096 -0.096)">
     <use xlink:href="#BitstreamVeraSans-Roman-54"/>
     <use x="44.583984375" xlink:href="#BitstreamVeraSans-Roman-61"/>
     <use x="105.86328125" xlink:href="#BitstreamVeraSans-Roman-72"/>
     <use x="146.9765625" xlink:href="#BitstreamVeraSans-Roman-61"/>
     <use x="208.255859375" xlink:href="#BitstreamVeraSans-Roman-68"/>
     <use x="271.634765625" xlink:href="#BitstreamVeraSans-Roman-75"/>
     <use x="335.013671875" xlink:href="#BitstreamVeraSans-Roman-6d"/>
     <use x="432.42578125" xlink:href="#BitstreamVeraSans-Roman-61"/>
     <use x="493.705078125" xlink:href="#BitstreamVeraSans-Roman-72"/>
     <use x="534.818359375" xlink:href="#BitstreamVeraSans-Roman-61"/>
     <use x="596.09765625" xlink:href="#BitstreamVeraSans-Roman-20"/>
     <use x="627.884765625" xlink:href="#BitstreamVeraSans-Roman-31"/>
    </g>
   </g>
   <g id="text_5">
    <!-- Tarahumara 2 -->
    <g transform="translate(133.914818913 235.962860061)scale(0.096 -0.096)">
     <use xlink:href="#BitstreamVeraSans-Roman-54"/>
     <use x="44.583984375" xlink:href="#BitstreamVeraSans-Roman-61"/>
     <use x="105.86328125" xlink:href="#BitstreamVeraSans-Roman-72"/>
     <use x="146.9765625" xlink:href="#BitstreamVeraSans-Roman-61"/>
     <use x="208.255859375" xlink:href="#BitstreamVeraSans-Roman-68"/>
     <use x="271.634765625" xlink:href="#BitstreamVeraSans-Roman-75"/>
     <use x="335.013671875" xlink:href="#BitstreamVeraSans-Roman-6d"/>
     <use x="432.42578125" xlink:href="#BitstreamVeraSans-Roman-61"/>
     <use x="493.705078125" xlink:href="#BitstreamVeraSans-Roman-72"/>
     <use x="534.818359375" xlink:href="#BitstreamVeraSans-Roman-61"/>
     <use x="596.09765625" xlink:href="#BitstreamVeraSans-Roman-20"/>
     <use x="627.884765625" xlink:href="#BitstreamVeraSans-Roman-32"/>
    </g>
   </g>
  </g>
  <g id="axes_2">
   <g id="patch_5">
    <path clip-path="url(#pd29b775efb)" d="
M110.398 371.313
C102.75 375.077 94.2678 376.83 85.7546 376.407
C77.2414 375.984 68.9749 373.398 61.7383 368.894
C54.5017 364.39 48.531 358.115 44.3919 350.664
C40.2529 343.212 38.0805 334.828 38.0805 326.304
C38.0805 317.78 40.2529 309.396 44.3919 301.944
C48.531 294.493 54.5017 288.218 61.7383 283.714
C68.9749 279.21 77.2414 276.624 85.7546 276.201
C94.2678 275.778 102.75 277.531 110.398 281.295
C102.049 285.482 95.0271 291.91 90.1215 299.858
C85.2159 307.806 82.6172 316.964 82.6172 326.304
C82.6172 335.644 85.2159 344.802 90.1215 352.75
C95.0271 360.698 102.049 367.126 110.398 371.313" style="fill:#ff0000;opacity:0.4;"/>
   </g>
   <g id="patch_6">
    <path clip-path="url(#pd29b775efb)" d="
M110.398 281.295
C118.074 277.446 126.608 275.623 135.187 276.002
C143.766 276.38 152.107 278.947 159.414 283.457
C166.722 287.967 172.755 294.273 176.939 301.772
C181.123 309.271 183.32 317.717 183.32 326.304
C183.32 334.891 181.123 343.337 176.939 350.836
C172.755 358.335 166.722 364.641 159.414 369.151
C152.107 373.661 143.766 376.228 135.187 376.606
C126.608 376.985 118.074 375.162 110.398 371.313
C118.804 367.176 125.885 360.765 130.835 352.811
C135.786 344.857 138.41 335.673 138.41 326.304
C138.41 316.935 135.786 307.751 130.835 299.797
C125.885 291.843 118.804 285.432 110.398 281.295" style="fill:#008000;opacity:0.4;"/>
   </g>
   <g id="patch_7">
    <path clip-path="url(#pd29b775efb)" d="
M110.398 371.313
C118.804 367.176 125.885 360.765 130.835 352.811
C135.786 344.857 138.41 335.673 138.41 326.304
C138.41 316.935 135.786 307.751 130.835 299.797
C125.885 291.843 118.804 285.432 110.398 281.295
C102.049 285.482 95.0271 291.91 90.1215 299.858
C85.2159 307.806 82.6172 316.964 82.6172 326.304
C82.6172 335.644 85.2159 344.802 90.1215 352.75
C95.0271 360.698 102.049 367.126 110.398 371.313" style="fill:#b25900;opacity:0.4;"/>
   </g>
   <g id="text_6">
    <!-- 334354 -->
    <g transform="translate(45.6081974378 328.5115)scale(0.08 -0.08)">
     <use xlink:href="#BitstreamVeraSans-Roman-33"/>
     <use x="63.623046875" xlink:href="#BitstreamVeraSans-Roman-33"/>
     <use x="127.24609375" xlink:href="#BitstreamVeraSans-Roman-34"/>
     <use x="190.869140625" xlink:href="#BitstreamVeraSans-Roman-33"/>
     <use x="254.4921875" xlink:href="#BitstreamVeraSans-Roman-35"/>
     <use x="318.115234375" xlink:href="#BitstreamVeraSans-Roman-34"/>
    </g>
   </g>
   <g id="text_7">
    <!-- 338912 -->
    <defs>
     <path d="
M10.9844 1.51562
L10.9844 10.5
Q14.7031 8.73438 18.5 7.8125
Q22.3125 6.89062 25.9844 6.89062
Q35.75 6.89062 40.8906 13.4531
Q46.0469 20.0156 46.7812 33.4062
Q43.9531 29.2031 39.5938 26.9531
Q35.25 24.7031 29.9844 24.7031
Q19.0469 24.7031 12.6719 31.3125
Q6.29688 37.9375 6.29688 49.4219
Q6.29688 60.6406 12.9375 67.4219
Q19.5781 74.2188 30.6094 74.2188
Q43.2656 74.2188 49.9219 64.5156
Q56.5938 54.8281 56.5938 36.375
Q56.5938 19.1406 48.4062 8.85938
Q40.2344 -1.42188 26.4219 -1.42188
Q22.7031 -1.42188 18.8906 -0.6875
Q15.0938 0.046875 10.9844 1.51562
M30.6094 32.4219
Q37.25 32.4219 41.125 36.9531
Q45.0156 41.5 45.0156 49.4219
Q45.0156 57.2812 41.125 61.8438
Q37.25 66.4062 30.6094 66.4062
Q23.9688 66.4062 20.0938 61.8438
Q16.2188 57.2812 16.2188 49.4219
Q16.2188 41.5 20.0938 36.9531
Q23.9688 32.4219 30.6094 32.4219" id="BitstreamVeraSans-Roman-39"/>
    </defs>
    <g transform="translate(146.300612463 328.5115)scale(0.08 -0.08)">
     <use xlink:href="#BitstreamVeraSans-Roman-33"/>
     <use x="63.623046875" xlink:href="#BitstreamVeraSans-Roman-33"/>
     <use x="127.24609375" xlink:href="#BitstreamVeraSans-Roman-38"/>
     <use x="190.869140625" xlink:href="#BitstreamVeraSans-Roman-39"/>
     <use x="254.4921875" xlink:href="#BitstreamVeraSans-Roman-31"/>
     <use x="318.115234375" xlink:href="#BitstreamVeraSans-Roman-32"/>
    </g>
   </g>
   <g id="text_8">
    <!-- 278537 -->
    <g transform="translate(95.8788099013 328.5115)scale(0.08 -0.08)">
     <use xlink:href="#BitstreamVeraSans-Roman-32"/>
     <use x="63.623046875" xlink:href="#BitstreamVeraSans-Roman-37"/>
     <use x="127.24609375" xlink:href="#BitstreamVeraSans-Roman-38"/>
     <use x="190.869140625" xlink:href="#BitstreamVeraSans-Roman-35"/>
     <use x="254.4921875" xlink:href="#BitstreamVeraSans-Roman-33"/>
     <use x="318.115234375" xlink:href="#BitstreamVeraSans-Roman-37"/>
    </g>
   </g>
   <g id="text_9">
    <!-- Tepehuana 1 -->
    <defs>
     <path d="
M56.2031 29.5938
L56.2031 25.2031
L14.8906 25.2031
Q15.4844 15.9219 20.4844 11.0625
Q25.4844 6.20312 34.4219 6.20312
Q39.5938 6.20312 44.4531 7.46875
Q49.3125 8.73438 54.1094 11.2812
L54.1094 2.78125
Q49.2656 0.734375 44.1875 -0.34375
Q39.1094 -1.42188 33.8906 -1.42188
Q20.7969 -1.42188 13.1562 6.1875
Q5.51562 13.8125 5.51562 26.8125
Q5.51562 40.2344 12.7656 48.1094
Q20.0156 56 32.3281 56
Q43.3594 56 49.7812 48.8906
Q56.2031 41.7969 56.2031 29.5938
M47.2188 32.2344
Q47.125 39.5938 43.0938 43.9844
Q39.0625 48.3906 32.4219 48.3906
Q24.9062 48.3906 20.3906 44.1406
Q15.875 39.8906 15.1875 32.1719
z
" id="BitstreamVeraSans-Roman-65"/>
     <path d="
M54.8906 33.0156
L54.8906 0
L45.9062 0
L45.9062 32.7188
Q45.9062 40.4844 42.875 44.3281
Q39.8438 48.1875 33.7969 48.1875
Q26.5156 48.1875 22.3125 43.5469
Q18.1094 38.9219 18.1094 30.9062
L18.1094 0
L9.07812 0
L9.07812 54.6875
L18.1094 54.6875
L18.1094 46.1875
Q21.3438 51.125 25.7031 53.5625
Q30.0781 56 35.7969 56
Q45.2188 56 50.0469 50.1719
Q54.8906 44.3438 54.8906 33.0156" id="BitstreamVeraSans-Roman-6e"/>
     <path d="
M18.1094 8.20312
L18.1094 -20.7969
L9.07812 -20.7969
L9.07812 54.6875
L18.1094 54.6875
L18.1094 46.3906
Q20.9531 51.2656 25.2656 53.625
Q29.5938 56 35.5938 56
Q45.5625 56 51.7812 48.0938
Q58.0156 40.1875 58.0156 27.2969
Q58.0156 14.4062 51.7812 6.48438
Q45.5625 -1.42188 35.5938 -1.42188
Q29.5938 -1.42188 25.2656 0.953125
Q20.9531 3.32812 18.1094 8.20312
M48.6875 27.2969
Q48.6875 37.2031 44.6094 42.8438
Q40.5312 48.4844 33.4062 48.4844
Q26.2656 48.4844 22.1875 42.8438
Q18.1094 37.2031 18.1094 27.2969
Q18.1094 17.3906 22.1875 11.75
Q26.2656 6.10938 33.4062 6.10938
Q40.5312 6.10938 44.6094 11.75
Q48.6875 17.3906 48.6875 27.2969" id="BitstreamVeraSans-Roman-70"/>
    </defs>
    <g transform="translate(27.7864415127 388.789295715)scale(0.096 -0.096)">
     <use xlink:href="#BitstreamVeraSans-Roman-54"/>
     <use x="44.083984375" xlink:href="#BitstreamVeraSans-Roman-65"/>
     <use x="105.607421875" xlink:href="#BitstreamVeraSans-Roman-70"/>
     <use x="169.083984375" xlink:href="#BitstreamVeraSans-Roman-65"/>
     <use x="230.607421875" xlink:href="#BitstreamVeraSans-Roman-68"/>
     <use x="293.986328125" xlink:href="#BitstreamVeraSans-Roman-75"/>
     <use x="357.365234375" xlink:href="#BitstreamVeraSans-Roman-61"/>
     <use x="418.64453125" xlink:href="#BitstreamVeraSans-Roman-6e"/>
     <use x="482.0234375" xlink:href="#BitstreamVeraSans-Roman-61"/>
     <use x="543.302734375" xlink:href="#BitstreamVeraSans-Roman-20"/>
     <use x="575.08984375" xlink:href="#BitstreamVeraSans-Roman-31"/>
    </g>
   </g>
   <g id="text_10">
    <!-- Tepehuana 2 -->
    <g transform="translate(132.968368389 388.975485813)scale(0.096 -0.096)">
     <use xlink:href="#BitstreamVeraSans-Roman-54"/>
     <use x="44.083984375" xlink:href="#BitstreamVeraSans-Roman-65"/>
     <use x="105.607421875" xlink:href="#BitstreamVeraSans-Roman-70"/>
     <use x="169.083984375" xlink:href="#BitstreamVeraSans-Roman-65"/>
     <use x="230.607421875" xlink:href="#BitstreamVeraSans-Roman-68"/>
     <use x="293.986328125" xlink:href="#BitstreamVeraSans-Roman-75"/>
     <use x="357.365234375" xlink:href="#BitstreamVeraSans-Roman-61"/>
     <use x="418.64453125" xlink:href="#BitstreamVeraSans-Roman-6e"/>
     <use x="482.0234375" xlink:href="#BitstreamVeraSans-Roman-61"/>
     <use x="543.302734375" xlink:href="#BitstreamVeraSans-Roman-20"/>
     <use x="575.08984375" xlink:href="#BitstreamVeraSans-Roman-32"/>
    </g>
   </g>
  </g>
  <g id="axes_3">
   <g id="patch_8">
    <path clip-path="url(#p0b8a7475c2)" d="
M110.193 523.908
C102.508 527.563 94.0201 529.213 85.5247 528.705
C77.0292 528.196 68.7992 525.545 61.6042 521
C54.4092 516.454 48.4808 510.16 44.3732 502.706
C40.2656 495.252 38.1111 486.879 38.1111 478.368
C38.1111 469.857 40.2656 461.484 44.3732 454.03
C48.4808 446.576 54.4092 440.282 61.6042 435.736
C68.7992 431.191 77.0292 428.54 85.5247 428.031
C94.0201 427.523 102.508 429.173 110.193 432.828
C101.681 437.007 94.5088 443.491 89.4942 451.54
C84.4796 459.589 81.8207 468.885 81.8207 478.368
C81.8207 487.851 84.4796 497.147 89.4942 505.196
C94.5088 513.245 101.681 519.729 110.193 523.908" style="fill:#ff0000;opacity:0.4;"/>
   </g>
   <g id="patch_9">
    <path clip-path="url(#p0b8a7475c2)" d="
M110.193 432.828
C117.928 429.03 126.504 427.264 135.109 427.698
C143.715 428.132 152.069 430.751 159.383 435.307
C166.696 439.864 172.729 446.209 176.912 453.742
C181.094 461.276 183.289 469.752 183.289 478.368
C183.289 486.984 181.094 495.46 176.912 502.994
C172.729 510.527 166.696 516.872 159.383 521.429
C152.069 525.985 143.715 528.604 135.109 529.038
C126.504 529.472 117.928 527.706 110.193 523.908
C118.803 519.814 126.078 513.361 131.17 505.302
C136.262 497.242 138.965 487.901 138.965 478.368
C138.965 468.835 136.262 459.494 131.17 451.434
C126.078 443.375 118.803 436.922 110.193 432.828" style="fill:#008000;opacity:0.4;"/>
   </g>
   <g id="patch_10">
    <path clip-path="url(#p0b8a7475c2)" d="
M110.193 523.908
C118.803 519.814 126.078 513.361 131.17 505.302
C136.262 497.242 138.965 487.901 138.965 478.368
C138.965 468.835 136.262 459.494 131.17 451.434
C126.078 443.375 118.803 436.922 110.193 432.828
C101.681 437.007 94.5088 443.491 89.4942 451.54
C84.4796 459.589 81.8207 468.885 81.8207 478.368
C81.8207 487.851 84.4796 497.147 89.4942 505.196
C94.5088 513.245 101.681 519.729 110.193 523.908" style="fill:#b25900;opacity:0.4;"/>
   </g>
   <g id="text_11">
    <!-- 333074 -->
    <g transform="translate(45.2252630497 480.5755)scale(0.08 -0.08)">
     <use xlink:href="#BitstreamVeraSans-Roman-33"/>
     <use x="63.623046875" xlink:href="#BitstreamVeraSans-Roman-33"/>
     <use x="127.24609375" xlink:href="#BitstreamVeraSans-Roman-33"/>
     <use x="190.869140625" xlink:href="#BitstreamVeraSans-Roman-30"/>
     <use x="254.4921875" xlink:href="#BitstreamVeraSans-Roman-37"/>
     <use x="318.115234375" xlink:href="#BitstreamVeraSans-Roman-34"/>
    </g>
   </g>
   <g id="text_12">
    <!-- 340707 -->
    <g transform="translate(146.503851557 480.5755)scale(0.08 -0.08)">
     <use xlink:href="#BitstreamVeraSans-Roman-33"/>
     <use x="63.623046875" xlink:href="#BitstreamVeraSans-Roman-34"/>
     <use x="127.24609375" xlink:href="#BitstreamVeraSans-Roman-30"/>
     <use x="190.869140625" xlink:href="#BitstreamVeraSans-Roman-37"/>
     <use x="254.4921875" xlink:href="#BitstreamVeraSans-Roman-30"/>
     <use x="318.115234375" xlink:href="#BitstreamVeraSans-Roman-37"/>
    </g>
   </g>
   <g id="text_13">
    <!-- 291635 -->
    <g transform="translate(95.7653646068 480.5755)scale(0.08 -0.08)">
     <use xlink:href="#BitstreamVeraSans-Roman-32"/>
     <use x="63.623046875" xlink:href="#BitstreamVeraSans-Roman-39"/>
     <use x="127.24609375" xlink:href="#BitstreamVeraSans-Roman-31"/>
     <use x="190.869140625" xlink:href="#BitstreamVeraSans-Roman-36"/>
     <use x="254.4921875" xlink:href="#BitstreamVeraSans-Roman-33"/>
     <use x="318.115234375" xlink:href="#BitstreamVeraSans-Roman-35"/>
    </g>
   </g>
   <g id="text_14">
    <!-- Totonaca 1 -->
    <defs>
     <path d="
M18.3125 70.2188
L18.3125 54.6875
L36.8125 54.6875
L36.8125 47.7031
L18.3125 47.7031
L18.3125 18.0156
Q18.3125 11.3281 20.1406 9.42188
Q21.9688 7.51562 27.5938 7.51562
L36.8125 7.51562
L36.8125 0
L27.5938 0
Q17.1875 0 13.2344 3.875
Q9.28125 7.76562 9.28125 18.0156
L9.28125 47.7031
L2.6875 47.7031
L2.6875 54.6875
L9.28125 54.6875
L9.28125 70.2188
z
" id="BitstreamVeraSans-Roman-74"/>
     <path d="
M30.6094 48.3906
Q23.3906 48.3906 19.1875 42.75
Q14.9844 37.1094 14.9844 27.2969
Q14.9844 17.4844 19.1562 11.8438
Q23.3438 6.20312 30.6094 6.20312
Q37.7969 6.20312 41.9844 11.8594
Q46.1875 17.5312 46.1875 27.2969
Q46.1875 37.0156 41.9844 42.7031
Q37.7969 48.3906 30.6094 48.3906
M30.6094 56
Q42.3281 56 49.0156 48.375
Q55.7188 40.7656 55.7188 27.2969
Q55.7188 13.875 49.0156 6.21875
Q42.3281 -1.42188 30.6094 -1.42188
Q18.8438 -1.42188 12.1719 6.21875
Q5.51562 13.875 5.51562 27.2969
Q5.51562 40.7656 12.1719 48.375
Q18.8438 56 30.6094 56" id="BitstreamVeraSans-Roman-6f"/>
     <path d="
M48.7812 52.5938
L48.7812 44.1875
Q44.9688 46.2969 41.1406 47.3438
Q37.3125 48.3906 33.4062 48.3906
Q24.6562 48.3906 19.8125 42.8438
Q14.9844 37.3125 14.9844 27.2969
Q14.9844 17.2812 19.8125 11.7344
Q24.6562 6.20312 33.4062 6.20312
Q37.3125 6.20312 41.1406 7.25
Q44.9688 8.29688 48.7812 10.4062
L48.7812 2.09375
Q45.0156 0.34375 40.9844 -0.53125
Q36.9688 -1.42188 32.4219 -1.42188
Q20.0625 -1.42188 12.7812 6.34375
Q5.51562 14.1094 5.51562 27.2969
Q5.51562 40.6719 12.8594 48.3281
Q20.2188 56 33.0156 56
Q37.1562 56 41.1094 55.1406
Q45.0625 54.2969 48.7812 52.5938" id="BitstreamVeraSans-Roman-63"/>
    </defs>
    <g transform="translate(37.3655554451 541.147530982)scale(0.096 -0.096)">
     <use xlink:href="#BitstreamVeraSans-Roman-54"/>
     <use x="44.083984375" xlink:href="#BitstreamVeraSans-Roman-6f"/>
     <use x="105.265625" xlink:href="#BitstreamVeraSans-Roman-74"/>
     <use x="144.474609375" xlink:href="#BitstreamVeraSans-Roman-6f"/>
     <use x="205.65625" xlink:href="#BitstreamVeraSans-Roman-6e"/>
     <use x="269.03515625" xlink:href="#BitstreamVeraSans-Roman-61"/>
     <use x="330.314453125" xlink:href="#BitstreamVeraSans-Roman-63"/>
     <use x="385.294921875" xlink:href="#BitstreamVeraSans-Roman-61"/>
     <use x="446.57421875" xlink:href="#BitstreamVeraSans-Roman-20"/>
     <use x="478.361328125" xlink:href="#BitstreamVeraSans-Roman-31"/>
    </g>
   </g>
   <g id="text_15">
    <!-- Totonaca 2 -->
    <g transform="translate(132.554809162 541.454666376)scale(0.096 -0.096)">
     <use xlink:href="#BitstreamVeraSans-Roman-54"/>
     <use x="44.083984375" xlink:href="#BitstreamVeraSans-Roman-6f"/>
     <use x="105.265625" xlink:href="#BitstreamVeraSans-Roman-74"/>
     <use x="144.474609375" xlink:href="#BitstreamVeraSans-Roman-6f"/>
     <use x="205.65625" xlink:href="#BitstreamVeraSans-Roman-6e"/>
     <use x="269.03515625" xlink:href="#BitstreamVeraSans-Roman-61"/>
     <use x="330.314453125" xlink:href="#BitstreamVeraSans-Roman-63"/>
     <use x="385.294921875" xlink:href="#BitstreamVeraSans-Roman-61"/>
     <use x="446.57421875" xlink:href="#BitstreamVeraSans-Roman-20"/>
     <use x="478.361328125" xlink:href="#BitstreamVeraSans-Roman-32"/>
    </g>
   </g>
  </g>
  <g id="axes_4">
   <g id="patch_11">
    <path clip-path="url(#p181d32d2c5)" d="
M110.685 675.252
C103.041 679.085 94.5423 680.9 85.9996 680.523
C77.4569 680.146 69.1509 677.59 61.8743 673.099
C54.5977 668.607 48.5896 662.328 44.4233 654.861
C40.257 647.394 38.0695 638.983 38.0695 630.432
C38.0695 621.881 40.257 613.47 44.4233 606.003
C48.5896 598.536 54.5977 592.257 61.8743 587.765
C69.1509 583.274 77.4569 580.718 85.9996 580.341
C94.5423 579.964 103.041 581.779 110.685 585.612
C102.374 589.784 95.3848 596.186 90.5021 604.1
C85.6194 612.014 83.0329 621.133 83.0329 630.432
C83.0329 639.731 85.6194 648.85 90.5021 656.764
C95.3848 664.678 102.374 671.08 110.685 675.252" style="fill:#ff0000;opacity:0.4;"/>
   </g>
   <g id="patch_12">
    <path clip-path="url(#p181d32d2c5)" d="
M110.685 585.612
C118.33 581.775 126.831 579.957 135.377 580.331
C143.923 580.706 152.233 583.261 159.513 587.752
C166.793 592.244 172.805 598.525 176.973 605.994
C181.142 613.464 183.33 621.878 183.33 630.432
C183.33 638.986 181.142 647.4 176.973 654.87
C172.805 662.339 166.793 668.62 159.513 673.112
C152.233 677.603 143.923 680.158 135.377 680.533
C126.831 680.907 118.33 679.089 110.685 675.252
C118.999 671.082 125.991 664.681 130.876 656.767
C135.761 648.852 138.348 639.733 138.348 630.432
C138.348 621.131 135.761 612.012 130.876 604.097
C125.991 596.183 118.999 589.782 110.685 585.612" style="fill:#008000;opacity:0.4;"/>
   </g>
   <g id="patch_13">
    <path clip-path="url(#p181d32d2c5)" d="
M110.685 675.252
C118.999 671.082 125.991 664.681 130.876 656.767
C135.761 648.852 138.348 639.733 138.348 630.432
C138.348 621.131 135.761 612.012 130.876 604.097
C125.991 596.183 118.999 589.782 110.685 585.612
C102.374 589.784 95.3848 596.186 90.5021 604.1
C85.6194 612.014 83.0329 621.133 83.0329 630.432
C83.0329 639.731 85.6194 648.85 90.5021 656.764
C95.3848 664.678 102.374 671.08 110.685 675.252" style="fill:#b25900;opacity:0.4;"/>
   </g>
   <g id="text_16">
    <!-- 346764 -->
    <g transform="translate(45.8105887285 632.6395)scale(0.08 -0.08)">
     <use xlink:href="#BitstreamVeraSans-Roman-33"/>
     <use x="63.623046875" xlink:href="#BitstreamVeraSans-Roman-34"/>
     <use x="127.24609375" xlink:href="#BitstreamVeraSans-Roman-36"/>
     <use x="190.869140625" xlink:href="#BitstreamVeraSans-Roman-37"/>
     <use x="254.4921875" xlink:href="#BitstreamVeraSans-Roman-36"/>
     <use x="318.115234375" xlink:href="#BitstreamVeraSans-Roman-34"/>
    </g>
   </g>
   <g id="text_17">
    <!-- 346999 -->
    <g transform="translate(146.155673811 632.6395)scale(0.08 -0.08)">
     <use xlink:href="#BitstreamVeraSans-Roman-33"/>
     <use x="63.623046875" xlink:href="#BitstreamVeraSans-Roman-34"/>
     <use x="127.24609375" xlink:href="#BitstreamVeraSans-Roman-36"/>
     <use x="190.869140625" xlink:href="#BitstreamVeraSans-Roman-39"/>
     <use x="254.4921875" xlink:href="#BitstreamVeraSans-Roman-39"/>
     <use x="318.115234375" xlink:href="#BitstreamVeraSans-Roman-39"/>
    </g>
   </g>
   <g id="text_18">
    <!-- 282433 -->
    <g transform="translate(96.0343875391 632.6395)scale(0.08 -0.08)">
     <use xlink:href="#BitstreamVeraSans-Roman-32"/>
     <use x="63.623046875" xlink:href="#BitstreamVeraSans-Roman-38"/>
     <use x="127.24609375" xlink:href="#BitstreamVeraSans-Roman-32"/>
     <use x="190.869140625" xlink:href="#BitstreamVeraSans-Roman-34"/>
     <use x="254.4921875" xlink:href="#BitstreamVeraSans-Roman-33"/>
     <use x="318.115234375" xlink:href="#BitstreamVeraSans-Roman-33"/>
    </g>
   </g>
   <g id="text_19">
    <!-- Nahua 1 -->
    <defs>
     <path d="
M9.8125 72.9062
L23.0938 72.9062
L55.4219 11.9219
L55.4219 72.9062
L64.9844 72.9062
L64.9844 0
L51.7031 0
L19.3906 60.9844
L19.3906 0
L9.8125 0
z
" id="BitstreamVeraSans-Roman-4e"/>
    </defs>
    <g transform="translate(48.8204610458 692.880334315)scale(0.096 -0.096)">
     <use xlink:href="#BitstreamVeraSans-Roman-4e"/>
     <use x="74.8046875" xlink:href="#BitstreamVeraSans-Roman-61"/>
     <use x="136.083984375" xlink:href="#BitstreamVeraSans-Roman-68"/>
     <use x="199.462890625" xlink:href="#BitstreamVeraSans-Roman-75"/>
     <use x="262.841796875" xlink:href="#BitstreamVeraSans-Roman-61"/>
     <use x="324.12109375" xlink:href="#BitstreamVeraSans-Roman-20"/>
     <use x="355.908203125" xlink:href="#BitstreamVeraSans-Roman-31"/>
    </g>
   </g>
   <g id="text_20">
    <!-- Nahua 2 -->
    <g transform="translate(133.181676493 692.889696776)scale(0.096 -0.096)">
     <use xlink:href="#BitstreamVeraSans-Roman-4e"/>
     <use x="74.8046875" xlink:href="#BitstreamVeraSans-Roman-61"/>
     <use x="136.083984375" xlink:href="#BitstreamVeraSans-Roman-68"/>
     <use x="199.462890625" xlink:href="#BitstreamVeraSans-Roman-75"/>
     <use x="262.841796875" xlink:href="#BitstreamVeraSans-Roman-61"/>
     <use x="324.12109375" xlink:href="#BitstreamVeraSans-Roman-20"/>
     <use x="355.908203125" xlink:href="#BitstreamVeraSans-Roman-32"/>
    </g>
   </g>
  </g>
  <g id="axes_5">
   <g id="patch_14">
    <path clip-path="url(#p0a81531eee)" d="
M110.673 827.206
C103.04 831.054 94.5472 832.884 86.0067 832.521
C77.4662 832.158 69.1593 829.614 61.8803 825.132
C54.6013 820.65 48.59 814.377 44.4212 806.915
C40.2524 799.452 38.0633 791.044 38.0633 782.496
C38.0633 773.948 40.2524 765.54 44.4212 758.077
C48.59 750.615 54.6013 744.342 61.8803 739.86
C69.1593 735.378 77.4662 732.834 86.0067 732.471
C94.5472 732.108 103.04 733.938 110.673 737.786
C102.401 741.963 95.4477 748.355 90.5912 756.248
C85.7347 764.141 83.1627 773.229 83.1627 782.496
C83.1627 791.763 85.7347 800.851 90.5912 808.744
C95.4477 816.637 102.401 823.029 110.673 827.206" style="fill:#ff0000;opacity:0.4;"/>
   </g>
   <g id="patch_15">
    <path clip-path="url(#p0a81531eee)" d="
M110.673 737.786
C118.309 733.93 126.806 732.094 135.353 732.453
C143.899 732.812 152.213 735.355 159.498 739.837
C166.783 744.32 172.8 750.595 176.973 758.062
C181.145 765.529 183.337 773.942 183.337 782.496
C183.337 791.05 181.145 799.463 176.973 806.93
C172.8 814.397 166.783 820.672 159.498 825.155
C152.213 829.637 143.899 832.18 135.353 832.539
C126.806 832.898 118.309 831.062 110.673 827.206
C118.951 823.033 125.909 816.643 130.769 808.749
C135.63 800.856 138.204 791.766 138.204 782.496
C138.204 773.226 135.63 764.136 130.769 756.243
C125.909 748.349 118.951 741.959 110.673 737.786" style="fill:#008000;opacity:0.4;"/>
   </g>
   <g id="patch_16">
    <path clip-path="url(#p0a81531eee)" d="
M110.673 827.206
C118.951 823.033 125.909 816.643 130.769 808.749
C135.63 800.856 138.204 791.766 138.204 782.496
C138.204 773.226 135.63 764.136 130.769 756.243
C125.909 748.349 118.951 741.959 110.673 737.786
C102.401 741.963 95.4477 748.355 90.5912 756.248
C85.7347 764.141 83.1627 773.229 83.1627 782.496
C83.1627 791.763 85.7347 800.851 90.5912 808.744
C95.4477 816.637 102.401 823.029 110.673 827.206" style="fill:#b25900;opacity:0.4;"/>
   </g>
   <g id="text_21">
    <!-- 348838 -->
    <g transform="translate(45.9217182288 784.7035)scale(0.08 -0.08)">
     <use xlink:href="#BitstreamVeraSans-Roman-33"/>
     <use x="63.623046875" xlink:href="#BitstreamVeraSans-Roman-34"/>
     <use x="127.24609375" xlink:href="#BitstreamVeraSans-Roman-38"/>
     <use x="190.869140625" xlink:href="#BitstreamVeraSans-Roman-38"/>
     <use x="254.4921875" xlink:href="#BitstreamVeraSans-Roman-33"/>
     <use x="318.115234375" xlink:href="#BitstreamVeraSans-Roman-38"/>
    </g>
   </g>
   <g id="text_22">
    <!-- 349256 -->
    <g transform="translate(146.057309683 784.7035)scale(0.08 -0.08)">
     <use xlink:href="#BitstreamVeraSans-Roman-33"/>
     <use x="63.623046875" xlink:href="#BitstreamVeraSans-Roman-34"/>
     <use x="127.24609375" xlink:href="#BitstreamVeraSans-Roman-39"/>
     <use x="190.869140625" xlink:href="#BitstreamVeraSans-Roman-32"/>
     <use x="254.4921875" xlink:href="#BitstreamVeraSans-Roman-35"/>
     <use x="318.115234375" xlink:href="#BitstreamVeraSans-Roman-36"/>
    </g>
   </g>
   <g id="text_23">
    <!-- 281573 -->
    <g transform="translate(96.0271529122 784.7035)scale(0.08 -0.08)">
     <use xlink:href="#BitstreamVeraSans-Roman-32"/>
     <use x="63.623046875" xlink:href="#BitstreamVeraSans-Roman-38"/>
     <use x="127.24609375" xlink:href="#BitstreamVeraSans-Roman-31"/>
     <use x="190.869140625" xlink:href="#BitstreamVeraSans-Roman-35"/>
     <use x="254.4921875" xlink:href="#BitstreamVeraSans-Roman-37"/>
     <use x="318.115234375" xlink:href="#BitstreamVeraSans-Roman-33"/>
    </g>
   </g>
   <g id="text_24">
    <!-- Zapoteca 1 -->
    <defs>
     <path d="
M5.60938 72.9062
L62.8906 72.9062
L62.8906 65.375
L16.7969 8.29688
L64.0156 8.29688
L64.0156 0
L4.5 0
L4.5 7.51562
L50.5938 64.5938
L5.60938 64.5938
z
" id="BitstreamVeraSans-Roman-5a"/>
    </defs>
    <g transform="translate(34.6017081186 844.868808006)scale(0.096 -0.096)">
     <use xlink:href="#BitstreamVeraSans-Roman-5a"/>
     <use x="68.505859375" xlink:href="#BitstreamVeraSans-Roman-61"/>
     <use x="129.78515625" xlink:href="#BitstreamVeraSans-Roman-70"/>
     <use x="193.26171875" xlink:href="#BitstreamVeraSans-Roman-6f"/>
     <use x="254.443359375" xlink:href="#BitstreamVeraSans-Roman-74"/>
     <use x="293.65234375" xlink:href="#BitstreamVeraSans-Roman-65"/>
     <use x="355.17578125" xlink:href="#BitstreamVeraSans-Roman-63"/>
     <use x="410.15625" xlink:href="#BitstreamVeraSans-Roman-61"/>
     <use x="471.435546875" xlink:href="#BitstreamVeraSans-Roman-20"/>
     <use x="503.22265625" xlink:href="#BitstreamVeraSans-Roman-31"/>
    </g>
   </g>
   <g id="text_25">
    <!-- Zapoteca 2 -->
    <g transform="translate(133.249694794 844.885405094)scale(0.096 -0.096)">
     <use xlink:href="#BitstreamVeraSans-Roman-5a"/>
     <use x="68.505859375" xlink:href="#BitstreamVeraSans-Roman-61"/>
     <use x="129.78515625" xlink:href="#BitstreamVeraSans-Roman-70"/>
     <use x="193.26171875" xlink:href="#BitstreamVeraSans-Roman-6f"/>
     <use x="254.443359375" xlink:href="#BitstreamVeraSans-Roman-74"/>
     <use x="293.65234375" xlink:href="#BitstreamVeraSans-Roman-65"/>
     <use x="355.17578125" xlink:href="#BitstreamVeraSans-Roman-63"/>
     <use x="410.15625" xlink:href="#BitstreamVeraSans-Roman-61"/>
     <use x="471.435546875" xlink:href="#BitstreamVeraSans-Roman-20"/>
     <use x="503.22265625" xlink:href="#BitstreamVeraSans-Roman-32"/>
    </g>
   </g>
  </g>
  <g id="axes_6">
   <g id="patch_17">
    <path clip-path="url(#p9545fdfbd6)" d="
M110.335 979.178
C102.726 982.993 94.2662 984.798 85.7632 984.422
C77.2603 984.046 68.9931 981.501 61.7507 977.03
C54.5083 972.559 48.5284 966.309 44.3818 958.876
C40.2352 951.443 38.0581 943.071 38.0581 934.56
C38.0581 926.049 40.2352 917.677 44.3818 910.244
C48.5284 902.811 54.5083 896.561 61.7507 892.09
C68.9931 887.619 77.2603 885.074 85.7632 884.698
C94.2662 884.322 102.726 886.127 110.335 889.942
C102.125 894.15 95.2337 900.543 90.423 908.414
C85.6122 916.286 83.0661 925.335 83.0661 934.56
C83.0661 943.785 85.6122 952.834 90.423 960.706
C95.2337 968.577 102.125 974.97 110.335 979.178" style="fill:#ff0000;opacity:0.4;"/>
   </g>
   <g id="patch_18">
    <path clip-path="url(#p9545fdfbd6)" d="
M110.335 889.942
C117.977 886.024 126.5 884.136 135.082 884.457
C143.664 884.779 152.022 887.3 159.35 891.779
C166.678 896.257 172.734 902.545 176.934 910.035
C181.135 917.526 183.342 925.972 183.342 934.56
C183.342 943.148 181.135 951.594 176.934 959.085
C172.734 966.575 166.678 972.863 159.35 977.341
C152.022 981.82 143.664 984.341 135.082 984.663
C126.5 984.984 117.977 983.096 110.335 979.178
C118.612 975.029 125.574 968.657 130.438 960.778
C135.302 952.899 137.879 943.819 137.879 934.56
C137.879 925.301 135.302 916.221 130.438 908.342
C125.574 900.463 118.612 894.091 110.335 889.942" style="fill:#008000;opacity:0.4;"/>
   </g>
   <g id="patch_19">
    <path clip-path="url(#p9545fdfbd6)" d="
M110.335 979.178
C118.612 975.029 125.574 968.657 130.438 960.778
C135.302 952.899 137.879 943.819 137.879 934.56
C137.879 925.301 135.302 916.221 130.438 908.342
C125.574 900.463 118.612 894.091 110.335 889.942
C102.125 894.15 95.2337 900.543 90.423 908.414
C85.6122 916.286 83.0661 925.335 83.0661 934.56
C83.0661 943.785 85.6122 952.834 90.423 960.706
C95.2337 968.577 102.125 974.97 110.335 979.178" style="fill:#b25900;opacity:0.4;"/>
   </g>
   <g id="text_26">
    <!-- 351469 -->
    <g transform="translate(45.878333821 936.7675)scale(0.08 -0.08)">
     <use xlink:href="#BitstreamVeraSans-Roman-33"/>
     <use x="63.623046875" xlink:href="#BitstreamVeraSans-Roman-35"/>
     <use x="127.24609375" xlink:href="#BitstreamVeraSans-Roman-31"/>
     <use x="190.869140625" xlink:href="#BitstreamVeraSans-Roman-34"/>
     <use x="254.4921875" xlink:href="#BitstreamVeraSans-Roman-36"/>
     <use x="318.115234375" xlink:href="#BitstreamVeraSans-Roman-39"/>
    </g>
   </g>
   <g id="text_27">
    <!-- 357273 -->
    <g transform="translate(145.966009245 936.7675)scale(0.08 -0.08)">
     <use xlink:href="#BitstreamVeraSans-Roman-33"/>
     <use x="63.623046875" xlink:href="#BitstreamVeraSans-Roman-35"/>
     <use x="127.24609375" xlink:href="#BitstreamVeraSans-Roman-37"/>
     <use x="190.869140625" xlink:href="#BitstreamVeraSans-Roman-32"/>
     <use x="254.4921875" xlink:href="#BitstreamVeraSans-Roman-37"/>
     <use x="318.115234375" xlink:href="#BitstreamVeraSans-Roman-33"/>
    </g>
   </g>
   <g id="text_28">
    <!-- 283653 -->
    <g transform="translate(95.8162180659 936.7675)scale(0.08 -0.08)">
     <use xlink:href="#BitstreamVeraSans-Roman-32"/>
     <use x="63.623046875" xlink:href="#BitstreamVeraSans-Roman-38"/>
     <use x="127.24609375" xlink:href="#BitstreamVeraSans-Roman-33"/>
     <use x="190.869140625" xlink:href="#BitstreamVeraSans-Roman-36"/>
     <use x="254.4921875" xlink:href="#BitstreamVeraSans-Roman-35"/>
     <use x="318.115234375" xlink:href="#BitstreamVeraSans-Roman-33"/>
    </g>
   </g>
   <g id="text_29">
    <!-- Maya 1 -->
    <defs>
     <path d="
M9.8125 72.9062
L24.5156 72.9062
L43.1094 23.2969
L61.8125 72.9062
L76.5156 72.9062
L76.5156 0
L66.8906 0
L66.8906 64.0156
L48.0938 14.0156
L38.1875 14.0156
L19.3906 64.0156
L19.3906 0
L9.8125 0
z
" id="BitstreamVeraSans-Roman-4d"/>
     <path d="
M32.1719 -5.07812
Q28.375 -14.8438 24.75 -17.8125
Q21.1406 -20.7969 15.0938 -20.7969
L7.90625 -20.7969
L7.90625 -13.2812
L13.1875 -13.2812
Q16.8906 -13.2812 18.9375 -11.5156
Q21 -9.76562 23.4844 -3.21875
L25.0938 0.875
L2.98438 54.6875
L12.5 54.6875
L29.5938 11.9219
L46.6875 54.6875
L56.2031 54.6875
z
" id="BitstreamVeraSans-Roman-79"/>
    </defs>
    <g transform="translate(53.9649598571 996.767299266)scale(0.096 -0.096)">
     <use xlink:href="#BitstreamVeraSans-Roman-4d"/>
     <use x="86.279296875" xlink:href="#BitstreamVeraSans-Roman-61"/>
     <use x="147.55859375" xlink:href="#BitstreamVeraSans-Roman-79"/>
     <use x="206.73828125" xlink:href="#BitstreamVeraSans-Roman-61"/>
     <use x="268.017578125" xlink:href="#BitstreamVeraSans-Roman-20"/>
     <use x="299.8046875" xlink:href="#BitstreamVeraSans-Roman-31"/>
    </g>
   </g>
   <g id="text_30">
    <!-- Maya 2 -->
    <g transform="translate(133.204008209 996.9948312)scale(0.096 -0.096)">
     <use xlink:href="#BitstreamVeraSans-Roman-4d"/>
     <use x="86.279296875" xlink:href="#BitstreamVeraSans-Roman-61"/>
     <use x="147.55859375" xlink:href="#BitstreamVeraSans-Roman-79"/>
     <use x="206.73828125" xlink:href="#BitstreamVeraSans-Roman-61"/>
     <use x="268.017578125" xlink:href="#BitstreamVeraSans-Roman-20"/>
     <use x="299.8046875" xlink:href="#BitstreamVeraSans-Roman-32"/>
    </g>
   </g>
  </g>
 </g>
 <defs>
  <clipPath id="p9545fdfbd6">
   <rect height="122.391983583" width="167.4" x="27.0" y="873.364008209"/>
  </clipPath>
  <clipPath id="p181d32d2c5">
   <rect height="122.436647013" width="167.4" x="27.0" y="569.213676493"/>
  </clipPath>
  <clipPath id="pd29b775efb">
   <rect height="122.863263223" width="167.4" x="27.0" y="264.872368389"/>
  </clipPath>
  <clipPath id="p0b8a7475c2">
   <rect height="123.690381677" width="167.4" x="27.0" y="416.522809162"/>
  </clipPath>
  <clipPath id="p808f69e23b">
   <rect height="122.349454317" width="167.4" x="27.0" y="113.065272842"/>
  </clipPath>
  <clipPath id="p0a81531eee">
   <rect height="122.300610413" width="167.4" x="27.0" y="721.345694794"/>
  </clipPath>
 </defs>
</svg>
