<?xml version="1.0" encoding="utf-8" standalone="no"?>
<!DOCTYPE svg PUBLIC "-//W3C//DTD SVG 1.1//EN"
  "http://www.w3.org/Graphics/SVG/1.1/DTD/svg11.dtd">
<!-- Created with matplotlib (http://matplotlib.org/) -->
<svg height="216pt" version="1.1" viewBox="0 0 648 216" width="648pt" xmlns="http://www.w3.org/2000/svg" xmlns:xlink="http://www.w3.org/1999/xlink">
 <defs>
  <style type="text/css">
*{stroke-linecap:butt;stroke-linejoin:round;}
  </style>
 </defs>
 <g id="figure_1">
  <g id="patch_1">
   <path d="
M0 216
L648 216
L648 0
L0 0
z
" style="fill:#ffffff;"/>
  </g>
  <g id="axes_1">
   <g id="patch_2">
    <path clip-path="url(#pf14aa1eba4)" d="
M152.067 62.2985
C144.592 66.7847 138.62 73.398 134.917 81.2908
C131.214 89.1836 129.946 98.0035 131.275 106.62
C126.937 111.131 124.04 116.833 122.955 122.997
C121.871 129.16 122.647 135.51 125.185 141.23
C119.29 140.08 113.709 137.681 108.819 134.195
C103.928 130.709 99.8405 126.215 96.8307 121.018
C93.8209 115.821 91.9584 110.039 91.3688 104.062
C90.7791 98.0852 91.4759 92.0508 93.4122 86.3656
C95.3484 80.6804 98.4796 75.4751 102.595 71.1005
C106.71 66.726 111.714 63.2827 117.27 61.0028
C122.827 58.723 128.807 57.6589 134.809 57.8824
C140.811 58.1059 146.696 59.6118 152.067 62.2985" style="fill:#ff0000;opacity:0.4;"/>
   </g>
   <g id="patch_3">
    <path clip-path="url(#pf14aa1eba4)" d="
M181.801 143.234
C185.102 137.021 186.227 129.877 184.998 122.949
C183.768 116.022 180.252 109.702 175.014 105.005
C176.061 96.3901 174.417 87.6591 170.309 80.0147
C166.202 72.3704 159.828 66.1807 152.067 62.2985
C157.606 58.9744 163.812 56.9138 170.239 56.2644
C176.666 55.6149 183.159 56.3925 189.251 58.5414
C195.343 60.6904 200.886 64.1581 205.484 68.6963
C210.081 73.2346 213.62 78.7324 215.848 84.7962
C218.076 90.8601 218.938 97.3416 218.372 103.777
C217.806 110.212 215.826 116.444 212.574 122.025
C209.321 127.607 204.877 132.403 199.558 136.069
C194.238 139.735 188.175 142.182 181.801 143.234" style="fill:#008000;opacity:0.4;"/>
   </g>
   <g id="patch_4">
    <path clip-path="url(#pf14aa1eba4)" d="
M152.067 62.2985
C144.592 66.7847 138.62 73.398 134.917 81.2908
C131.214 89.1836 129.946 98.0035 131.275 106.62
C136.933 100.737 144.661 97.2767 152.818 96.9755
C160.975 96.6743 168.938 99.5548 175.014 105.005
C176.061 96.3901 174.417 87.6591 170.309 80.0147
C166.202 72.3704 159.828 66.1807 152.067 62.2985" style="fill:#b25900;opacity:0.4;"/>
   </g>
   <g id="patch_5">
    <path clip-path="url(#pf14aa1eba4)" d="
M125.185 141.23
C129.714 142.114 134.358 142.247 138.93 141.623
C143.502 141 147.94 139.628 152.067 137.564
C156.495 140.221 161.357 142.076 166.43 143.043
C171.502 144.011 176.706 144.075 181.801 143.234
C179.03 148.451 174.847 152.785 169.731 155.738
C164.615 158.691 158.77 160.147 152.866 159.938
C146.963 159.729 141.235 157.864 136.341 154.556
C131.447 151.249 127.58 146.63 125.185 141.23" style="fill:#0000ff;opacity:0.4;"/>
   </g>
   <g id="patch_6">
    <path clip-path="url(#pf14aa1eba4)" d="
M125.185 141.23
C129.714 142.114 134.358 142.247 138.93 141.623
C143.502 141 147.94 139.628 152.067 137.564
C146.543 134.248 141.815 129.757 138.222 124.409
C134.629 119.061 132.257 112.987 131.275 106.62
C126.937 111.131 124.04 116.833 122.955 122.997
C121.871 129.16 122.647 135.51 125.185 141.23" style="fill:#b200b2;opacity:0.4;"/>
   </g>
   <g id="patch_7">
    <path clip-path="url(#pf14aa1eba4)" d="
M181.801 143.234
C185.102 137.021 186.227 129.877 184.998 122.949
C183.768 116.022 180.252 109.702 175.014 105.005
C174.176 111.905 171.641 118.49 167.637 124.172
C163.633 129.853 158.283 134.454 152.067 137.564
C156.495 140.221 161.357 142.076 166.43 143.043
C171.502 144.011 176.706 144.075 181.801 143.234" style="fill:#0059b2;opacity:0.4;"/>
   </g>
   <g id="patch_8">
    <path clip-path="url(#pf14aa1eba4)" d="
M152.067 137.564
C158.283 134.454 163.633 129.853 167.637 124.172
C171.641 118.49 174.176 111.905 175.014 105.005
C168.938 99.5548 160.975 96.6743 152.818 96.9755
C144.661 97.2767 136.933 100.737 131.275 106.62
C132.257 112.987 134.629 119.061 138.222 124.409
C141.815 129.757 146.543 134.248 152.067 137.564" style="fill:#663366;opacity:0.4;"/>
   </g>
   <g id="text_1">
    <!-- 958050 -->
    <defs>
     <path d="
M31.7812 34.625
Q24.75 34.625 20.7188 30.8594
Q16.7031 27.0938 16.7031 20.5156
Q16.7031 13.9219 20.7188 10.1562
Q24.75 6.39062 31.7812 6.39062
Q38.8125 6.39062 42.8594 10.1719
Q46.9219 13.9688 46.9219 20.5156
Q46.9219 27.0938 42.8906 30.8594
Q38.875 34.625 31.7812 34.625
M21.9219 38.8125
Q15.5781 40.375 12.0312 44.7188
Q8.5 49.0781 8.5 55.3281
Q8.5 64.0625 14.7188 69.1406
Q20.9531 74.2188 31.7812 74.2188
Q42.6719 74.2188 48.875 69.1406
Q55.0781 64.0625 55.0781 55.3281
Q55.0781 49.0781 51.5312 44.7188
Q48 40.375 41.7031 38.8125
Q48.8281 37.1562 52.7969 32.3125
Q56.7812 27.4844 56.7812 20.5156
Q56.7812 9.90625 50.3125 4.23438
Q43.8438 -1.42188 31.7812 -1.42188
Q19.7344 -1.42188 13.25 4.23438
Q6.78125 9.90625 6.78125 20.5156
Q6.78125 27.4844 10.7812 32.3125
Q14.7969 37.1562 21.9219 38.8125
M18.3125 54.3906
Q18.3125 48.7344 21.8438 45.5625
Q25.3906 42.3906 31.7812 42.3906
Q38.1406 42.3906 41.7188 45.5625
Q45.3125 48.7344 45.3125 54.3906
Q45.3125 60.0625 41.7188 63.2344
Q38.1406 66.4062 31.7812 66.4062
Q25.3906 66.4062 21.8438 63.2344
Q18.3125 60.0625 18.3125 54.3906" id="BitstreamVeraSans-Roman-38"/>
     <path d="
M10.9844 1.51562
L10.9844 10.5
Q14.7031 8.73438 18.5 7.8125
Q22.3125 6.89062 25.9844 6.89062
Q35.75 6.89062 40.8906 13.4531
Q46.0469 20.0156 46.7812 33.4062
Q43.9531 29.2031 39.5938 26.9531
Q35.25 24.7031 29.9844 24.7031
Q19.0469 24.7031 12.6719 31.3125
Q6.29688 37.9375 6.29688 49.4219
Q6.29688 60.6406 12.9375 67.4219
Q19.5781 74.2188 30.6094 74.2188
Q43.2656 74.2188 49.9219 64.5156
Q56.5938 54.8281 56.5938 36.375
Q56.5938 19.1406 48.4062 8.85938
Q40.2344 -1.42188 26.4219 -1.42188
Q22.7031 -1.42188 18.8906 -0.6875
Q15.0938 0.046875 10.9844 1.51562
M30.6094 32.4219
Q37.25 32.4219 41.125 36.9531
Q45.0156 41.5 45.0156 49.4219
Q45.0156 57.2812 41.125 61.8438
Q37.25 66.4062 30.6094 66.4062
Q23.9688 66.4062 20.0938 61.8438
Q16.2188 57.2812 16.2188 49.4219
Q16.2188 41.5 20.0938 36.9531
Q23.9688 32.4219 30.6094 32.4219" id="BitstreamVeraSans-Roman-39"/>
     <path d="
M31.7812 66.4062
Q24.1719 66.4062 20.3281 58.9062
Q16.5 51.4219 16.5 36.375
Q16.5 21.3906 20.3281 13.8906
Q24.1719 6.39062 31.7812 6.39062
Q39.4531 6.39062 43.2812 13.8906
Q47.125 21.3906 47.125 36.375
Q47.125 51.4219 43.2812 58.9062
Q39.4531 66.4062 31.7812 66.4062
M31.7812 74.2188
Q44.0469 74.2188 50.5156 64.5156
Q56.9844 54.8281 56.9844 36.375
Q56.9844 17.9688 50.5156 8.26562
Q44.0469 -1.42188 31.7812 -1.42188
Q19.5312 -1.42188 13.0625 8.26562
Q6.59375 17.9688 6.59375 36.375
Q6.59375 54.8281 13.0625 64.5156
Q19.5312 74.2188 31.7812 74.2188" id="BitstreamVeraSans-Roman-30"/>
     <path d="
M10.7969 72.9062
L49.5156 72.9062
L49.5156 64.5938
L19.8281 64.5938
L19.8281 46.7344
Q21.9688 47.4688 24.1094 47.8281
Q26.2656 48.1875 28.4219 48.1875
Q40.625 48.1875 47.75 41.5
Q54.8906 34.8125 54.8906 23.3906
Q54.8906 11.625 47.5625 5.09375
Q40.2344 -1.42188 26.9062 -1.42188
Q22.3125 -1.42188 17.5469 -0.640625
Q12.7969 0.140625 7.71875 1.70312
L7.71875 11.625
Q12.1094 9.23438 16.7969 8.0625
Q21.4844 6.89062 26.7031 6.89062
Q35.1562 6.89062 40.0781 11.3281
Q45.0156 15.7656 45.0156 23.3906
Q45.0156 31 40.0781 35.4375
Q35.1562 39.8906 26.7031 39.8906
Q22.75 39.8906 18.8125 39.0156
Q14.8906 38.1406 10.7969 36.2812
z
" id="BitstreamVeraSans-Roman-35"/>
    </defs>
    <g transform="translate(98.751508168 95.9496694109)scale(0.08 -0.08)">
     <use xlink:href="#BitstreamVeraSans-Roman-39"/>
     <use x="63.623046875" xlink:href="#BitstreamVeraSans-Roman-35"/>
     <use x="127.24609375" xlink:href="#BitstreamVeraSans-Roman-38"/>
     <use x="190.869140625" xlink:href="#BitstreamVeraSans-Roman-30"/>
     <use x="254.4921875" xlink:href="#BitstreamVeraSans-Roman-35"/>
     <use x="318.115234375" xlink:href="#BitstreamVeraSans-Roman-30"/>
    </g>
   </g>
   <g id="text_2">
    <!-- 1073038 -->
    <defs>
     <path d="
M40.5781 39.3125
Q47.6562 37.7969 51.625 33
Q55.6094 28.2188 55.6094 21.1875
Q55.6094 10.4062 48.1875 4.48438
Q40.7656 -1.42188 27.0938 -1.42188
Q22.5156 -1.42188 17.6562 -0.515625
Q12.7969 0.390625 7.625 2.20312
L7.625 11.7188
Q11.7188 9.32812 16.5938 8.10938
Q21.4844 6.89062 26.8125 6.89062
Q36.0781 6.89062 40.9375 10.5469
Q45.7969 14.2031 45.7969 21.1875
Q45.7969 27.6406 41.2812 31.2656
Q36.7656 34.9062 28.7188 34.9062
L20.2188 34.9062
L20.2188 43.0156
L29.1094 43.0156
Q36.375 43.0156 40.2344 45.9219
Q44.0938 48.8281 44.0938 54.2969
Q44.0938 59.9062 40.1094 62.9062
Q36.1406 65.9219 28.7188 65.9219
Q24.6562 65.9219 20.0156 65.0312
Q15.375 64.1562 9.8125 62.3125
L9.8125 71.0938
Q15.4375 72.6562 20.3438 73.4375
Q25.25 74.2188 29.5938 74.2188
Q40.8281 74.2188 47.3594 69.1094
Q53.9062 64.0156 53.9062 55.3281
Q53.9062 49.2656 50.4375 45.0938
Q46.9688 40.9219 40.5781 39.3125" id="BitstreamVeraSans-Roman-33"/>
     <path d="
M12.4062 8.29688
L28.5156 8.29688
L28.5156 63.9219
L10.9844 60.4062
L10.9844 69.3906
L28.4219 72.9062
L38.2812 72.9062
L38.2812 8.29688
L54.3906 8.29688
L54.3906 0
L12.4062 0
z
" id="BitstreamVeraSans-Roman-31"/>
     <path d="
M8.20312 72.9062
L55.0781 72.9062
L55.0781 68.7031
L28.6094 0
L18.3125 0
L43.2188 64.5938
L8.20312 64.5938
z
" id="BitstreamVeraSans-Roman-37"/>
    </defs>
    <g transform="translate(176.663878052 93.5801731404)scale(0.08 -0.08)">
     <use xlink:href="#BitstreamVeraSans-Roman-31"/>
     <use x="63.623046875" xlink:href="#BitstreamVeraSans-Roman-30"/>
     <use x="127.24609375" xlink:href="#BitstreamVeraSans-Roman-37"/>
     <use x="190.869140625" xlink:href="#BitstreamVeraSans-Roman-33"/>
     <use x="254.4921875" xlink:href="#BitstreamVeraSans-Roman-30"/>
     <use x="318.115234375" xlink:href="#BitstreamVeraSans-Roman-33"/>
     <use x="381.73828125" xlink:href="#BitstreamVeraSans-Roman-38"/>
    </g>
   </g>
   <g id="text_3">
    <!-- 265914 -->
    <defs>
     <path d="
M19.1875 8.29688
L53.6094 8.29688
L53.6094 0
L7.32812 0
L7.32812 8.29688
Q12.9375 14.1094 22.625 23.8906
Q32.3281 33.6875 34.8125 36.5312
Q39.5469 41.8438 41.4219 45.5312
Q43.3125 49.2188 43.3125 52.7812
Q43.3125 58.5938 39.2344 62.25
Q35.1562 65.9219 28.6094 65.9219
Q23.9688 65.9219 18.8125 64.3125
Q13.6719 62.7031 7.8125 59.4219
L7.8125 69.3906
Q13.7656 71.7812 18.9375 73
Q24.125 74.2188 28.4219 74.2188
Q39.75 74.2188 46.4844 68.5469
Q53.2188 62.8906 53.2188 53.4219
Q53.2188 48.9219 51.5312 44.8906
Q49.8594 40.875 45.4062 35.4062
Q44.1875 33.9844 37.6406 27.2188
Q31.1094 20.4531 19.1875 8.29688" id="BitstreamVeraSans-Roman-32"/>
     <path d="
M33.0156 40.375
Q26.375 40.375 22.4844 35.8281
Q18.6094 31.2969 18.6094 23.3906
Q18.6094 15.5312 22.4844 10.9531
Q26.375 6.39062 33.0156 6.39062
Q39.6562 6.39062 43.5312 10.9531
Q47.4062 15.5312 47.4062 23.3906
Q47.4062 31.2969 43.5312 35.8281
Q39.6562 40.375 33.0156 40.375
M52.5938 71.2969
L52.5938 62.3125
Q48.875 64.0625 45.0938 64.9844
Q41.3125 65.9219 37.5938 65.9219
Q27.8281 65.9219 22.6719 59.3281
Q17.5312 52.7344 16.7969 39.4062
Q19.6719 43.6562 24.0156 45.9219
Q28.375 48.1875 33.5938 48.1875
Q44.5781 48.1875 50.9531 41.5156
Q57.3281 34.8594 57.3281 23.3906
Q57.3281 12.1562 50.6875 5.35938
Q44.0469 -1.42188 33.0156 -1.42188
Q20.3594 -1.42188 13.6719 8.26562
Q6.98438 17.9688 6.98438 36.375
Q6.98438 53.6562 15.1875 63.9375
Q23.3906 74.2188 37.2031 74.2188
Q40.9219 74.2188 44.7031 73.4844
Q48.4844 72.75 52.5938 71.2969" id="BitstreamVeraSans-Roman-36"/>
     <path d="
M37.7969 64.3125
L12.8906 25.3906
L37.7969 25.3906
z

M35.2031 72.9062
L47.6094 72.9062
L47.6094 25.3906
L58.0156 25.3906
L58.0156 17.1875
L47.6094 17.1875
L47.6094 0
L37.7969 0
L37.7969 17.1875
L4.89062 17.1875
L4.89062 26.7031
z
" id="BitstreamVeraSans-Roman-34"/>
    </defs>
    <g transform="translate(137.816008553 81.8403781193)scale(0.08 -0.08)">
     <use xlink:href="#BitstreamVeraSans-Roman-32"/>
     <use x="63.623046875" xlink:href="#BitstreamVeraSans-Roman-36"/>
     <use x="127.24609375" xlink:href="#BitstreamVeraSans-Roman-35"/>
     <use x="190.869140625" xlink:href="#BitstreamVeraSans-Roman-39"/>
     <use x="254.4921875" xlink:href="#BitstreamVeraSans-Roman-31"/>
     <use x="318.115234375" xlink:href="#BitstreamVeraSans-Roman-34"/>
    </g>
   </g>
   <g id="text_4">
    <!-- 352109 -->
    <g transform="translate(137.383397451 150.939298612)scale(0.08 -0.08)">
     <use xlink:href="#BitstreamVeraSans-Roman-33"/>
     <use x="63.623046875" xlink:href="#BitstreamVeraSans-Roman-35"/>
     <use x="127.24609375" xlink:href="#BitstreamVeraSans-Roman-32"/>
     <use x="190.869140625" xlink:href="#BitstreamVeraSans-Roman-31"/>
     <use x="254.4921875" xlink:href="#BitstreamVeraSans-Roman-30"/>
     <use x="318.115234375" xlink:href="#BitstreamVeraSans-Roman-39"/>
    </g>
   </g>
   <g id="text_5">
    <!-- 52940 -->
    <g transform="translate(120.922080975 136.852239158)scale(0.08 -0.08)">
     <use xlink:href="#BitstreamVeraSans-Roman-35"/>
     <use x="63.623046875" xlink:href="#BitstreamVeraSans-Roman-32"/>
     <use x="127.24609375" xlink:href="#BitstreamVeraSans-Roman-39"/>
     <use x="190.869140625" xlink:href="#BitstreamVeraSans-Roman-34"/>
     <use x="254.4921875" xlink:href="#BitstreamVeraSans-Roman-30"/>
    </g>
   </g>
   <g id="text_6">
    <!-- 93663 -->
    <g transform="translate(161.071940169 137.79292909)scale(0.08 -0.08)">
     <use xlink:href="#BitstreamVeraSans-Roman-39"/>
     <use x="63.623046875" xlink:href="#BitstreamVeraSans-Roman-33"/>
     <use x="127.24609375" xlink:href="#BitstreamVeraSans-Roman-36"/>
     <use x="190.869140625" xlink:href="#BitstreamVeraSans-Roman-36"/>
     <use x="254.4921875" xlink:href="#BitstreamVeraSans-Roman-33"/>
    </g>
   </g>
   <g id="text_7">
    <!-- 493683 -->
    <g transform="translate(138.031649535 118.60364181)scale(0.08 -0.08)">
     <use xlink:href="#BitstreamVeraSans-Roman-34"/>
     <use x="63.623046875" xlink:href="#BitstreamVeraSans-Roman-39"/>
     <use x="127.24609375" xlink:href="#BitstreamVeraSans-Roman-33"/>
     <use x="190.869140625" xlink:href="#BitstreamVeraSans-Roman-36"/>
     <use x="254.4921875" xlink:href="#BitstreamVeraSans-Roman-38"/>
     <use x="318.115234375" xlink:href="#BitstreamVeraSans-Roman-33"/>
    </g>
   </g>
   <g id="text_8">
    <!-- Admixed -->
    <defs>
     <path d="
M34.1875 63.1875
L20.7969 26.9062
L47.6094 26.9062
z

M28.6094 72.9062
L39.7969 72.9062
L67.5781 0
L57.3281 0
L50.6875 18.7031
L17.8281 18.7031
L11.1875 0
L0.78125 0
z
" id="BitstreamVeraSans-Roman-41"/>
     <path d="
M52 44.1875
Q55.375 50.25 60.0625 53.125
Q64.75 56 71.0938 56
Q79.6406 56 84.2812 50.0156
Q88.9219 44.0469 88.9219 33.0156
L88.9219 0
L79.8906 0
L79.8906 32.7188
Q79.8906 40.5781 77.0938 44.375
Q74.3125 48.1875 68.6094 48.1875
Q61.625 48.1875 57.5625 43.5469
Q53.5156 38.9219 53.5156 30.9062
L53.5156 0
L44.4844 0
L44.4844 32.7188
Q44.4844 40.625 41.7031 44.4062
Q38.9219 48.1875 33.1094 48.1875
Q26.2188 48.1875 22.1562 43.5312
Q18.1094 38.875 18.1094 30.9062
L18.1094 0
L9.07812 0
L9.07812 54.6875
L18.1094 54.6875
L18.1094 46.1875
Q21.1875 51.2188 25.4844 53.6094
Q29.7812 56 35.6875 56
Q41.6562 56 45.8281 52.9688
Q50 49.9531 52 44.1875" id="BitstreamVeraSans-Roman-6d"/>
     <path d="
M9.42188 54.6875
L18.4062 54.6875
L18.4062 0
L9.42188 0
z

M9.42188 75.9844
L18.4062 75.9844
L18.4062 64.5938
L9.42188 64.5938
z
" id="BitstreamVeraSans-Roman-69"/>
     <path d="
M54.8906 54.6875
L35.1094 28.0781
L55.9062 0
L45.3125 0
L29.3906 21.4844
L13.4844 0
L2.875 0
L24.125 28.6094
L4.6875 54.6875
L15.2812 54.6875
L29.7812 35.2031
L44.2812 54.6875
z
" id="BitstreamVeraSans-Roman-78"/>
     <path d="
M56.2031 29.5938
L56.2031 25.2031
L14.8906 25.2031
Q15.4844 15.9219 20.4844 11.0625
Q25.4844 6.20312 34.4219 6.20312
Q39.5938 6.20312 44.4531 7.46875
Q49.3125 8.73438 54.1094 11.2812
L54.1094 2.78125
Q49.2656 0.734375 44.1875 -0.34375
Q39.1094 -1.42188 33.8906 -1.42188
Q20.7969 -1.42188 13.1562 6.1875
Q5.51562 13.8125 5.51562 26.8125
Q5.51562 40.2344 12.7656 48.1094
Q20.0156 56 32.3281 56
Q43.3594 56 49.7812 48.8906
Q56.2031 41.7969 56.2031 29.5938
M47.2188 32.2344
Q47.125 39.5938 43.0938 43.9844
Q39.0625 48.3906 32.4219 48.3906
Q24.9062 48.3906 20.3906 44.1406
Q15.875 39.8906 15.1875 32.1719
z
" id="BitstreamVeraSans-Roman-65"/>
     <path d="
M45.4062 46.3906
L45.4062 75.9844
L54.3906 75.9844
L54.3906 0
L45.4062 0
L45.4062 8.20312
Q42.5781 3.32812 38.25 0.953125
Q33.9375 -1.42188 27.875 -1.42188
Q17.9688 -1.42188 11.7344 6.48438
Q5.51562 14.4062 5.51562 27.2969
Q5.51562 40.1875 11.7344 48.0938
Q17.9688 56 27.875 56
Q33.9375 56 38.25 53.625
Q42.5781 51.2656 45.4062 46.3906
M14.7969 27.2969
Q14.7969 17.3906 18.875 11.75
Q22.9531 6.10938 30.0781 6.10938
Q37.2031 6.10938 41.2969 11.75
Q45.4062 17.3906 45.4062 27.2969
Q45.4062 37.2031 41.2969 42.8438
Q37.2031 48.4844 30.0781 48.4844
Q22.9531 48.4844 18.875 42.8438
Q14.7969 37.2031 14.7969 27.2969" id="BitstreamVeraSans-Roman-64"/>
    </defs>
    <g transform="translate(71.2574364608 57.8532829131)scale(0.096 -0.096)">
     <use xlink:href="#BitstreamVeraSans-Roman-41"/>
     <use x="66.658203125" xlink:href="#BitstreamVeraSans-Roman-64"/>
     <use x="130.134765625" xlink:href="#BitstreamVeraSans-Roman-6d"/>
     <use x="227.546875" xlink:href="#BitstreamVeraSans-Roman-69"/>
     <use x="255.330078125" xlink:href="#BitstreamVeraSans-Roman-78"/>
     <use x="311.384765625" xlink:href="#BitstreamVeraSans-Roman-65"/>
     <use x="372.908203125" xlink:href="#BitstreamVeraSans-Roman-64"/>
    </g>
   </g>
   <g id="text_9">
    <!-- Centre -->
    <defs>
     <path d="
M54.8906 33.0156
L54.8906 0
L45.9062 0
L45.9062 32.7188
Q45.9062 40.4844 42.875 44.3281
Q39.8438 48.1875 33.7969 48.1875
Q26.5156 48.1875 22.3125 43.5469
Q18.1094 38.9219 18.1094 30.9062
L18.1094 0
L9.07812 0
L9.07812 54.6875
L18.1094 54.6875
L18.1094 46.1875
Q21.3438 51.125 25.7031 53.5625
Q30.0781 56 35.7969 56
Q45.2188 56 50.0469 50.1719
Q54.8906 44.3438 54.8906 33.0156" id="BitstreamVeraSans-Roman-6e"/>
     <path d="
M41.1094 46.2969
Q39.5938 47.1719 37.8125 47.5781
Q36.0312 48 33.8906 48
Q26.2656 48 22.1875 43.0469
Q18.1094 38.0938 18.1094 28.8125
L18.1094 0
L9.07812 0
L9.07812 54.6875
L18.1094 54.6875
L18.1094 46.1875
Q20.9531 51.1719 25.4844 53.5781
Q30.0312 56 36.5312 56
Q37.4531 56 38.5781 55.875
Q39.7031 55.7656 41.0625 55.5156
z
" id="BitstreamVeraSans-Roman-72"/>
     <path d="
M18.3125 70.2188
L18.3125 54.6875
L36.8125 54.6875
L36.8125 47.7031
L18.3125 47.7031
L18.3125 18.0156
Q18.3125 11.3281 20.1406 9.42188
Q21.9688 7.51562 27.5938 7.51562
L36.8125 7.51562
L36.8125 0
L27.5938 0
Q17.1875 0 13.2344 3.875
Q9.28125 7.76562 9.28125 18.0156
L9.28125 47.7031
L2.6875 47.7031
L2.6875 54.6875
L9.28125 54.6875
L9.28125 70.2188
z
" id="BitstreamVeraSans-Roman-74"/>
     <path d="
M64.4062 67.2812
L64.4062 56.8906
Q59.4219 61.5312 53.7812 63.8125
Q48.1406 66.1094 41.7969 66.1094
Q29.2969 66.1094 22.6562 58.4688
Q16.0156 50.8281 16.0156 36.375
Q16.0156 21.9688 22.6562 14.3281
Q29.2969 6.6875 41.7969 6.6875
Q48.1406 6.6875 53.7812 8.98438
Q59.4219 11.2812 64.4062 15.9219
L64.4062 5.60938
Q59.2344 2.09375 53.4375 0.328125
Q47.6562 -1.42188 41.2188 -1.42188
Q24.6562 -1.42188 15.125 8.70312
Q5.60938 18.8438 5.60938 36.375
Q5.60938 53.9531 15.125 64.0781
Q24.6562 74.2188 41.2188 74.2188
Q47.75 74.2188 53.5312 72.4844
Q59.3281 70.75 64.4062 67.2812" id="BitstreamVeraSans-Roman-43"/>
    </defs>
    <g transform="translate(196.595821705 56.0420345381)scale(0.096 -0.096)">
     <use xlink:href="#BitstreamVeraSans-Roman-43"/>
     <use x="69.82421875" xlink:href="#BitstreamVeraSans-Roman-65"/>
     <use x="131.34765625" xlink:href="#BitstreamVeraSans-Roman-6e"/>
     <use x="194.7265625" xlink:href="#BitstreamVeraSans-Roman-74"/>
     <use x="233.935546875" xlink:href="#BitstreamVeraSans-Roman-72"/>
     <use x="272.798828125" xlink:href="#BitstreamVeraSans-Roman-65"/>
    </g>
   </g>
   <g id="text_10">
    <!-- South -->
    <defs>
     <path d="
M8.5 21.5781
L8.5 54.6875
L17.4844 54.6875
L17.4844 21.9219
Q17.4844 14.1562 20.5 10.2656
Q23.5312 6.39062 29.5938 6.39062
Q36.8594 6.39062 41.0781 11.0312
Q45.3125 15.6719 45.3125 23.6875
L45.3125 54.6875
L54.2969 54.6875
L54.2969 0
L45.3125 0
L45.3125 8.40625
Q42.0469 3.42188 37.7188 1
Q33.4062 -1.42188 27.6875 -1.42188
Q18.2656 -1.42188 13.375 4.4375
Q8.5 10.2969 8.5 21.5781" id="BitstreamVeraSans-Roman-75"/>
     <path d="
M53.5156 70.5156
L53.5156 60.8906
Q47.9062 63.5781 42.9219 64.8906
Q37.9375 66.2188 33.2969 66.2188
Q25.25 66.2188 20.875 63.0938
Q16.5 59.9688 16.5 54.2031
Q16.5 49.3594 19.4062 46.8906
Q22.3125 44.4375 30.4219 42.9219
L36.375 41.7031
Q47.4062 39.5938 52.6562 34.2969
Q57.9062 29 57.9062 20.125
Q57.9062 9.51562 50.7969 4.04688
Q43.7031 -1.42188 29.9844 -1.42188
Q24.8125 -1.42188 18.9688 -0.25
Q13.1406 0.921875 6.89062 3.21875
L6.89062 13.375
Q12.8906 10.0156 18.6562 8.29688
Q24.4219 6.59375 29.9844 6.59375
Q38.4219 6.59375 43.0156 9.90625
Q47.6094 13.2344 47.6094 19.3906
Q47.6094 24.75 44.3125 27.7812
Q41.0156 30.8125 33.5 32.3281
L27.4844 33.5
Q16.4531 35.6875 11.5156 40.375
Q6.59375 45.0625 6.59375 53.4219
Q6.59375 63.0938 13.4062 68.6562
Q20.2188 74.2188 32.1719 74.2188
Q37.3125 74.2188 42.625 73.2812
Q47.9531 72.3594 53.5156 70.5156" id="BitstreamVeraSans-Roman-53"/>
     <path d="
M54.8906 33.0156
L54.8906 0
L45.9062 0
L45.9062 32.7188
Q45.9062 40.4844 42.875 44.3281
Q39.8438 48.1875 33.7969 48.1875
Q26.5156 48.1875 22.3125 43.5469
Q18.1094 38.9219 18.1094 30.9062
L18.1094 0
L9.07812 0
L9.07812 75.9844
L18.1094 75.9844
L18.1094 46.1875
Q21.3438 51.125 25.7031 53.5625
Q30.0781 56 35.7969 56
Q45.2188 56 50.0469 50.1719
Q54.8906 44.3438 54.8906 33.0156" id="BitstreamVeraSans-Roman-68"/>
     <path d="
M30.6094 48.3906
Q23.3906 48.3906 19.1875 42.75
Q14.9844 37.1094 14.9844 27.2969
Q14.9844 17.4844 19.1562 11.8438
Q23.3438 6.20312 30.6094 6.20312
Q37.7969 6.20312 41.9844 11.8594
Q46.1875 17.5312 46.1875 27.2969
Q46.1875 37.0156 41.9844 42.7031
Q37.7969 48.3906 30.6094 48.3906
M30.6094 56
Q42.3281 56 49.0156 48.375
Q55.7188 40.7656 55.7188 27.2969
Q55.7188 13.875 49.0156 6.21875
Q42.3281 -1.42188 30.6094 -1.42188
Q18.8438 -1.42188 12.1719 6.21875
Q5.51562 13.875 5.51562 27.2969
Q5.51562 40.7656 12.1719 48.375
Q18.8438 56 30.6094 56" id="BitstreamVeraSans-Roman-6f"/>
    </defs>
    <g transform="translate(140.754370389 170.402661604)scale(0.096 -0.096)">
     <use xlink:href="#BitstreamVeraSans-Roman-53"/>
     <use x="63.4765625" xlink:href="#BitstreamVeraSans-Roman-6f"/>
     <use x="124.658203125" xlink:href="#BitstreamVeraSans-Roman-75"/>
     <use x="188.037109375" xlink:href="#BitstreamVeraSans-Roman-74"/>
     <use x="227.24609375" xlink:href="#BitstreamVeraSans-Roman-68"/>
    </g>
   </g>
  </g>
  <g id="axes_2">
   <g id="patch_9">
    <path clip-path="url(#p75ce05482d)" d="
M326.68 61.3118
C319.905 65.6623 314.427 71.7603 310.824 78.9612
C307.221 86.1621 305.626 94.2029 306.207 102.234
C301.094 106.389 297.317 111.962 295.351 118.251
C293.385 124.54 293.316 131.271 295.152 137.599
C289.989 135.638 285.273 132.66 281.282 128.844
C277.291 125.028 274.105 120.449 271.915 115.38
C269.724 110.311 268.573 104.853 268.529 99.3313
C268.485 93.8093 269.549 88.3342 271.658 83.2307
C273.767 78.1272 276.879 73.4983 280.809 69.6187
C284.739 65.739 289.407 62.6868 294.537 60.6432
C299.667 58.5995 305.155 57.6056 310.676 57.7205
C316.197 57.8353 321.64 59.0566 326.68 61.3118" style="fill:#ff0000;opacity:0.4;"/>
   </g>
   <g id="patch_10">
    <path clip-path="url(#p75ce05482d)" d="
M357.312 143.329
C360.513 136.966 361.605 129.746 360.43 122.722
C359.254 115.697 355.871 109.226 350.773 104.253
C351.9 95.4585 350.166 86.5306 345.827 78.7982
C341.489 71.0659 334.773 64.9327 326.68 61.3118
C332.307 57.6987 338.672 55.3911 345.307 54.5589
C351.943 53.7267 358.681 54.3909 365.025 56.5025
C371.37 58.6141 377.163 62.1201 381.976 66.7623
C386.789 71.4045 390.502 77.0662 392.842 83.3306
C395.181 89.595 396.088 96.3046 395.497 102.965
C394.905 109.626 392.829 116.071 389.422 121.825
C386.014 127.578 381.361 132.497 375.805 136.218
C370.249 139.939 363.929 142.369 357.312 143.329" style="fill:#008000;opacity:0.4;"/>
   </g>
   <g id="patch_11">
    <path clip-path="url(#p75ce05482d)" d="
M326.68 61.3118
C319.905 65.6623 314.427 71.7603 310.824 78.9612
C307.221 86.1621 305.626 94.2029 306.207 102.234
C312.589 97.0474 320.66 94.3853 328.874 94.7575
C337.089 95.1297 344.886 98.5107 350.773 104.253
C351.9 95.4585 350.166 86.5306 345.827 78.7982
C341.489 71.0659 334.773 64.9327 326.68 61.3118" style="fill:#b25900;opacity:0.4;"/>
   </g>
   <g id="patch_12">
    <path clip-path="url(#p75ce05482d)" d="
M295.152 137.599
C300.21 139.521 305.597 140.43 311.006 140.275
C316.415 140.119 321.741 138.901 326.68 136.691
C331.183 139.583 336.167 141.644 341.396 142.777
C346.626 143.91 352.016 144.097 357.312 143.329
C354.284 149.346 349.511 154.314 343.62 157.582
C337.729 160.849 330.987 162.266 324.279 161.648
C317.571 161.029 311.202 158.404 306.007 154.115
C300.812 149.826 297.028 144.069 295.152 137.599" style="fill:#0000ff;opacity:0.4;"/>
   </g>
   <g id="patch_13">
    <path clip-path="url(#p75ce05482d)" d="
M295.152 137.599
C300.21 139.521 305.597 140.43 311.006 140.275
C316.415 140.119 321.741 138.901 326.68 136.691
C320.826 132.933 315.928 127.861 312.375 121.88
C308.821 115.9 306.709 109.172 306.207 102.234
C301.094 106.389 297.317 111.962 295.351 118.251
C293.385 124.54 293.316 131.271 295.152 137.599" style="fill:#b200b2;opacity:0.4;"/>
   </g>
   <g id="patch_14">
    <path clip-path="url(#p75ce05482d)" d="
M357.312 143.329
C360.513 136.966 361.605 129.746 360.43 122.722
C359.254 115.697 355.871 109.226 350.773 104.253
C349.873 111.27 347.184 117.941 342.966 123.621
C338.747 129.301 333.139 133.802 326.68 136.691
C331.183 139.583 336.167 141.644 341.396 142.777
C346.626 143.91 352.016 144.097 357.312 143.329" style="fill:#0059b2;opacity:0.4;"/>
   </g>
   <g id="patch_15">
    <path clip-path="url(#p75ce05482d)" d="
M326.68 136.691
C333.139 133.802 338.747 129.301 342.966 123.621
C347.184 117.941 349.873 111.27 350.773 104.253
C344.886 98.5107 337.089 95.1297 328.874 94.7575
C320.66 94.3853 312.589 97.0474 306.207 102.234
C306.709 109.172 308.821 115.9 312.375 121.88
C315.928 127.861 320.826 132.933 326.68 136.691" style="fill:#663366;opacity:0.4;"/>
   </g>
   <g id="text_11">
    <!-- 752721 -->
    <g transform="translate(275.96165429 91.8377065952)scale(0.08 -0.08)">
     <use xlink:href="#BitstreamVeraSans-Roman-37"/>
     <use x="63.623046875" xlink:href="#BitstreamVeraSans-Roman-35"/>
     <use x="127.24609375" xlink:href="#BitstreamVeraSans-Roman-32"/>
     <use x="190.869140625" xlink:href="#BitstreamVeraSans-Roman-37"/>
     <use x="254.4921875" xlink:href="#BitstreamVeraSans-Roman-32"/>
     <use x="318.115234375" xlink:href="#BitstreamVeraSans-Roman-31"/>
    </g>
   </g>
   <g id="text_12">
    <!-- 1008715 -->
    <g transform="translate(354.057226842 94.2831711206)scale(0.08 -0.08)">
     <use xlink:href="#BitstreamVeraSans-Roman-31"/>
     <use x="63.623046875" xlink:href="#BitstreamVeraSans-Roman-30"/>
     <use x="127.24609375" xlink:href="#BitstreamVeraSans-Roman-30"/>
     <use x="190.869140625" xlink:href="#BitstreamVeraSans-Roman-38"/>
     <use x="254.4921875" xlink:href="#BitstreamVeraSans-Roman-37"/>
     <use x="318.115234375" xlink:href="#BitstreamVeraSans-Roman-31"/>
     <use x="381.73828125" xlink:href="#BitstreamVeraSans-Roman-35"/>
    </g>
   </g>
   <g id="text_13">
    <!-- 215249 -->
    <g transform="translate(312.153460694 80.2258095413)scale(0.08 -0.08)">
     <use xlink:href="#BitstreamVeraSans-Roman-32"/>
     <use x="63.623046875" xlink:href="#BitstreamVeraSans-Roman-31"/>
     <use x="127.24609375" xlink:href="#BitstreamVeraSans-Roman-35"/>
     <use x="190.869140625" xlink:href="#BitstreamVeraSans-Roman-32"/>
     <use x="254.4921875" xlink:href="#BitstreamVeraSans-Roman-34"/>
     <use x="318.115234375" xlink:href="#BitstreamVeraSans-Roman-39"/>
    </g>
   </g>
   <g id="text_14">
    <!-- 373497 -->
    <g transform="translate(312.057149175 151.444451164)scale(0.08 -0.08)">
     <use xlink:href="#BitstreamVeraSans-Roman-33"/>
     <use x="63.623046875" xlink:href="#BitstreamVeraSans-Roman-37"/>
     <use x="127.24609375" xlink:href="#BitstreamVeraSans-Roman-33"/>
     <use x="190.869140625" xlink:href="#BitstreamVeraSans-Roman-34"/>
     <use x="254.4921875" xlink:href="#BitstreamVeraSans-Roman-39"/>
     <use x="318.115234375" xlink:href="#BitstreamVeraSans-Roman-37"/>
    </g>
   </g>
   <g id="text_15">
    <!-- 72275 -->
    <g transform="translate(292.558013372 133.259036263)scale(0.08 -0.08)">
     <use xlink:href="#BitstreamVeraSans-Roman-37"/>
     <use x="63.623046875" xlink:href="#BitstreamVeraSans-Roman-32"/>
     <use x="127.24609375" xlink:href="#BitstreamVeraSans-Roman-32"/>
     <use x="190.869140625" xlink:href="#BitstreamVeraSans-Roman-37"/>
     <use x="254.4921875" xlink:href="#BitstreamVeraSans-Roman-35"/>
    </g>
   </g>
   <g id="text_16">
    <!-- 82239 -->
    <g transform="translate(336.484873959 137.458972695)scale(0.08 -0.08)">
     <use xlink:href="#BitstreamVeraSans-Roman-38"/>
     <use x="63.623046875" xlink:href="#BitstreamVeraSans-Roman-32"/>
     <use x="127.24609375" xlink:href="#BitstreamVeraSans-Roman-32"/>
     <use x="190.869140625" xlink:href="#BitstreamVeraSans-Roman-33"/>
     <use x="254.4921875" xlink:href="#BitstreamVeraSans-Roman-39"/>
    </g>
   </g>
   <g id="text_17">
    <!-- 464384 -->
    <g transform="translate(313.03671968 116.600115909)scale(0.08 -0.08)">
     <use xlink:href="#BitstreamVeraSans-Roman-34"/>
     <use x="63.623046875" xlink:href="#BitstreamVeraSans-Roman-36"/>
     <use x="127.24609375" xlink:href="#BitstreamVeraSans-Roman-34"/>
     <use x="190.869140625" xlink:href="#BitstreamVeraSans-Roman-33"/>
     <use x="254.4921875" xlink:href="#BitstreamVeraSans-Roman-38"/>
     <use x="318.115234375" xlink:href="#BitstreamVeraSans-Roman-34"/>
    </g>
   </g>
   <g id="text_18">
    <!-- North -->
    <defs>
     <path d="
M9.8125 72.9062
L23.0938 72.9062
L55.4219 11.9219
L55.4219 72.9062
L64.9844 72.9062
L64.9844 0
L51.7031 0
L19.3906 60.9844
L19.3906 0
L9.8125 0
z
" id="BitstreamVeraSans-Roman-4e"/>
    </defs>
    <g transform="translate(264.079160744 57.7115401857)scale(0.096 -0.096)">
     <use xlink:href="#BitstreamVeraSans-Roman-4e"/>
     <use x="74.8046875" xlink:href="#BitstreamVeraSans-Roman-6f"/>
     <use x="135.986328125" xlink:href="#BitstreamVeraSans-Roman-72"/>
     <use x="177.099609375" xlink:href="#BitstreamVeraSans-Roman-74"/>
     <use x="216.30859375" xlink:href="#BitstreamVeraSans-Roman-68"/>
    </g>
   </g>
   <g id="text_19">
    <!-- Admixed -->
    <g transform="translate(373.276936693 54.2107350581)scale(0.096 -0.096)">
     <use xlink:href="#BitstreamVeraSans-Roman-41"/>
     <use x="66.658203125" xlink:href="#BitstreamVeraSans-Roman-64"/>
     <use x="130.134765625" xlink:href="#BitstreamVeraSans-Roman-6d"/>
     <use x="227.546875" xlink:href="#BitstreamVeraSans-Roman-69"/>
     <use x="255.330078125" xlink:href="#BitstreamVeraSans-Roman-78"/>
     <use x="311.384765625" xlink:href="#BitstreamVeraSans-Roman-65"/>
     <use x="372.908203125" xlink:href="#BitstreamVeraSans-Roman-64"/>
    </g>
   </g>
   <g id="text_20">
    <!-- South -->
    <g transform="translate(314.130465516 172.437071665)scale(0.096 -0.096)">
     <use xlink:href="#BitstreamVeraSans-Roman-53"/>
     <use x="63.4765625" xlink:href="#BitstreamVeraSans-Roman-6f"/>
     <use x="124.658203125" xlink:href="#BitstreamVeraSans-Roman-75"/>
     <use x="188.037109375" xlink:href="#BitstreamVeraSans-Roman-74"/>
     <use x="227.24609375" xlink:href="#BitstreamVeraSans-Roman-68"/>
    </g>
   </g>
  </g>
  <g id="axes_3">
   <g id="patch_16">
    <path clip-path="url(#p62dc3c3764)" d="
M501.014 53.1824
C495.038 57.2518 490.116 62.6873 486.659 69.0371
C483.201 75.387 481.306 82.4703 481.13 89.6984
C475.543 93.0642 470.781 97.6403 467.196 103.089
C463.61 108.538 461.292 114.722 460.411 121.184
C453.28 114.996 448.55 106.491 447.056 97.1682
C445.562 87.8455 447.397 78.288 452.238 70.1815
C457.078 62.0749 464.621 55.9257 473.537 52.8185
C482.452 49.7113 492.184 49.8402 501.014 53.1824" style="fill:#ff0000;opacity:0.4;"/>
   </g>
   <g id="patch_17">
    <path clip-path="url(#p62dc3c3764)" d="
M547.061 131.474
C547.878 123.412 546.433 115.28 542.889 107.993
C539.346 100.705 533.841 94.5473 526.995 90.2116
C526.877 82.1469 524.335 74.3013 519.703 67.6989
C515.07 61.0965 508.557 56.0375 501.014 53.1824
C506.164 49.6758 511.979 47.2637 518.099 46.0958
C524.219 44.9279 530.514 45.029 536.593 46.3926
C542.672 47.7563 548.407 50.3538 553.441 54.0238
C558.476 57.6938 562.704 62.3588 565.862 67.7291
C569.021 73.0993 571.043 79.0614 571.804 85.245
C572.565 91.4286 572.048 97.7031 570.285 103.679
C568.523 109.655 565.552 115.205 561.557 119.986
C557.562 124.767 552.628 128.677 547.061 131.474" style="fill:#008000;opacity:0.4;"/>
   </g>
   <g id="patch_18">
    <path clip-path="url(#p62dc3c3764)" d="
M501.014 53.1824
C495.038 57.2518 490.116 62.6873 486.659 69.0371
C483.201 75.387 481.306 82.4703 481.13 89.6984
C488.069 85.5183 496.036 83.3518 504.136 83.4424
C512.235 83.5331 520.152 85.8774 526.995 90.2116
C526.877 82.1469 524.335 74.3013 519.703 67.6989
C515.07 61.0965 508.557 56.0375 501.014 53.1824" style="fill:#b25900;opacity:0.4;"/>
   </g>
   <g id="patch_19">
    <path clip-path="url(#p62dc3c3764)" d="
M460.411 121.184
C465.895 125.943 472.566 129.129 479.714 130.404
C486.862 131.678 494.223 130.994 501.014 128.423
C507.72 132.99 515.527 135.681 523.622 136.217
C531.717 136.754 539.811 135.116 547.061 131.474
C546.477 137.238 544.751 142.828 541.984 147.918
C539.216 153.008 535.463 157.496 530.943 161.12
C526.423 164.744 521.226 167.432 515.656 169.026
C510.087 170.62 504.255 171.09 498.502 170.407
C492.749 169.723 487.189 167.901 482.148 165.047
C477.106 162.192 472.684 158.362 469.138 153.781
C465.592 149.199 462.994 143.956 461.496 138.36
C459.998 132.764 459.629 126.925 460.411 121.184" style="fill:#0000ff;opacity:0.4;"/>
   </g>
   <g id="patch_20">
    <path clip-path="url(#p62dc3c3764)" d="
M460.411 121.184
C465.895 125.943 472.566 129.129 479.714 130.404
C486.862 131.678 494.223 130.994 501.014 128.423
C494.729 124.144 489.615 118.357 486.142 111.592
C482.669 104.828 480.946 97.3 481.13 89.6984
C475.543 93.0642 470.781 97.6403 467.196 103.089
C463.61 108.538 461.292 114.722 460.411 121.184" style="fill:#b200b2;opacity:0.4;"/>
   </g>
   <g id="patch_21">
    <path clip-path="url(#p62dc3c3764)" d="
M547.061 131.474
C547.878 123.412 546.433 115.28 542.889 107.993
C539.346 100.705 533.841 94.5473 526.995 90.2116
C527.117 98.4778 524.687 106.584 520.039 113.42
C515.391 120.257 508.746 125.497 501.014 128.423
C507.72 132.99 515.527 135.681 523.622 136.217
C531.717 136.754 539.811 135.116 547.061 131.474" style="fill:#0059b2;opacity:0.4;"/>
   </g>
   <g id="patch_22">
    <path clip-path="url(#p62dc3c3764)" d="
M501.014 128.423
C508.746 125.497 515.391 120.257 520.039 113.42
C524.687 106.584 527.117 98.4778 526.995 90.2116
C520.152 85.8774 512.235 83.5331 504.136 83.4424
C496.036 83.3518 488.069 85.5183 481.13 89.6984
C480.946 97.3 482.669 104.828 486.142 111.592
C489.615 118.357 494.729 124.144 501.014 128.423" style="fill:#663366;opacity:0.4;"/>
   </g>
   <g id="text_21">
    <!-- 680439 -->
    <g transform="translate(451.717885614 82.5897361359)scale(0.08 -0.08)">
     <use xlink:href="#BitstreamVeraSans-Roman-36"/>
     <use x="63.623046875" xlink:href="#BitstreamVeraSans-Roman-38"/>
     <use x="127.24609375" xlink:href="#BitstreamVeraSans-Roman-30"/>
     <use x="190.869140625" xlink:href="#BitstreamVeraSans-Roman-34"/>
     <use x="254.4921875" xlink:href="#BitstreamVeraSans-Roman-33"/>
     <use x="318.115234375" xlink:href="#BitstreamVeraSans-Roman-39"/>
    </g>
   </g>
   <g id="text_22">
    <!-- 1022144 -->
    <g transform="translate(530.214273518 82.9436039753)scale(0.08 -0.08)">
     <use xlink:href="#BitstreamVeraSans-Roman-31"/>
     <use x="63.623046875" xlink:href="#BitstreamVeraSans-Roman-30"/>
     <use x="127.24609375" xlink:href="#BitstreamVeraSans-Roman-32"/>
     <use x="190.869140625" xlink:href="#BitstreamVeraSans-Roman-32"/>
     <use x="254.4921875" xlink:href="#BitstreamVeraSans-Roman-31"/>
     <use x="318.115234375" xlink:href="#BitstreamVeraSans-Roman-34"/>
     <use x="381.73828125" xlink:href="#BitstreamVeraSans-Roman-34"/>
    </g>
   </g>
   <g id="text_23">
    <!-- 144557 -->
    <g transform="translate(487.064846779 70.5323965724)scale(0.08 -0.08)">
     <use xlink:href="#BitstreamVeraSans-Roman-31"/>
     <use x="63.623046875" xlink:href="#BitstreamVeraSans-Roman-34"/>
     <use x="127.24609375" xlink:href="#BitstreamVeraSans-Roman-34"/>
     <use x="190.869140625" xlink:href="#BitstreamVeraSans-Roman-35"/>
     <use x="254.4921875" xlink:href="#BitstreamVeraSans-Roman-35"/>
     <use x="318.115234375" xlink:href="#BitstreamVeraSans-Roman-37"/>
    </g>
   </g>
   <g id="text_24">
    <!-- 918601 -->
    <g transform="translate(486.365184063 151.734978871)scale(0.08 -0.08)">
     <use xlink:href="#BitstreamVeraSans-Roman-39"/>
     <use x="63.623046875" xlink:href="#BitstreamVeraSans-Roman-31"/>
     <use x="127.24609375" xlink:href="#BitstreamVeraSans-Roman-38"/>
     <use x="190.869140625" xlink:href="#BitstreamVeraSans-Roman-36"/>
     <use x="254.4921875" xlink:href="#BitstreamVeraSans-Roman-30"/>
     <use x="318.115234375" xlink:href="#BitstreamVeraSans-Roman-31"/>
    </g>
   </g>
   <g id="text_25">
    <!-- 92389 -->
    <g transform="translate(460.645136966 117.690926305)scale(0.08 -0.08)">
     <use xlink:href="#BitstreamVeraSans-Roman-39"/>
     <use x="63.623046875" xlink:href="#BitstreamVeraSans-Roman-32"/>
     <use x="127.24609375" xlink:href="#BitstreamVeraSans-Roman-33"/>
     <use x="190.869140625" xlink:href="#BitstreamVeraSans-Roman-38"/>
     <use x="254.4921875" xlink:href="#BitstreamVeraSans-Roman-39"/>
    </g>
   </g>
   <g id="text_26">
    <!-- 172353 -->
    <g transform="translate(519.080854902 124.594165932)scale(0.08 -0.08)">
     <use xlink:href="#BitstreamVeraSans-Roman-31"/>
     <use x="63.623046875" xlink:href="#BitstreamVeraSans-Roman-37"/>
     <use x="127.24609375" xlink:href="#BitstreamVeraSans-Roman-32"/>
     <use x="190.869140625" xlink:href="#BitstreamVeraSans-Roman-33"/>
     <use x="254.4921875" xlink:href="#BitstreamVeraSans-Roman-35"/>
     <use x="318.115234375" xlink:href="#BitstreamVeraSans-Roman-33"/>
    </g>
   </g>
   <g id="text_27">
    <!-- 587244 -->
    <g transform="translate(488.309617981 104.985310082)scale(0.08 -0.08)">
     <use xlink:href="#BitstreamVeraSans-Roman-35"/>
     <use x="63.623046875" xlink:href="#BitstreamVeraSans-Roman-38"/>
     <use x="127.24609375" xlink:href="#BitstreamVeraSans-Roman-37"/>
     <use x="190.869140625" xlink:href="#BitstreamVeraSans-Roman-32"/>
     <use x="254.4921875" xlink:href="#BitstreamVeraSans-Roman-34"/>
     <use x="318.115234375" xlink:href="#BitstreamVeraSans-Roman-34"/>
    </g>
   </g>
   <g id="text_28">
    <!-- North -->
    <g transform="translate(441.56861606 50.5778180508)scale(0.096 -0.096)">
     <use xlink:href="#BitstreamVeraSans-Roman-4e"/>
     <use x="74.8046875" xlink:href="#BitstreamVeraSans-Roman-6f"/>
     <use x="135.986328125" xlink:href="#BitstreamVeraSans-Roman-72"/>
     <use x="177.099609375" xlink:href="#BitstreamVeraSans-Roman-74"/>
     <use x="216.30859375" xlink:href="#BitstreamVeraSans-Roman-68"/>
    </g>
   </g>
   <g id="text_29">
    <!-- Centre -->
    <g transform="translate(549.387593721 45.2890023188)scale(0.096 -0.096)">
     <use xlink:href="#BitstreamVeraSans-Roman-43"/>
     <use x="69.82421875" xlink:href="#BitstreamVeraSans-Roman-65"/>
     <use x="131.34765625" xlink:href="#BitstreamVeraSans-Roman-6e"/>
     <use x="194.7265625" xlink:href="#BitstreamVeraSans-Roman-74"/>
     <use x="233.935546875" xlink:href="#BitstreamVeraSans-Roman-72"/>
     <use x="272.798828125" xlink:href="#BitstreamVeraSans-Roman-65"/>
    </g>
   </g>
   <g id="text_30">
    <!-- Admixed -->
    <g transform="translate(483.173902697 182.369062669)scale(0.096 -0.096)">
     <use xlink:href="#BitstreamVeraSans-Roman-41"/>
     <use x="66.658203125" xlink:href="#BitstreamVeraSans-Roman-64"/>
     <use x="130.134765625" xlink:href="#BitstreamVeraSans-Roman-6d"/>
     <use x="227.546875" xlink:href="#BitstreamVeraSans-Roman-69"/>
     <use x="255.330078125" xlink:href="#BitstreamVeraSans-Roman-78"/>
     <use x="311.384765625" xlink:href="#BitstreamVeraSans-Roman-65"/>
     <use x="372.908203125" xlink:href="#BitstreamVeraSans-Roman-64"/>
    </g>
   </g>
  </g>
 </g>
 <defs>
  <clipPath id="pf14aa1eba4">
   <rect height="124.246914502" width="147.705882353" x="81.0" y="45.8765427489"/>
  </clipPath>
  <clipPath id="p62dc3c3764">
   <rect height="147.532855652" width="147.705882353" x="435.494117647" y="34.233572174"/>
  </clipPath>
  <clipPath id="p75ce05482d">
   <rect height="128.139655089" width="147.705882353" x="258.247058824" y="43.9301724553"/>
  </clipPath>
 </defs>
</svg>
