<?xml version="1.0" encoding="utf-8" standalone="no"?>
<!DOCTYPE svg PUBLIC "-//W3C//DTD SVG 1.1//EN"
  "http://www.w3.org/Graphics/SVG/1.1/DTD/svg11.dtd">
<!-- Created with matplotlib (http://matplotlib.org/) -->
<svg height="216pt" version="1.1" viewBox="0 0 648 216" width="648pt" xmlns="http://www.w3.org/2000/svg" xmlns:xlink="http://www.w3.org/1999/xlink">
 <defs>
  <style type="text/css">
*{stroke-linecap:butt;stroke-linejoin:round;}
  </style>
 </defs>
 <g id="figure_1">
  <g id="patch_1">
   <path d="
M0 216
L648 216
L648 0
L0 0
z
" style="fill:#ffffff;"/>
  </g>
  <g id="axes_1">
   <g id="patch_2">
    <path clip-path="url(#paae811c157)" d="
M155.357 54.2869
C143.342 57.2357 132.814 64.484 125.771 74.6548
C118.728 84.8256 115.648 97.2313 117.115 109.515
C115.002 117.247 115.112 125.421 117.433 133.093
C119.754 140.765 124.193 147.629 130.238 152.893
C123.725 151.28 117.594 148.395 112.201 144.403
C106.807 140.411 102.256 135.392 98.8104 129.634
C95.3646 123.877 93.0915 117.494 92.1224 110.854
C91.1533 104.215 91.5072 97.4486 93.1636 90.9463
C94.8199 84.444 97.7464 78.3331 101.774 72.9664
C105.802 67.5996 110.851 63.0822 116.632 59.675
C122.412 56.2677 128.81 54.0374 135.456 53.1127
C142.102 52.188 148.866 52.5871 155.357 54.2869" style="fill:#ff0000;opacity:0.4;"/>
   </g>
   <g id="patch_3">
    <path clip-path="url(#paae811c157)" d="
M190.438 148.666
C196.733 141.402 200.39 132.217 200.811 122.614
C201.231 113.01 198.39 103.541 192.753 95.7552
C191.241 85.9509 186.895 76.7994 180.252 69.4325
C173.608 62.0655 164.953 56.7999 155.357 54.2869
C167.428 51.3243 180.176 52.9032 191.159 58.721
C202.143 64.5388 210.611 74.1984 214.941 85.8486
C219.272 97.4988 219.169 110.344 214.652 121.924
C210.135 133.503 201.513 143.025 190.438 148.666" style="fill:#008000;opacity:0.4;"/>
   </g>
   <g id="patch_4">
    <path clip-path="url(#paae811c157)" d="
M155.357 54.2869
C143.342 57.2357 132.814 64.484 125.771 74.6548
C118.728 84.8256 115.648 97.2313 117.115 109.515
C119.233 101.762 123.502 94.7642 129.427 89.3329
C135.351 83.9017 142.693 80.2553 150.601 78.8168
C158.508 77.3783 166.664 78.2054 174.121 81.2022
C181.579 84.199 188.039 89.245 192.753 95.7552
C191.241 85.9509 186.895 76.7994 180.252 69.4325
C173.608 62.0655 164.953 56.7999 155.357 54.2869" style="fill:#b25900;opacity:0.4;"/>
   </g>
   <g id="patch_5">
    <path clip-path="url(#paae811c157)" d="
M130.238 152.893
C134.35 153.911 138.572 154.412 142.808 154.384
C147.044 154.355 151.259 153.798 155.357 152.725
C161.211 154.162 167.274 154.543 173.262 153.85
C179.25 153.157 185.066 151.402 190.438 148.666
C186.766 152.902 182.295 156.372 177.281 158.878
C172.266 161.384 166.806 162.875 161.215 163.268
C155.623 163.661 150.008 162.946 144.693 161.166
C139.377 159.386 134.465 156.574 130.238 152.893" style="fill:#0000ff;opacity:0.4;"/>
   </g>
   <g id="patch_6">
    <path clip-path="url(#paae811c157)" d="
M130.238 152.893
C134.35 153.911 138.572 154.412 142.808 154.384
C147.044 154.355 151.259 153.798 155.357 152.725
C145.345 150.268 136.318 144.814 129.486 137.094
C122.654 129.374 118.337 119.751 117.115 109.515
C115.002 117.247 115.112 125.421 117.433 133.093
C119.754 140.765 124.193 147.629 130.238 152.893" style="fill:#b200b2;opacity:0.4;"/>
   </g>
   <g id="patch_7">
    <path clip-path="url(#paae811c157)" d="
M190.438 148.666
C196.733 141.402 200.39 132.217 200.811 122.614
C201.231 113.01 198.39 103.541 192.753 95.7552
C194.67 108.191 191.907 120.907 185.002 131.426
C178.097 141.945 167.529 149.537 155.357 152.725
C161.211 154.162 167.274 154.543 173.262 153.85
C179.25 153.157 185.066 151.402 190.438 148.666" style="fill:#0059b2;opacity:0.4;"/>
   </g>
   <g id="patch_8">
    <path clip-path="url(#paae811c157)" d="
M155.357 152.725
C167.529 149.537 178.097 141.945 185.002 131.426
C191.907 120.907 194.67 108.191 192.753 95.7552
C188.039 89.245 181.579 84.199 174.121 81.2022
C166.664 78.2054 158.508 77.3783 150.601 78.8168
C142.693 80.2553 135.351 83.9017 129.427 89.3329
C123.502 94.7642 119.233 101.762 117.115 109.515
C118.337 119.751 122.654 129.374 129.486 137.094
C136.318 144.814 145.345 150.268 155.357 152.725" style="fill:#663366;opacity:0.4;"/>
   </g>
   <g id="text_1">
    <!-- 1846583 -->
    <defs>
     <path d="
M40.5781 39.3125
Q47.6562 37.7969 51.625 33
Q55.6094 28.2188 55.6094 21.1875
Q55.6094 10.4062 48.1875 4.48438
Q40.7656 -1.42188 27.0938 -1.42188
Q22.5156 -1.42188 17.6562 -0.515625
Q12.7969 0.390625 7.625 2.20312
L7.625 11.7188
Q11.7188 9.32812 16.5938 8.10938
Q21.4844 6.89062 26.8125 6.89062
Q36.0781 6.89062 40.9375 10.5469
Q45.7969 14.2031 45.7969 21.1875
Q45.7969 27.6406 41.2812 31.2656
Q36.7656 34.9062 28.7188 34.9062
L20.2188 34.9062
L20.2188 43.0156
L29.1094 43.0156
Q36.375 43.0156 40.2344 45.9219
Q44.0938 48.8281 44.0938 54.2969
Q44.0938 59.9062 40.1094 62.9062
Q36.1406 65.9219 28.7188 65.9219
Q24.6562 65.9219 20.0156 65.0312
Q15.375 64.1562 9.8125 62.3125
L9.8125 71.0938
Q15.4375 72.6562 20.3438 73.4375
Q25.25 74.2188 29.5938 74.2188
Q40.8281 74.2188 47.3594 69.1094
Q53.9062 64.0156 53.9062 55.3281
Q53.9062 49.2656 50.4375 45.0938
Q46.9688 40.9219 40.5781 39.3125" id="BitstreamVeraSans-Roman-33"/>
     <path d="
M12.4062 8.29688
L28.5156 8.29688
L28.5156 63.9219
L10.9844 60.4062
L10.9844 69.3906
L28.4219 72.9062
L38.2812 72.9062
L38.2812 8.29688
L54.3906 8.29688
L54.3906 0
L12.4062 0
z
" id="BitstreamVeraSans-Roman-31"/>
     <path d="
M33.0156 40.375
Q26.375 40.375 22.4844 35.8281
Q18.6094 31.2969 18.6094 23.3906
Q18.6094 15.5312 22.4844 10.9531
Q26.375 6.39062 33.0156 6.39062
Q39.6562 6.39062 43.5312 10.9531
Q47.4062 15.5312 47.4062 23.3906
Q47.4062 31.2969 43.5312 35.8281
Q39.6562 40.375 33.0156 40.375
M52.5938 71.2969
L52.5938 62.3125
Q48.875 64.0625 45.0938 64.9844
Q41.3125 65.9219 37.5938 65.9219
Q27.8281 65.9219 22.6719 59.3281
Q17.5312 52.7344 16.7969 39.4062
Q19.6719 43.6562 24.0156 45.9219
Q28.375 48.1875 33.5938 48.1875
Q44.5781 48.1875 50.9531 41.5156
Q57.3281 34.8594 57.3281 23.3906
Q57.3281 12.1562 50.6875 5.35938
Q44.0469 -1.42188 33.0156 -1.42188
Q20.3594 -1.42188 13.6719 8.26562
Q6.98438 17.9688 6.98438 36.375
Q6.98438 53.6562 15.1875 63.9375
Q23.3906 74.2188 37.2031 74.2188
Q40.9219 74.2188 44.7031 73.4844
Q48.4844 72.75 52.5938 71.2969" id="BitstreamVeraSans-Roman-36"/>
     <path d="
M37.7969 64.3125
L12.8906 25.3906
L37.7969 25.3906
z

M35.2031 72.9062
L47.6094 72.9062
L47.6094 25.3906
L58.0156 25.3906
L58.0156 17.1875
L47.6094 17.1875
L47.6094 0
L37.7969 0
L37.7969 17.1875
L4.89062 17.1875
L4.89062 26.7031
z
" id="BitstreamVeraSans-Roman-34"/>
     <path d="
M10.7969 72.9062
L49.5156 72.9062
L49.5156 64.5938
L19.8281 64.5938
L19.8281 46.7344
Q21.9688 47.4688 24.1094 47.8281
Q26.2656 48.1875 28.4219 48.1875
Q40.625 48.1875 47.75 41.5
Q54.8906 34.8125 54.8906 23.3906
Q54.8906 11.625 47.5625 5.09375
Q40.2344 -1.42188 26.9062 -1.42188
Q22.3125 -1.42188 17.5469 -0.640625
Q12.7969 0.140625 7.71875 1.70312
L7.71875 11.625
Q12.1094 9.23438 16.7969 8.0625
Q21.4844 6.89062 26.7031 6.89062
Q35.1562 6.89062 40.0781 11.3281
Q45.0156 15.7656 45.0156 23.3906
Q45.0156 31 40.0781 35.4375
Q35.1562 39.8906 26.7031 39.8906
Q22.75 39.8906 18.8125 39.0156
Q14.8906 38.1406 10.7969 36.2812
z
" id="BitstreamVeraSans-Roman-35"/>
     <path d="
M31.7812 34.625
Q24.75 34.625 20.7188 30.8594
Q16.7031 27.0938 16.7031 20.5156
Q16.7031 13.9219 20.7188 10.1562
Q24.75 6.39062 31.7812 6.39062
Q38.8125 6.39062 42.8594 10.1719
Q46.9219 13.9688 46.9219 20.5156
Q46.9219 27.0938 42.8906 30.8594
Q38.875 34.625 31.7812 34.625
M21.9219 38.8125
Q15.5781 40.375 12.0312 44.7188
Q8.5 49.0781 8.5 55.3281
Q8.5 64.0625 14.7188 69.1406
Q20.9531 74.2188 31.7812 74.2188
Q42.6719 74.2188 48.875 69.1406
Q55.0781 64.0625 55.0781 55.3281
Q55.0781 49.0781 51.5312 44.7188
Q48 40.375 41.7031 38.8125
Q48.8281 37.1562 52.7969 32.3125
Q56.7812 27.4844 56.7812 20.5156
Q56.7812 9.90625 50.3125 4.23438
Q43.8438 -1.42188 31.7812 -1.42188
Q19.7344 -1.42188 13.25 4.23438
Q6.78125 9.90625 6.78125 20.5156
Q6.78125 27.4844 10.7812 32.3125
Q14.7969 37.1562 21.9219 38.8125
M18.3125 54.3906
Q18.3125 48.7344 21.8438 45.5625
Q25.3906 42.3906 31.7812 42.3906
Q38.1406 42.3906 41.7188 45.5625
Q45.3125 48.7344 45.3125 54.3906
Q45.3125 60.0625 41.7188 63.2344
Q38.1406 66.4062 31.7812 66.4062
Q25.3906 66.4062 21.8438 63.2344
Q18.3125 60.0625 18.3125 54.3906" id="BitstreamVeraSans-Roman-38"/>
    </defs>
    <g transform="translate(87.5626601343 105.049881404)scale(0.08 -0.08)">
     <use xlink:href="#BitstreamVeraSans-Roman-31"/>
     <use x="63.623046875" xlink:href="#BitstreamVeraSans-Roman-38"/>
     <use x="127.24609375" xlink:href="#BitstreamVeraSans-Roman-34"/>
     <use x="190.869140625" xlink:href="#BitstreamVeraSans-Roman-36"/>
     <use x="254.4921875" xlink:href="#BitstreamVeraSans-Roman-35"/>
     <use x="318.115234375" xlink:href="#BitstreamVeraSans-Roman-38"/>
     <use x="381.73828125" xlink:href="#BitstreamVeraSans-Roman-33"/>
    </g>
   </g>
   <g id="text_2">
    <!-- 1560838 -->
    <defs>
     <path d="
M31.7812 66.4062
Q24.1719 66.4062 20.3281 58.9062
Q16.5 51.4219 16.5 36.375
Q16.5 21.3906 20.3281 13.8906
Q24.1719 6.39062 31.7812 6.39062
Q39.4531 6.39062 43.2812 13.8906
Q47.125 21.3906 47.125 36.375
Q47.125 51.4219 43.2812 58.9062
Q39.4531 66.4062 31.7812 66.4062
M31.7812 74.2188
Q44.0469 74.2188 50.5156 64.5156
Q56.9844 54.8281 56.9844 36.375
Q56.9844 17.9688 50.5156 8.26562
Q44.0469 -1.42188 31.7812 -1.42188
Q19.5312 -1.42188 13.0625 8.26562
Q6.59375 17.9688 6.59375 36.375
Q6.59375 54.8281 13.0625 64.5156
Q19.5312 74.2188 31.7812 74.2188" id="BitstreamVeraSans-Roman-30"/>
    </defs>
    <g transform="translate(185.0528998 89.369225031)scale(0.08 -0.08)">
     <use xlink:href="#BitstreamVeraSans-Roman-31"/>
     <use x="63.623046875" xlink:href="#BitstreamVeraSans-Roman-35"/>
     <use x="127.24609375" xlink:href="#BitstreamVeraSans-Roman-36"/>
     <use x="190.869140625" xlink:href="#BitstreamVeraSans-Roman-30"/>
     <use x="254.4921875" xlink:href="#BitstreamVeraSans-Roman-38"/>
     <use x="318.115234375" xlink:href="#BitstreamVeraSans-Roman-33"/>
     <use x="381.73828125" xlink:href="#BitstreamVeraSans-Roman-38"/>
    </g>
   </g>
   <g id="text_3">
    <!-- 912276 -->
    <defs>
     <path d="
M19.1875 8.29688
L53.6094 8.29688
L53.6094 0
L7.32812 0
L7.32812 8.29688
Q12.9375 14.1094 22.625 23.8906
Q32.3281 33.6875 34.8125 36.5312
Q39.5469 41.8438 41.4219 45.5312
Q43.3125 49.2188 43.3125 52.7812
Q43.3125 58.5938 39.2344 62.25
Q35.1562 65.9219 28.6094 65.9219
Q23.9688 65.9219 18.8125 64.3125
Q13.6719 62.7031 7.8125 59.4219
L7.8125 69.3906
Q13.7656 71.7812 18.9375 73
Q24.125 74.2188 28.4219 74.2188
Q39.75 74.2188 46.4844 68.5469
Q53.2188 62.8906 53.2188 53.4219
Q53.2188 48.9219 51.5312 44.8906
Q49.8594 40.875 45.4062 35.4062
Q44.1875 33.9844 37.6406 27.2188
Q31.1094 20.4531 19.1875 8.29688" id="BitstreamVeraSans-Roman-32"/>
     <path d="
M10.9844 1.51562
L10.9844 10.5
Q14.7031 8.73438 18.5 7.8125
Q22.3125 6.89062 25.9844 6.89062
Q35.75 6.89062 40.8906 13.4531
Q46.0469 20.0156 46.7812 33.4062
Q43.9531 29.2031 39.5938 26.9531
Q35.25 24.7031 29.9844 24.7031
Q19.0469 24.7031 12.6719 31.3125
Q6.29688 37.9375 6.29688 49.4219
Q6.29688 60.6406 12.9375 67.4219
Q19.5781 74.2188 30.6094 74.2188
Q43.2656 74.2188 49.9219 64.5156
Q56.5938 54.8281 56.5938 36.375
Q56.5938 19.1406 48.4062 8.85938
Q40.2344 -1.42188 26.4219 -1.42188
Q22.7031 -1.42188 18.8906 -0.6875
Q15.0938 0.046875 10.9844 1.51562
M30.6094 32.4219
Q37.25 32.4219 41.125 36.9531
Q45.0156 41.5 45.0156 49.4219
Q45.0156 57.2812 41.125 61.8438
Q37.25 66.4062 30.6094 66.4062
Q23.9688 66.4062 20.0938 61.8438
Q16.2188 57.2812 16.2188 49.4219
Q16.2188 41.5 20.0938 36.9531
Q23.9688 32.4219 30.6094 32.4219" id="BitstreamVeraSans-Roman-39"/>
     <path d="
M8.20312 72.9062
L55.0781 72.9062
L55.0781 68.7031
L28.6094 0
L18.3125 0
L43.2188 64.5938
L8.20312 64.5938
z
" id="BitstreamVeraSans-Roman-37"/>
    </defs>
    <g transform="translate(141.106620794 68.4351002936)scale(0.08 -0.08)">
     <use xlink:href="#BitstreamVeraSans-Roman-39"/>
     <use x="63.623046875" xlink:href="#BitstreamVeraSans-Roman-31"/>
     <use x="127.24609375" xlink:href="#BitstreamVeraSans-Roman-32"/>
     <use x="190.869140625" xlink:href="#BitstreamVeraSans-Roman-32"/>
     <use x="254.4921875" xlink:href="#BitstreamVeraSans-Roman-37"/>
     <use x="318.115234375" xlink:href="#BitstreamVeraSans-Roman-36"/>
    </g>
   </g>
   <g id="text_4">
    <!-- 472114 -->
    <g transform="translate(140.506825258 160.207988548)scale(0.08 -0.08)">
     <use xlink:href="#BitstreamVeraSans-Roman-34"/>
     <use x="63.623046875" xlink:href="#BitstreamVeraSans-Roman-37"/>
     <use x="127.24609375" xlink:href="#BitstreamVeraSans-Roman-32"/>
     <use x="190.869140625" xlink:href="#BitstreamVeraSans-Roman-31"/>
     <use x="254.4921875" xlink:href="#BitstreamVeraSans-Roman-31"/>
     <use x="318.115234375" xlink:href="#BitstreamVeraSans-Roman-34"/>
    </g>
   </g>
   <g id="text_5">
    <!-- 147824 -->
    <g transform="translate(118.985630092 150.647685448)scale(0.08 -0.08)">
     <use xlink:href="#BitstreamVeraSans-Roman-31"/>
     <use x="63.623046875" xlink:href="#BitstreamVeraSans-Roman-34"/>
     <use x="127.24609375" xlink:href="#BitstreamVeraSans-Roman-37"/>
     <use x="190.869140625" xlink:href="#BitstreamVeraSans-Roman-38"/>
     <use x="254.4921875" xlink:href="#BitstreamVeraSans-Roman-32"/>
     <use x="318.115234375" xlink:href="#BitstreamVeraSans-Roman-34"/>
    </g>
   </g>
   <g id="text_6">
    <!-- 383783 -->
    <g transform="translate(170.330939769 145.731189378)scale(0.08 -0.08)">
     <use xlink:href="#BitstreamVeraSans-Roman-33"/>
     <use x="63.623046875" xlink:href="#BitstreamVeraSans-Roman-38"/>
     <use x="127.24609375" xlink:href="#BitstreamVeraSans-Roman-33"/>
     <use x="190.869140625" xlink:href="#BitstreamVeraSans-Roman-37"/>
     <use x="254.4921875" xlink:href="#BitstreamVeraSans-Roman-38"/>
     <use x="318.115234375" xlink:href="#BitstreamVeraSans-Roman-33"/>
    </g>
   </g>
   <g id="text_7">
    <!-- 3474233 -->
    <g transform="translate(137.88533655 121.539307586)scale(0.08 -0.08)">
     <use xlink:href="#BitstreamVeraSans-Roman-33"/>
     <use x="63.623046875" xlink:href="#BitstreamVeraSans-Roman-34"/>
     <use x="127.24609375" xlink:href="#BitstreamVeraSans-Roman-37"/>
     <use x="190.869140625" xlink:href="#BitstreamVeraSans-Roman-34"/>
     <use x="254.4921875" xlink:href="#BitstreamVeraSans-Roman-32"/>
     <use x="318.115234375" xlink:href="#BitstreamVeraSans-Roman-33"/>
     <use x="381.73828125" xlink:href="#BitstreamVeraSans-Roman-33"/>
    </g>
   </g>
   <g id="text_8">
    <!-- Admixed -->
    <defs>
     <path d="
M34.1875 63.1875
L20.7969 26.9062
L47.6094 26.9062
z

M28.6094 72.9062
L39.7969 72.9062
L67.5781 0
L57.3281 0
L50.6875 18.7031
L17.8281 18.7031
L11.1875 0
L0.78125 0
z
" id="BitstreamVeraSans-Roman-41"/>
     <path d="
M52 44.1875
Q55.375 50.25 60.0625 53.125
Q64.75 56 71.0938 56
Q79.6406 56 84.2812 50.0156
Q88.9219 44.0469 88.9219 33.0156
L88.9219 0
L79.8906 0
L79.8906 32.7188
Q79.8906 40.5781 77.0938 44.375
Q74.3125 48.1875 68.6094 48.1875
Q61.625 48.1875 57.5625 43.5469
Q53.5156 38.9219 53.5156 30.9062
L53.5156 0
L44.4844 0
L44.4844 32.7188
Q44.4844 40.625 41.7031 44.4062
Q38.9219 48.1875 33.1094 48.1875
Q26.2188 48.1875 22.1562 43.5312
Q18.1094 38.875 18.1094 30.9062
L18.1094 0
L9.07812 0
L9.07812 54.6875
L18.1094 54.6875
L18.1094 46.1875
Q21.1875 51.2188 25.4844 53.6094
Q29.7812 56 35.6875 56
Q41.6562 56 45.8281 52.9688
Q50 49.9531 52 44.1875" id="BitstreamVeraSans-Roman-6d"/>
     <path d="
M9.42188 54.6875
L18.4062 54.6875
L18.4062 0
L9.42188 0
z

M9.42188 75.9844
L18.4062 75.9844
L18.4062 64.5938
L9.42188 64.5938
z
" id="BitstreamVeraSans-Roman-69"/>
     <path d="
M54.8906 54.6875
L35.1094 28.0781
L55.9062 0
L45.3125 0
L29.3906 21.4844
L13.4844 0
L2.875 0
L24.125 28.6094
L4.6875 54.6875
L15.2812 54.6875
L29.7812 35.2031
L44.2812 54.6875
z
" id="BitstreamVeraSans-Roman-78"/>
     <path d="
M56.2031 29.5938
L56.2031 25.2031
L14.8906 25.2031
Q15.4844 15.9219 20.4844 11.0625
Q25.4844 6.20312 34.4219 6.20312
Q39.5938 6.20312 44.4531 7.46875
Q49.3125 8.73438 54.1094 11.2812
L54.1094 2.78125
Q49.2656 0.734375 44.1875 -0.34375
Q39.1094 -1.42188 33.8906 -1.42188
Q20.7969 -1.42188 13.1562 6.1875
Q5.51562 13.8125 5.51562 26.8125
Q5.51562 40.2344 12.7656 48.1094
Q20.0156 56 32.3281 56
Q43.3594 56 49.7812 48.8906
Q56.2031 41.7969 56.2031 29.5938
M47.2188 32.2344
Q47.125 39.5938 43.0938 43.9844
Q39.0625 48.3906 32.4219 48.3906
Q24.9062 48.3906 20.3906 44.1406
Q15.875 39.8906 15.1875 32.1719
z
" id="BitstreamVeraSans-Roman-65"/>
     <path d="
M45.4062 46.3906
L45.4062 75.9844
L54.3906 75.9844
L54.3906 0
L45.4062 0
L45.4062 8.20312
Q42.5781 3.32812 38.25 0.953125
Q33.9375 -1.42188 27.875 -1.42188
Q17.9688 -1.42188 11.7344 6.48438
Q5.51562 14.4062 5.51562 27.2969
Q5.51562 40.1875 11.7344 48.0938
Q17.9688 56 27.875 56
Q33.9375 56 38.25 53.625
Q42.5781 51.2656 45.4062 46.3906
M14.7969 27.2969
Q14.7969 17.3906 18.875 11.75
Q22.9531 6.10938 30.0781 6.10938
Q37.2031 6.10938 41.2969 11.75
Q45.4062 17.3906 45.4062 27.2969
Q45.4062 37.2031 41.2969 42.8438
Q37.2031 48.4844 30.0781 48.4844
Q22.9531 48.4844 18.875 42.8438
Q14.7969 37.2031 14.7969 27.2969" id="BitstreamVeraSans-Roman-64"/>
    </defs>
    <g transform="translate(76.0813463766 52.6272186577)scale(0.096 -0.096)">
     <use xlink:href="#BitstreamVeraSans-Roman-41"/>
     <use x="66.658203125" xlink:href="#BitstreamVeraSans-Roman-64"/>
     <use x="130.134765625" xlink:href="#BitstreamVeraSans-Roman-6d"/>
     <use x="227.546875" xlink:href="#BitstreamVeraSans-Roman-69"/>
     <use x="255.330078125" xlink:href="#BitstreamVeraSans-Roman-78"/>
     <use x="311.384765625" xlink:href="#BitstreamVeraSans-Roman-65"/>
     <use x="372.908203125" xlink:href="#BitstreamVeraSans-Roman-64"/>
    </g>
   </g>
   <g id="text_9">
    <!-- Centre -->
    <defs>
     <path d="
M54.8906 33.0156
L54.8906 0
L45.9062 0
L45.9062 32.7188
Q45.9062 40.4844 42.875 44.3281
Q39.8438 48.1875 33.7969 48.1875
Q26.5156 48.1875 22.3125 43.5469
Q18.1094 38.9219 18.1094 30.9062
L18.1094 0
L9.07812 0
L9.07812 54.6875
L18.1094 54.6875
L18.1094 46.1875
Q21.3438 51.125 25.7031 53.5625
Q30.0781 56 35.7969 56
Q45.2188 56 50.0469 50.1719
Q54.8906 44.3438 54.8906 33.0156" id="BitstreamVeraSans-Roman-6e"/>
     <path d="
M41.1094 46.2969
Q39.5938 47.1719 37.8125 47.5781
Q36.0312 48 33.8906 48
Q26.2656 48 22.1875 43.0469
Q18.1094 38.0938 18.1094 28.8125
L18.1094 0
L9.07812 0
L9.07812 54.6875
L18.1094 54.6875
L18.1094 46.1875
Q20.9531 51.1719 25.4844 53.5781
Q30.0312 56 36.5312 56
Q37.4531 56 38.5781 55.875
Q39.7031 55.7656 41.0625 55.5156
z
" id="BitstreamVeraSans-Roman-72"/>
     <path d="
M18.3125 70.2188
L18.3125 54.6875
L36.8125 54.6875
L36.8125 47.7031
L18.3125 47.7031
L18.3125 18.0156
Q18.3125 11.3281 20.1406 9.42188
Q21.9688 7.51562 27.5938 7.51562
L36.8125 7.51562
L36.8125 0
L27.5938 0
Q17.1875 0 13.2344 3.875
Q9.28125 7.76562 9.28125 18.0156
L9.28125 47.7031
L2.6875 47.7031
L2.6875 54.6875
L9.28125 54.6875
L9.28125 70.2188
z
" id="BitstreamVeraSans-Roman-74"/>
     <path d="
M64.4062 67.2812
L64.4062 56.8906
Q59.4219 61.5312 53.7812 63.8125
Q48.1406 66.1094 41.7969 66.1094
Q29.2969 66.1094 22.6562 58.4688
Q16.0156 50.8281 16.0156 36.375
Q16.0156 21.9688 22.6562 14.3281
Q29.2969 6.6875 41.7969 6.6875
Q48.1406 6.6875 53.7812 8.98438
Q59.4219 11.2812 64.4062 15.9219
L64.4062 5.60938
Q59.2344 2.09375 53.4375 0.328125
Q47.6562 -1.42188 41.2188 -1.42188
Q24.6562 -1.42188 15.125 8.70312
Q5.60938 18.8438 5.60938 36.375
Q5.60938 53.9531 15.125 64.0781
Q24.6562 74.2188 41.2188 74.2188
Q47.75 74.2188 53.5312 72.4844
Q59.3281 70.75 64.4062 67.2812" id="BitstreamVeraSans-Roman-43"/>
    </defs>
    <g transform="translate(192.776973529 52.8260937635)scale(0.096 -0.096)">
     <use xlink:href="#BitstreamVeraSans-Roman-43"/>
     <use x="69.82421875" xlink:href="#BitstreamVeraSans-Roman-65"/>
     <use x="131.34765625" xlink:href="#BitstreamVeraSans-Roman-6e"/>
     <use x="194.7265625" xlink:href="#BitstreamVeraSans-Roman-74"/>
     <use x="233.935546875" xlink:href="#BitstreamVeraSans-Roman-72"/>
     <use x="272.798828125" xlink:href="#BitstreamVeraSans-Roman-65"/>
    </g>
   </g>
   <g id="text_10">
    <!-- South -->
    <defs>
     <path d="
M8.5 21.5781
L8.5 54.6875
L17.4844 54.6875
L17.4844 21.9219
Q17.4844 14.1562 20.5 10.2656
Q23.5312 6.39062 29.5938 6.39062
Q36.8594 6.39062 41.0781 11.0312
Q45.3125 15.6719 45.3125 23.6875
L45.3125 54.6875
L54.2969 54.6875
L54.2969 0
L45.3125 0
L45.3125 8.40625
Q42.0469 3.42188 37.7188 1
Q33.4062 -1.42188 27.6875 -1.42188
Q18.2656 -1.42188 13.375 4.4375
Q8.5 10.2969 8.5 21.5781" id="BitstreamVeraSans-Roman-75"/>
     <path d="
M53.5156 70.5156
L53.5156 60.8906
Q47.9062 63.5781 42.9219 64.8906
Q37.9375 66.2188 33.2969 66.2188
Q25.25 66.2188 20.875 63.0938
Q16.5 59.9688 16.5 54.2031
Q16.5 49.3594 19.4062 46.8906
Q22.3125 44.4375 30.4219 42.9219
L36.375 41.7031
Q47.4062 39.5938 52.6562 34.2969
Q57.9062 29 57.9062 20.125
Q57.9062 9.51562 50.7969 4.04688
Q43.7031 -1.42188 29.9844 -1.42188
Q24.8125 -1.42188 18.9688 -0.25
Q13.1406 0.921875 6.89062 3.21875
L6.89062 13.375
Q12.8906 10.0156 18.6562 8.29688
Q24.4219 6.59375 29.9844 6.59375
Q38.4219 6.59375 43.0156 9.90625
Q47.6094 13.2344 47.6094 19.3906
Q47.6094 24.75 44.3125 27.7812
Q41.0156 30.8125 33.5 32.3281
L27.4844 33.5
Q16.4531 35.6875 11.5156 40.375
Q6.59375 45.0625 6.59375 53.4219
Q6.59375 63.0938 13.4062 68.6562
Q20.2188 74.2188 32.1719 74.2188
Q37.3125 74.2188 42.625 73.2812
Q47.9531 72.3594 53.5156 70.5156" id="BitstreamVeraSans-Roman-53"/>
     <path d="
M54.8906 33.0156
L54.8906 0
L45.9062 0
L45.9062 32.7188
Q45.9062 40.4844 42.875 44.3281
Q39.8438 48.1875 33.7969 48.1875
Q26.5156 48.1875 22.3125 43.5469
Q18.1094 38.9219 18.1094 30.9062
L18.1094 0
L9.07812 0
L9.07812 75.9844
L18.1094 75.9844
L18.1094 46.1875
Q21.3438 51.125 25.7031 53.5625
Q30.0781 56 35.7969 56
Q45.2188 56 50.0469 50.1719
Q54.8906 44.3438 54.8906 33.0156" id="BitstreamVeraSans-Roman-68"/>
     <path d="
M30.6094 48.3906
Q23.3906 48.3906 19.1875 42.75
Q14.9844 37.1094 14.9844 27.2969
Q14.9844 17.4844 19.1562 11.8438
Q23.3438 6.20312 30.6094 6.20312
Q37.7969 6.20312 41.9844 11.8594
Q46.1875 17.5312 46.1875 27.2969
Q46.1875 37.0156 41.9844 42.7031
Q37.7969 48.3906 30.6094 48.3906
M30.6094 56
Q42.3281 56 49.0156 48.375
Q55.7188 40.7656 55.7188 27.2969
Q55.7188 13.875 49.0156 6.21875
Q42.3281 -1.42188 30.6094 -1.42188
Q18.8438 -1.42188 12.1719 6.21875
Q5.51562 13.875 5.51562 27.2969
Q5.51562 40.7656 12.1719 48.375
Q18.8438 56 30.6094 56" id="BitstreamVeraSans-Roman-6f"/>
    </defs>
    <g transform="translate(145.002960568 174.929491856)scale(0.096 -0.096)">
     <use xlink:href="#BitstreamVeraSans-Roman-53"/>
     <use x="63.4765625" xlink:href="#BitstreamVeraSans-Roman-6f"/>
     <use x="124.658203125" xlink:href="#BitstreamVeraSans-Roman-75"/>
     <use x="188.037109375" xlink:href="#BitstreamVeraSans-Roman-74"/>
     <use x="227.24609375" xlink:href="#BitstreamVeraSans-Roman-68"/>
    </g>
   </g>
  </g>
  <g id="axes_2">
   <g id="patch_9">
    <path clip-path="url(#pd8fc3d25e8)" d="
M324.542 54.4133
C315.873 57.6733 308.223 63.1767 302.376 70.3593
C296.53 77.5418 292.693 86.1493 291.26 95.2992
C286.28 102.142 283.387 110.283 282.931 118.733
C282.475 127.184 284.475 135.588 288.69 142.927
C279.962 136.393 273.64 127.149 270.715 116.647
C267.79 106.145 268.423 94.9634 272.516 84.8586
C276.609 74.7538 283.935 66.2833 293.344 60.7769
C302.754 55.2705 313.727 53.0322 324.542 54.4133" style="fill:#ff0000;opacity:0.4;"/>
   </g>
   <g id="patch_10">
    <path clip-path="url(#pd8fc3d25e8)" d="
M355.419 154.227
C362.228 148.325 367.056 140.466 369.24 131.724
C371.425 122.981 370.862 113.775 367.628 105.364
C368.12 93.0251 363.966 80.9396 355.992 71.5104
C348.019 62.0812 336.791 55.9776 324.542 54.4133
C331.22 51.9017 338.342 50.7823 345.469 51.1241
C352.597 51.4658 359.579 53.2616 365.987 56.4008
C372.394 59.5399 378.093 63.9566 382.731 69.3787
C387.369 74.8008 390.85 81.1146 392.958 87.9311
C395.067 94.7477 395.76 101.924 394.993 109.018
C394.227 116.112 392.018 122.975 388.502 129.184
C384.986 135.393 380.237 140.818 374.548 145.124
C368.859 149.43 362.349 152.528 355.419 154.227" style="fill:#008000;opacity:0.4;"/>
   </g>
   <g id="patch_11">
    <path clip-path="url(#pd8fc3d25e8)" d="
M324.542 54.4133
C315.873 57.6733 308.223 63.1767 302.376 70.3593
C296.53 77.5418 292.693 86.1493 291.26 95.2992
C295.899 88.9237 302.174 83.9165 309.42 80.8073
C316.666 77.698 324.619 76.6005 332.436 77.6308
C340.253 78.661 347.65 81.7815 353.843 86.6619
C360.036 91.5423 364.799 98.0043 367.628 105.364
C368.12 93.0251 363.966 80.9396 355.992 71.5104
C348.019 62.0812 336.791 55.9776 324.542 54.4133" style="fill:#b25900;opacity:0.4;"/>
   </g>
   <g id="patch_12">
    <path clip-path="url(#pd8fc3d25e8)" d="
M288.69 142.927
C293.776 146.736 299.55 149.527 305.695 151.147
C311.839 152.767 318.238 153.186 324.542 152.381
C329.449 154.227 334.607 155.324 339.841 155.637
C345.075 155.95 350.326 155.475 355.419 154.227
C350.53 158.463 344.764 161.565 338.534 163.311
C332.305 165.056 325.766 165.401 319.388 164.321
C313.01 163.241 306.949 160.762 301.642 157.064
C296.335 153.365 291.911 148.537 288.69 142.927" style="fill:#0000ff;opacity:0.4;"/>
   </g>
   <g id="patch_13">
    <path clip-path="url(#pd8fc3d25e8)" d="
M288.69 142.927
C293.776 146.736 299.55 149.527 305.695 151.147
C311.839 152.767 318.238 153.186 324.542 152.381
C313.278 148.146 303.814 140.152 297.753 129.757
C291.692 119.362 289.398 107.187 291.26 95.2992
C286.28 102.142 283.387 110.283 282.931 118.733
C282.475 127.184 284.475 135.588 288.69 142.927" style="fill:#b200b2;opacity:0.4;"/>
   </g>
   <g id="patch_14">
    <path clip-path="url(#pd8fc3d25e8)" d="
M355.419 154.227
C362.228 148.325 367.056 140.466 369.24 131.724
C371.425 122.981 370.862 113.775 367.628 105.364
C367.164 117.027 362.578 128.155 354.693 136.761
C346.807 145.366 336.12 150.903 324.542 152.381
C329.449 154.227 334.607 155.324 339.841 155.637
C345.075 155.95 350.326 155.475 355.419 154.227" style="fill:#0059b2;opacity:0.4;"/>
   </g>
   <g id="patch_15">
    <path clip-path="url(#pd8fc3d25e8)" d="
M324.542 152.381
C336.12 150.903 346.807 145.366 354.693 136.761
C362.578 128.155 367.164 117.027 367.628 105.364
C364.799 98.0043 360.036 91.5423 353.843 86.6619
C347.65 81.7815 340.253 78.661 332.436 77.6308
C324.619 76.6005 316.666 77.698 309.42 80.8073
C302.174 83.9165 295.899 88.9237 291.26 95.2992
C289.398 107.187 291.692 119.362 297.753 129.757
C303.814 140.152 313.278 148.146 324.542 152.381" style="fill:#663366;opacity:0.4;"/>
   </g>
   <g id="text_11">
    <!-- 1185800 -->
    <g transform="translate(265.886866782 89.9174997158)scale(0.08 -0.08)">
     <use xlink:href="#BitstreamVeraSans-Roman-31"/>
     <use x="63.623046875" xlink:href="#BitstreamVeraSans-Roman-31"/>
     <use x="127.24609375" xlink:href="#BitstreamVeraSans-Roman-38"/>
     <use x="190.869140625" xlink:href="#BitstreamVeraSans-Roman-35"/>
     <use x="254.4921875" xlink:href="#BitstreamVeraSans-Roman-38"/>
     <use x="318.115234375" xlink:href="#BitstreamVeraSans-Roman-30"/>
     <use x="381.73828125" xlink:href="#BitstreamVeraSans-Roman-30"/>
    </g>
   </g>
   <g id="text_12">
    <!-- 1942211 -->
    <g transform="translate(363.905782104 101.250565826)scale(0.08 -0.08)">
     <use xlink:href="#BitstreamVeraSans-Roman-31"/>
     <use x="63.623046875" xlink:href="#BitstreamVeraSans-Roman-39"/>
     <use x="127.24609375" xlink:href="#BitstreamVeraSans-Roman-34"/>
     <use x="190.869140625" xlink:href="#BitstreamVeraSans-Roman-32"/>
     <use x="254.4921875" xlink:href="#BitstreamVeraSans-Roman-32"/>
     <use x="318.115234375" xlink:href="#BitstreamVeraSans-Roman-31"/>
     <use x="381.73828125" xlink:href="#BitstreamVeraSans-Roman-31"/>
    </g>
   </g>
   <g id="text_13">
    <!-- 816648 -->
    <g transform="translate(310.187903787 68.0531490877)scale(0.08 -0.08)">
     <use xlink:href="#BitstreamVeraSans-Roman-38"/>
     <use x="63.623046875" xlink:href="#BitstreamVeraSans-Roman-31"/>
     <use x="127.24609375" xlink:href="#BitstreamVeraSans-Roman-36"/>
     <use x="190.869140625" xlink:href="#BitstreamVeraSans-Roman-36"/>
     <use x="254.4921875" xlink:href="#BitstreamVeraSans-Roman-34"/>
     <use x="318.115234375" xlink:href="#BitstreamVeraSans-Roman-38"/>
    </g>
   </g>
   <g id="text_14">
    <!-- 534660 -->
    <g transform="translate(309.8459173 160.839332777)scale(0.08 -0.08)">
     <use xlink:href="#BitstreamVeraSans-Roman-35"/>
     <use x="63.623046875" xlink:href="#BitstreamVeraSans-Roman-33"/>
     <use x="127.24609375" xlink:href="#BitstreamVeraSans-Roman-34"/>
     <use x="190.869140625" xlink:href="#BitstreamVeraSans-Roman-36"/>
     <use x="254.4921875" xlink:href="#BitstreamVeraSans-Roman-36"/>
     <use x="318.115234375" xlink:href="#BitstreamVeraSans-Roman-30"/>
    </g>
   </g>
   <g id="text_15">
    <!-- 321237 -->
    <g transform="translate(280.052092884 140.775252603)scale(0.08 -0.08)">
     <use xlink:href="#BitstreamVeraSans-Roman-33"/>
     <use x="63.623046875" xlink:href="#BitstreamVeraSans-Roman-32"/>
     <use x="127.24609375" xlink:href="#BitstreamVeraSans-Roman-31"/>
     <use x="190.869140625" xlink:href="#BitstreamVeraSans-Roman-32"/>
     <use x="254.4921875" xlink:href="#BitstreamVeraSans-Roman-33"/>
     <use x="318.115234375" xlink:href="#BitstreamVeraSans-Roman-37"/>
    </g>
   </g>
   <g id="text_16">
    <!-- 264260 -->
    <g transform="translate(336.70605703 150.956789208)scale(0.08 -0.08)">
     <use xlink:href="#BitstreamVeraSans-Roman-32"/>
     <use x="63.623046875" xlink:href="#BitstreamVeraSans-Roman-36"/>
     <use x="127.24609375" xlink:href="#BitstreamVeraSans-Roman-34"/>
     <use x="190.869140625" xlink:href="#BitstreamVeraSans-Roman-32"/>
     <use x="254.4921875" xlink:href="#BitstreamVeraSans-Roman-36"/>
     <use x="318.115234375" xlink:href="#BitstreamVeraSans-Roman-30"/>
    </g>
   </g>
   <g id="text_17">
    <!-- 3357797 -->
    <g transform="translate(310.641816025 119.888994217)scale(0.08 -0.08)">
     <use xlink:href="#BitstreamVeraSans-Roman-33"/>
     <use x="63.623046875" xlink:href="#BitstreamVeraSans-Roman-33"/>
     <use x="127.24609375" xlink:href="#BitstreamVeraSans-Roman-35"/>
     <use x="190.869140625" xlink:href="#BitstreamVeraSans-Roman-37"/>
     <use x="254.4921875" xlink:href="#BitstreamVeraSans-Roman-37"/>
     <use x="318.115234375" xlink:href="#BitstreamVeraSans-Roman-39"/>
     <use x="381.73828125" xlink:href="#BitstreamVeraSans-Roman-37"/>
    </g>
   </g>
   <g id="text_18">
    <!-- North -->
    <defs>
     <path d="
M9.8125 72.9062
L23.0938 72.9062
L55.4219 11.9219
L55.4219 72.9062
L64.9844 72.9062
L64.9844 0
L51.7031 0
L19.3906 60.9844
L19.3906 0
L9.8125 0
z
" id="BitstreamVeraSans-Roman-4e"/>
    </defs>
    <g transform="translate(268.501449089 54.015437442)scale(0.096 -0.096)">
     <use xlink:href="#BitstreamVeraSans-Roman-4e"/>
     <use x="74.8046875" xlink:href="#BitstreamVeraSans-Roman-6f"/>
     <use x="135.986328125" xlink:href="#BitstreamVeraSans-Roman-72"/>
     <use x="177.099609375" xlink:href="#BitstreamVeraSans-Roman-74"/>
     <use x="216.30859375" xlink:href="#BitstreamVeraSans-Roman-68"/>
    </g>
   </g>
   <g id="text_19">
    <!-- Admixed -->
    <g transform="translate(369.129331445 51.0639985084)scale(0.096 -0.096)">
     <use xlink:href="#BitstreamVeraSans-Roman-41"/>
     <use x="66.658203125" xlink:href="#BitstreamVeraSans-Roman-64"/>
     <use x="130.134765625" xlink:href="#BitstreamVeraSans-Roman-6d"/>
     <use x="227.546875" xlink:href="#BitstreamVeraSans-Roman-69"/>
     <use x="255.330078125" xlink:href="#BitstreamVeraSans-Roman-78"/>
     <use x="311.384765625" xlink:href="#BitstreamVeraSans-Roman-65"/>
     <use x="372.908203125" xlink:href="#BitstreamVeraSans-Roman-64"/>
    </g>
   </g>
   <g id="text_20">
    <!-- South -->
    <g transform="translate(313.481351179 176.614556009)scale(0.096 -0.096)">
     <use xlink:href="#BitstreamVeraSans-Roman-53"/>
     <use x="63.4765625" xlink:href="#BitstreamVeraSans-Roman-6f"/>
     <use x="124.658203125" xlink:href="#BitstreamVeraSans-Roman-75"/>
     <use x="188.037109375" xlink:href="#BitstreamVeraSans-Roman-74"/>
     <use x="227.24609375" xlink:href="#BitstreamVeraSans-Roman-68"/>
    </g>
   </g>
  </g>
  <g id="axes_3">
   <g id="patch_16">
    <path clip-path="url(#p6017ad516f)" d="
M501.035 45.83
C492.501 48.788 484.858 53.8678 478.827 60.5904
C472.795 67.3129 468.571 75.4601 466.553 84.2633
C462.183 89.224 458.77 94.9522 456.488 101.157
C454.206 107.362 453.094 113.936 453.208 120.546
C448.821 112.592 446.662 103.6 446.958 94.5214
C447.255 85.4428 449.997 76.6106 454.894 68.9603
C459.791 61.31 466.664 55.1217 474.784 51.0511
C482.905 46.9804 491.975 45.1763 501.035 45.83" style="fill:#ff0000;opacity:0.4;"/>
   </g>
   <g id="patch_17">
    <path clip-path="url(#p6017ad516f)" d="
M559.001 130.768
C560.768 122.476 560.538 113.881 558.331 105.695
C556.124 97.5089 552.001 89.9638 546.305 83.6841
C543.685 73.4241 537.902 64.2442 529.779 57.4516
C521.655 50.659 511.597 46.5921 501.035 45.83
C512.085 41.9997 524.095 41.9125 535.2 45.582
C546.305 49.2514 555.899 56.4772 562.491 66.1374
C569.084 75.7976 572.316 87.365 571.685 99.0434
C571.055 110.722 566.596 121.874 559.001 130.768" style="fill:#008000;opacity:0.4;"/>
   </g>
   <g id="patch_18">
    <path clip-path="url(#p6017ad516f)" d="
M501.035 45.83
C492.501 48.788 484.858 53.8678 478.827 60.5904
C472.795 67.3129 468.571 75.4601 466.553 84.2633
C471.529 78.6148 477.642 74.0798 484.491 70.9559
C491.34 67.8319 498.772 66.1887 506.299 66.134
C513.827 66.0793 521.282 67.6144 528.176 70.6386
C535.069 73.6627 541.247 78.1084 546.305 83.6841
C543.685 73.4241 537.902 64.2442 529.779 57.4516
C521.655 50.659 511.597 46.5921 501.035 45.83" style="fill:#b25900;opacity:0.4;"/>
   </g>
   <g id="patch_19">
    <path clip-path="url(#p6017ad516f)" d="
M453.208 120.546
C457.865 128.991 464.847 135.926 473.322 140.527
C481.797 145.128 491.416 147.205 501.035 146.511
C511.158 150.02 522.108 150.395 532.448 147.587
C542.788 144.779 552.044 138.916 559.001 130.768
C556.264 143.612 548.891 155.008 538.298 162.769
C527.704 170.529 514.615 174.123 501.544 172.86
C488.473 171.597 476.314 165.564 467.402 155.919
C458.49 146.274 453.435 133.676 453.208 120.546" style="fill:#0000ff;opacity:0.4;"/>
   </g>
   <g id="patch_20">
    <path clip-path="url(#p6017ad516f)" d="
M453.208 120.546
C457.865 128.991 464.847 135.926 473.322 140.527
C481.797 145.128 491.416 147.205 501.035 146.511
C488.629 142.211 478.24 133.473 471.878 121.988
C465.516 110.502 463.618 97.0611 466.553 84.2633
C462.183 89.224 458.77 94.9522 456.488 101.157
C454.206 107.362 453.094 113.936 453.208 120.546" style="fill:#b200b2;opacity:0.4;"/>
   </g>
   <g id="patch_21">
    <path clip-path="url(#p6017ad516f)" d="
M559.001 130.768
C560.768 122.476 560.538 113.881 558.331 105.695
C556.124 97.5089 552.001 89.9638 546.305 83.6841
C548.132 90.8389 548.367 98.3082 546.992 105.564
C545.618 112.819 542.668 119.685 538.351 125.676
C534.034 131.667 528.455 136.638 522.007 140.238
C515.56 143.838 508.4 145.98 501.035 146.511
C511.158 150.02 522.108 150.395 532.448 147.587
C542.788 144.779 552.044 138.916 559.001 130.768" style="fill:#0059b2;opacity:0.4;"/>
   </g>
   <g id="patch_22">
    <path clip-path="url(#p6017ad516f)" d="
M501.035 146.511
C508.4 145.98 515.56 143.838 522.007 140.238
C528.455 136.638 534.034 131.667 538.351 125.676
C542.668 119.685 545.618 112.819 546.992 105.564
C548.367 98.3082 548.132 90.8389 546.305 83.6841
C541.247 78.1084 535.069 73.6627 528.176 70.6386
C521.282 67.6144 513.827 66.0793 506.299 66.134
C498.772 66.1887 491.34 67.8319 484.491 70.9559
C477.642 74.0798 471.529 78.6148 466.553 84.2633
C463.618 97.0611 465.516 110.502 471.878 121.988
C478.24 133.473 488.629 142.211 501.035 146.511" style="fill:#663366;opacity:0.4;"/>
   </g>
   <g id="text_21">
    <!-- 961331 -->
    <g transform="translate(444.106124387 82.5482859342)scale(0.08 -0.08)">
     <use xlink:href="#BitstreamVeraSans-Roman-39"/>
     <use x="63.623046875" xlink:href="#BitstreamVeraSans-Roman-36"/>
     <use x="127.24609375" xlink:href="#BitstreamVeraSans-Roman-31"/>
     <use x="190.869140625" xlink:href="#BitstreamVeraSans-Roman-33"/>
     <use x="254.4921875" xlink:href="#BitstreamVeraSans-Roman-33"/>
     <use x="318.115234375" xlink:href="#BitstreamVeraSans-Roman-31"/>
    </g>
   </g>
   <g id="text_22">
    <!-- 1398915 -->
    <g transform="translate(539.876897303 81.6952369618)scale(0.08 -0.08)">
     <use xlink:href="#BitstreamVeraSans-Roman-31"/>
     <use x="63.623046875" xlink:href="#BitstreamVeraSans-Roman-33"/>
     <use x="127.24609375" xlink:href="#BitstreamVeraSans-Roman-39"/>
     <use x="190.869140625" xlink:href="#BitstreamVeraSans-Roman-38"/>
     <use x="254.4921875" xlink:href="#BitstreamVeraSans-Roman-39"/>
     <use x="318.115234375" xlink:href="#BitstreamVeraSans-Roman-31"/>
     <use x="381.73828125" xlink:href="#BitstreamVeraSans-Roman-35"/>
    </g>
   </g>
   <g id="text_23">
    <!-- 545706 -->
    <g transform="translate(487.109151678 58.2669411233)scale(0.08 -0.08)">
     <use xlink:href="#BitstreamVeraSans-Roman-35"/>
     <use x="63.623046875" xlink:href="#BitstreamVeraSans-Roman-34"/>
     <use x="127.24609375" xlink:href="#BitstreamVeraSans-Roman-35"/>
     <use x="190.869140625" xlink:href="#BitstreamVeraSans-Roman-37"/>
     <use x="254.4921875" xlink:href="#BitstreamVeraSans-Roman-30"/>
     <use x="318.115234375" xlink:href="#BitstreamVeraSans-Roman-36"/>
    </g>
   </g>
   <g id="text_24">
    <!-- 1724473 -->
    <g transform="translate(483.979869791 161.867339418)scale(0.08 -0.08)">
     <use xlink:href="#BitstreamVeraSans-Roman-31"/>
     <use x="63.623046875" xlink:href="#BitstreamVeraSans-Roman-37"/>
     <use x="127.24609375" xlink:href="#BitstreamVeraSans-Roman-32"/>
     <use x="190.869140625" xlink:href="#BitstreamVeraSans-Roman-34"/>
     <use x="254.4921875" xlink:href="#BitstreamVeraSans-Roman-34"/>
     <use x="318.115234375" xlink:href="#BitstreamVeraSans-Roman-37"/>
     <use x="381.73828125" xlink:href="#BitstreamVeraSans-Roman-33"/>
    </g>
   </g>
   <g id="text_25">
    <!-- 269934 -->
    <g transform="translate(446.137308544 119.88512498)scale(0.08 -0.08)">
     <use xlink:href="#BitstreamVeraSans-Roman-32"/>
     <use x="63.623046875" xlink:href="#BitstreamVeraSans-Roman-36"/>
     <use x="127.24609375" xlink:href="#BitstreamVeraSans-Roman-39"/>
     <use x="190.869140625" xlink:href="#BitstreamVeraSans-Roman-39"/>
     <use x="254.4921875" xlink:href="#BitstreamVeraSans-Roman-33"/>
     <use x="318.115234375" xlink:href="#BitstreamVeraSans-Roman-34"/>
    </g>
   </g>
   <g id="text_26">
    <!-- 481998 -->
    <g transform="translate(535.403985224 128.034724272)scale(0.08 -0.08)">
     <use xlink:href="#BitstreamVeraSans-Roman-34"/>
     <use x="63.623046875" xlink:href="#BitstreamVeraSans-Roman-38"/>
     <use x="127.24609375" xlink:href="#BitstreamVeraSans-Roman-31"/>
     <use x="190.869140625" xlink:href="#BitstreamVeraSans-Roman-39"/>
     <use x="254.4921875" xlink:href="#BitstreamVeraSans-Roman-39"/>
     <use x="318.115234375" xlink:href="#BitstreamVeraSans-Roman-38"/>
    </g>
   </g>
   <g id="text_27">
    <!-- 3904511 -->
    <g transform="translate(487.490268494 107.026948966)scale(0.08 -0.08)">
     <use xlink:href="#BitstreamVeraSans-Roman-33"/>
     <use x="63.623046875" xlink:href="#BitstreamVeraSans-Roman-39"/>
     <use x="127.24609375" xlink:href="#BitstreamVeraSans-Roman-30"/>
     <use x="190.869140625" xlink:href="#BitstreamVeraSans-Roman-34"/>
     <use x="254.4921875" xlink:href="#BitstreamVeraSans-Roman-35"/>
     <use x="318.115234375" xlink:href="#BitstreamVeraSans-Roman-31"/>
     <use x="381.73828125" xlink:href="#BitstreamVeraSans-Roman-31"/>
    </g>
   </g>
   <g id="text_28">
    <!-- North -->
    <g transform="translate(447.073567365 45.6991702252)scale(0.096 -0.096)">
     <use xlink:href="#BitstreamVeraSans-Roman-4e"/>
     <use x="74.8046875" xlink:href="#BitstreamVeraSans-Roman-6f"/>
     <use x="135.986328125" xlink:href="#BitstreamVeraSans-Roman-72"/>
     <use x="177.099609375" xlink:href="#BitstreamVeraSans-Roman-74"/>
     <use x="216.30859375" xlink:href="#BitstreamVeraSans-Roman-68"/>
    </g>
   </g>
   <g id="text_29">
    <!-- Centre -->
    <g transform="translate(545.12330895 42.89168756)scale(0.096 -0.096)">
     <use xlink:href="#BitstreamVeraSans-Roman-43"/>
     <use x="69.82421875" xlink:href="#BitstreamVeraSans-Roman-65"/>
     <use x="131.34765625" xlink:href="#BitstreamVeraSans-Roman-6e"/>
     <use x="194.7265625" xlink:href="#BitstreamVeraSans-Roman-74"/>
     <use x="233.935546875" xlink:href="#BitstreamVeraSans-Roman-72"/>
     <use x="272.798828125" xlink:href="#BitstreamVeraSans-Roman-65"/>
    </g>
   </g>
   <g id="text_30">
    <!-- Admixed -->
    <g transform="translate(486.214323015 185.751598989)scale(0.096 -0.096)">
     <use xlink:href="#BitstreamVeraSans-Roman-41"/>
     <use x="66.658203125" xlink:href="#BitstreamVeraSans-Roman-64"/>
     <use x="130.134765625" xlink:href="#BitstreamVeraSans-Roman-6d"/>
     <use x="227.546875" xlink:href="#BitstreamVeraSans-Roman-69"/>
     <use x="255.330078125" xlink:href="#BitstreamVeraSans-Roman-78"/>
     <use x="311.384765625" xlink:href="#BitstreamVeraSans-Roman-65"/>
     <use x="372.908203125" xlink:href="#BitstreamVeraSans-Roman-64"/>
    </g>
   </g>
  </g>
 </g>
 <defs>
  <clipPath id="p6017ad516f">
   <rect height="153.091215043" width="147.705882353" x="435.494117647" y="31.4543924784"/>
  </clipPath>
  <clipPath id="paae811c157">
   <rect height="131.923486363" width="147.705882353" x="81.0" y="42.0382568186"/>
  </clipPath>
  <clipPath id="pd8fc3d25e8">
   <rect height="135.185979712" width="147.705882353" x="258.247058824" y="40.4070101441"/>
  </clipPath>
 </defs>
</svg>
